<?xml version="1.0" standalone="no"?>
<!DOCTYPE svg PUBLIC "-//W3C//DTD SVG 1.1//EN" "http://www.w3.org/Graphics/SVG/1.1/DTD/svg11.dtd" >
<svg xmlns="http://www.w3.org/2000/svg" xmlns:xlink="http://www.w3.org/1999/xlink" version="1.1">
<metadata>
Created by FontForge 20170731 at Thu Jun 20 17:33:06 2013
 By Aleksey,,,
(c) 2013 Microsoft Corporation. All Rights Reserved.
</metadata>
<defs>
<font id="Cambria-Italic" horiz-adv-x="0" >
  <font-face 
    font-family="Cambria"
    font-weight="400"
    font-style="italic"
    font-stretch="normal"
    units-per-em="2048"
    panose-1="2 4 5 3 5 4 6 10 2 4"
    ascent="1638"
    descent="-410"
    x-height="956"
    cap-height="1365"
    bbox="-2263 -571 2503 2145"
    underline-thickness="116"
    underline-position="-299"
    slope="-12.4"
    unicode-range="U+0009-FB04"
  />
<missing-glyph horiz-adv-x="1348" 
d="M567 487v22q0 22 3 40.5t14 39.5t32 47.5t57 65.5q23 25 42 48.5t32.5 49t21 54t7.5 63.5q0 75 -32.5 116t-94.5 41q-32 0 -56 -10t-42 -28t-30.5 -43t-21.5 -55h-96v130q60 30 128.5 53t135.5 23q70 0 119.5 -14.5t80.5 -40t45 -60.5t14 -76q0 -38 -7.5 -69t-25.5 -61.5
t-48 -65.5t-74 -80q-32 -33 -51 -55t-29.5 -41.5t-14 -39.5t-3.5 -48v-6h-106zM691 377v-161h-144v161h144zM1055 93v1178h-762v-1178h762zM1158 1364v-1364h-968v1364h968z" />
    <glyph glyph-name="uniFB03" unicode="f&#xfb01;" horiz-adv-x="1713" 
d="M254 -17q-34 -160 -93.5 -254t-144.5 -135t-206 -41q-44 0 -79 10l23 88q24 -8 70 -8q53 0 86.5 14t62 45.5t54 92t48.5 159.5l203 901h-121l12 51q49 5 69 13.5t32.5 23t22.5 41t29 91.5q53 180 163.5 270.5t281.5 90.5q98 0 169 -16l-39 -170h-88q-14 57 -36.5 82
t-66.5 25q-57 0 -97 -31t-68.5 -93.5t-52.5 -167.5l-25 -109h376q10 16 20 48l22 71q53 180 159.5 270.5t272.5 90.5q69 0 121 -10l-40 -176h-81q0 50 -21 76t-56 26q-63 0 -106 -59t-82 -223l-26 -114h229l-22 -101h-230l-186 -872q-34 -160 -93.5 -254t-144.5 -135
t-206 -41q-44 0 -79 10l23 88q24 -8 70 -8q53 0 86.5 14t62 45.5t54 92t48.5 159.5l203 901h-397zM1718 1348l-46 -194h-177l46 194h177zM1471 250q-11 -51 -14 -74.5t-3 -39.5q0 -30 10 -47t31 -26t69 -14l-9 -49h-310l151 674q13 58 18 92.5t5 57.5q0 29 -8.5 45t-28.5 24
t-69 10l11 53l244 9h59z" />
    <glyph glyph-name="uniFB04" unicode="f&#xfb02;" horiz-adv-x="1704" 
d="M254 -17q-34 -160 -93.5 -254t-144.5 -135t-206 -41q-44 0 -79 10l23 88q24 -8 70 -8q53 0 86.5 14t62 45.5t54 92t48.5 159.5l203 901h-121l12 51q49 5 69 13.5t32.5 23t22.5 41t29 91.5q53 180 163.5 270.5t281.5 90.5q98 0 169 -16l-39 -170h-88q-14 57 -36.5 82
t-66.5 25q-57 0 -97 -31t-68.5 -93.5t-52.5 -167.5l-25 -109h376q10 16 20 48l22 71q53 180 161 270.5t274 90.5q72 0 128 -11l-1 -3l220 8h59l-260 -1180q-11 -48 -14 -72.5t-3 -41.5q0 -30 10 -47t31 -26t69 -14l-8 -49h-312l258 1148q10 44 14 66t6 42t2 35q0 36 -17 53
t-67 22l-27 -116h-86q0 47 -21 74.5t-58 27.5q-65 0 -109.5 -61t-75.5 -195l-32 -140h229l-22 -101h-230l-186 -872q-34 -160 -93.5 -254t-144.5 -135t-206 -41q-44 0 -79 10l23 88q24 -8 70 -8q53 0 86.5 14t62 45.5t54 92t48.5 159.5l203 901h-397z" />
    <glyph glyph-name="uniFB00_b.liga" unicode="&#xfb00;b" horiz-adv-x="2225" 
d="M254 -17q-34 -160 -93.5 -254t-144.5 -135t-206 -41q-44 0 -79 10l23 88q24 -8 70 -8q53 0 86.5 14t62 45.5t54 92t48.5 159.5l203 901h-121l12 51q49 5 69 13.5t32.5 23t22.5 41t29 91.5q53 180 163.5 270.5t281.5 90.5q98 0 169 -16l-39 -170h-88q-14 57 -36.5 82
t-66.5 25q-57 0 -97 -31t-68.5 -93.5t-52.5 -167.5l-25 -109h376q10 16 20 48l22 71q53 180 159.5 270.5t272.5 90.5q69 0 121 -10l-1 -5l232 9h58l-176 -700l13 -4q97 130 182 188t170 58q109 0 169.5 -83t60.5 -234q0 -108 -29.5 -217t-82 -197t-117 -144.5t-136 -84.5
t-150.5 -28q-133 0 -236 65l-92 -65l-64 16l259 1143q6 25 14.5 72t8.5 76q0 38 -20.5 55.5t-75.5 21.5l-27 -118h-81q0 50 -21 76t-56 26q-63 0 -106 -59t-82 -223l-26 -114h229l-22 -101h-230l-186 -872q-34 -160 -93.5 -254t-144.5 -135t-206 -41q-44 0 -79 10l23 88
q24 -8 70 -8q53 0 86.5 14t62 45.5t54 92t48.5 159.5l203 901h-397zM1479 348q-10 -45 -12.5 -76.5t-2.5 -59.5q0 -79 34.5 -114t114.5 -35q53 0 97 21.5t82.5 60.5t69.5 94t54.5 125t35.5 144.5t12 138.5q0 104 -29.5 156t-94.5 52q-48 0 -94.5 -30.5t-103.5 -101
t-93 -144.5t-61 -189z" />
    <glyph glyph-name="uniFB00_h.liga" unicode="&#xfb00;h" horiz-adv-x="2244" 
d="M254 -17q-34 -160 -93.5 -254t-144.5 -135t-206 -41q-44 0 -79 10l23 88q24 -8 70 -8q53 0 86.5 14t62 45.5t54 92t48.5 159.5l203 901h-121l12 51q49 5 69 13.5t32.5 23t22.5 41t29 91.5q53 180 163.5 270.5t281.5 90.5q98 0 169 -16l-39 -170h-88q-14 57 -36.5 82
t-66.5 25q-57 0 -97 -31t-68.5 -93.5t-52.5 -167.5l-25 -109h376q10 16 20 48l22 71q53 180 159.5 270.5t272.5 90.5q69 0 121 -10l-1 -4l231 8h58l-172 -693l12 -4q94 125 179 182t173 57q97 0 147 -53.5t50 -158.5q0 -64 -20 -154l-84 -356q-10 -43 -14 -69t-4 -45
q0 -31 10.5 -48t32 -25.5t68.5 -13.5l-9 -49h-314l126 508q14 55 24.5 111.5t10.5 102.5q0 72 -24 102.5t-81 30.5q-41 0 -90.5 -34t-104.5 -103.5t-87.5 -133t-51.5 -151.5l-91 -433h-173l257 1143q11 50 15.5 72.5t6.5 41.5t2 34q0 39 -21 56t-74 21l-27 -118h-81
q0 50 -21 76t-56 26q-63 0 -106 -59t-82 -223l-26 -114h229l-22 -101h-230l-186 -872q-34 -160 -93.5 -254t-144.5 -135t-206 -41q-44 0 -79 10l23 88q24 -8 70 -8q53 0 86.5 14t62 45.5t54 92t48.5 159.5l203 901h-397z" />
    <glyph glyph-name="uniFB00_j.liga" unicode="&#xfb00;j" horiz-adv-x="1703" 
d="M254 -17q-34 -160 -93.5 -254t-144.5 -135t-206 -41q-44 0 -79 10l23 88q24 -8 70 -8q53 0 86.5 14t62 45.5t54 92t48.5 159.5l203 901h-121l12 51q49 5 69 13.5t32.5 23t22.5 41t29 91.5q53 180 163.5 270.5t281.5 90.5q98 0 169 -16l-39 -170h-88q-14 57 -36.5 82
t-66.5 25q-57 0 -97 -31t-68.5 -93.5t-52.5 -167.5l-25 -109h376q10 16 20 48l22 71q53 180 159.5 270.5t272.5 90.5q69 0 121 -10l-40 -176h-81q0 50 -21 76t-56 26q-63 0 -106 -59t-82 -223l-26 -114h229l-22 -101h-230l-186 -872q-34 -160 -93.5 -254t-144.5 -135
t-206 -41q-44 0 -79 10l23 88q24 -8 70 -8q53 0 86.5 14t62 45.5t54 92t48.5 159.5l203 901h-397zM1721 1348l-46 -194h-177l46 194h177zM1420 -17q-32 -152 -87 -244.5t-143 -139t-210 -46.5q-50 0 -85 10l23 88q16 -5 35.5 -6.5t40.5 -1.5q48 0 81.5 14.5t62.5 48
t53.5 93.5t45.5 155l162 720q13 56 18 91t5 59q0 29 -8.5 45t-28.5 24t-69 10l11 53l244 9h57z" />
    <glyph glyph-name="uniFB00_k.liga" unicode="&#xfb00;k" horiz-adv-x="2176" 
d="M254 -17q-34 -160 -93.5 -254t-144.5 -135t-206 -41q-44 0 -79 10l23 88q24 -8 70 -8q53 0 86.5 14t62 45.5t54 92t48.5 159.5l203 901h-121l12 51q49 5 69 13.5t32.5 23t22.5 41t29 91.5q53 180 163.5 270.5t281.5 90.5q98 0 169 -16l-39 -170h-88q-14 57 -36.5 82
t-66.5 25q-57 0 -97 -31t-68.5 -93.5t-52.5 -167.5l-25 -109h376q10 16 20 48l22 71q53 180 159.5 270.5t272.5 90.5q69 0 121 -10l-1 -4l231 8h58l-196 -873h32q31 0 67 12t77 37.5t110 80.5q52 42 77 71.5t34 51.5t9 42q0 49 -68 55l11 49h324l19 -49q-83 -75 -176 -147
l-253 -197l150 -379q20 -51 41 -78.5t48.5 -40.5t70.5 -16l-11 -49h-267l-146 411q-14 39 -24 53t-23 20t-42 6h-74l-104 -490h-173l257 1143q11 50 15.5 72.5t6.5 41.5t2 34q0 39 -21 56t-74 21l-27 -118h-81q0 50 -21 76t-56 26q-63 0 -106 -59t-82 -223l-26 -114h229
l-22 -101h-230l-186 -872q-34 -160 -93.5 -254t-144.5 -135t-206 -41q-44 0 -79 10l23 88q24 -8 70 -8q53 0 86.5 14t62 45.5t54 92t48.5 159.5l203 901h-397z" />
    <glyph glyph-name=".notdef" horiz-adv-x="1348" 
d="M567 487v22q0 22 3 40.5t14 39.5t32 47.5t57 65.5q23 25 42 48.5t32.5 49t21 54t7.5 63.5q0 75 -32.5 116t-94.5 41q-32 0 -56 -10t-42 -28t-30.5 -43t-21.5 -55h-96v130q60 30 128.5 53t135.5 23q70 0 119.5 -14.5t80.5 -40t45 -60.5t14 -76q0 -38 -7.5 -69t-25.5 -61.5
t-48 -65.5t-74 -80q-32 -33 -51 -55t-29.5 -41.5t-14 -39.5t-3.5 -48v-6h-106zM691 377v-161h-144v161h144zM1055 93v1178h-762v-1178h762zM1158 1364v-1364h-968v1364h968z" />
    <glyph glyph-name="glyph1" 
 />
    <glyph glyph-name="glyph1" 
 />
    <glyph glyph-name="glyph2" horiz-adv-x="451" 
 />
    <glyph glyph-name="uni0009" unicode="&#x9;" horiz-adv-x="451" 
 />
    <glyph glyph-name="uni0009" unicode="&#xa0;" horiz-adv-x="451" 
 />
    <glyph glyph-name="uni0009" unicode=" " horiz-adv-x="451" 
 />
    <glyph glyph-name="uni0009" unicode="&#xd;" horiz-adv-x="451" 
 />
    <glyph glyph-name="exclam" unicode="!" horiz-adv-x="574" 
d="M589 1365l-270 -949h-99l164 949h205zM328 232l-51 -232h-190l51 232h190z" />
    <glyph glyph-name="quotedbl" unicode="&#x22;" horiz-adv-x="797" 
d="M551 1431l-161 -467h-106l76 467h191zM880 1431l-160 -467h-106l76 467h190z" />
    <glyph glyph-name="numbersign" unicode="#" horiz-adv-x="1268" 
d="M1022 834l-106 -297h197v-114h-239l-148 -423h-131l150 423h-315l-148 -423h-131l149 423h-187v114h227l107 297h-196v115h236l148 417h131l-150 -417h316l149 417h130l-150 -417h188v-115h-227zM577 834l-106 -297h315l106 297h-315z" />
    <glyph glyph-name="dollar" unicode="$" horiz-adv-x="1000" 
d="M760 1344q74 -3 159.5 -21t157.5 -45l-46 -209h-96q-12 92 -62 138.5t-132 51.5l-109 -497q103 -72 153.5 -123t77 -108.5t26.5 -130.5q0 -100 -49.5 -181.5t-145.5 -132t-223 -57.5l-40 -185h-105l40 184q-162 6 -344 62l48 221h96q14 -96 67.5 -146.5t151.5 -55.5
l116 532q-93 68 -135 107.5t-68 79.5t-37 77.5t-11 80.5q0 96 50.5 176t143 128.5t211.5 53.5l41 185h105zM540 816l96 442q-101 -13 -158.5 -76.5t-57.5 -159.5q0 -66 28 -112t92 -94zM593 586l-103 -471q115 12 172 74.5t57 170.5q0 71 -27.5 120.5t-98.5 105.5zM704 1365
z" />
    <glyph glyph-name="percent" unicode="%" horiz-adv-x="1757" 
d="M408 517q-112 0 -167 62.5t-55 186.5q0 79 14 154.5t39.5 143.5t65 128t88 102.5t103 64.5t112.5 22q222 0 222 -249q0 -72 -9 -128q-17 -106 -59.5 -203.5t-104.5 -165.5q-51 -56 -114 -87t-135 -31zM317 714q0 -68 23 -96.5t74 -28.5q47 0 89 34q60 48 104.5 147.5
t73.5 247.5q18 91 18 169q0 62 -22.5 92t-70.5 30q-50 0 -95 -36q-58 -47 -103.5 -149t-74.5 -252q-16 -84 -16 -158zM1570 1365l-1140 -1461h-151l1143 1461h148zM1218 -112q-112 0 -167 62.5t-55 186.5q0 79 14 154.5t39.5 143.5t65 128t88 102.5t103 64.5t112.5 22
q222 0 222 -249q0 -72 -9 -128q-17 -106 -59.5 -203.5t-104.5 -165.5q-51 -56 -114 -87t-135 -31zM1127 85q0 -68 23 -96.5t74 -28.5q47 0 89 34q60 48 104.5 147.5t73.5 247.5q18 91 18 169q0 62 -22.5 92t-70.5 30q-50 0 -95 -36q-58 -47 -103.5 -149t-74.5 -252
q-16 -84 -16 -158z" />
    <glyph glyph-name="ampersand" unicode="&#x26;" horiz-adv-x="1350" 
d="M798 138q-109 -78 -215 -116t-218 -38q-99 0 -170.5 37.5t-107.5 102t-36 143.5q0 93 44 172.5t130.5 150.5t231.5 149q-31 64 -46.5 127t-15.5 131q0 105 55 194.5t150.5 139.5t212.5 50q130 0 203 -56.5t73 -157.5q0 -88 -46 -157.5t-131 -130.5t-266 -151
q32 -64 107.5 -194.5t128.5 -208.5q96 85 145.5 165.5t49.5 146.5q0 67 -76 73l10 49h241l24 -49q-44 -120 -132.5 -238.5t-212.5 -222.5q36 -59 63 -90t51.5 -43.5t56.5 -12.5q41 0 74.5 12t77.5 42l38 -69q-83 -59 -144.5 -81.5t-127.5 -22.5q-68 0 -118.5 34t-103.5 120z
M608 805q119 59 189 111.5t101.5 107t31.5 120.5q0 74 -35 113t-102 39q-70 0 -123.5 -37t-82 -101t-28.5 -143q0 -60 13 -111t36 -99zM495 657q-93 -56 -148 -105t-86.5 -108.5t-31.5 -129.5q0 -75 29 -123.5t76 -70t106 -21.5q52 0 98.5 12.5t92 34.5t116.5 70
q-40 60 -118 197.5t-134 243.5z" />
    <glyph glyph-name="quotesingle" unicode="'" horiz-adv-x="480" 
d="M563 1431l-172 -477h-107l71 477h208z" />
    <glyph glyph-name="parenleft" unicode="(" horiz-adv-x="761" 
d="M517 -435q-142 0 -230 51t-127.5 148.5t-39.5 244.5q0 104 18 230q24 162 69.5 361t89.5 330q51 149 110 243.5t129 149.5t159 82q98 30 235 30l-18 -82q-88 0 -145 -20t-102 -60q-52 -46 -99 -129q-55 -99 -106 -259q-44 -138 -88 -337q-36 -163 -58 -293
q-30 -182 -30 -302q0 -117 28.5 -184t82 -94.5t140.5 -27.5z" />
    <glyph glyph-name="parenright" unicode=")" horiz-adv-x="761" 
d="M254 1435q142 0 230 -51t127.5 -148.5t39.5 -244.5q0 -102 -18 -225q-24 -174 -74 -387q-47 -197 -90 -322q-49 -141 -106.5 -233.5t-128 -147.5t-159.5 -81q-98 -30 -234 -30l18 82q88 0 144.5 20t100.5 59q54 47 102 133q56 101 105.5 258.5t93.5 364.5q35 160 55 284
q27 169 27 281q0 118 -29 185t-82.5 94t-139.5 27z" />
    <glyph glyph-name="asterisk" unicode="*" horiz-adv-x="850" 
d="M860 918l-71 -108l-211 180l-39 -313h-139l96 313l-264 -184l-59 116l306 132l-241 134l74 110l212 -180l38 313h139l-95 -313l261 183l60 -116l-305 -131z" />
    <glyph glyph-name="plus" unicode="+" horiz-adv-x="1082" 
d="M624 518l-84 -381h-150l84 381h-341l30 135h340l83 380h150l-83 -380h344l-30 -135h-343z" />
    <glyph glyph-name="comma" unicode="," horiz-adv-x="408" 
d="M259 232q0 -36 -7 -86t-21.5 -96t-33.5 -81t-49.5 -72t-81.5 -80.5t-132 -95.5l-46 62q48 40 74.5 68t43.5 57t30.5 67.5t29.5 110.5t24 146h169z" />
    <glyph glyph-name="hyphen" unicode="-" horiz-adv-x="653" 
d="M539 449h-437l33 155h437z" />
    <glyph glyph-name="hyphen" unicode="&#x2011;" horiz-adv-x="653" 
d="M539 449h-437l33 155h437z" />
    <glyph glyph-name="hyphen" unicode="&#x2010;" horiz-adv-x="653" 
d="M539 449h-437l33 155h437z" />
    <glyph glyph-name="hyphen" unicode="&#xad;" horiz-adv-x="653" 
d="M539 449h-437l33 155h437z" />
    <glyph glyph-name="period" unicode="." horiz-adv-x="408" 
d="M245 232l-51 -232h-190l51 232h190z" />
    <glyph glyph-name="slash" unicode="/" horiz-adv-x="954" 
d="M1099 1431l-1074 -1861h-160l1075 1861h159z" />
    <glyph glyph-name="zero" unicode="0" horiz-adv-x="1082" 
d="M421 -16q-93 0 -159 35t-102.5 115t-36.5 211q0 117 24 253.5t65.5 257.5t99.5 220t127.5 166.5t148.5 103t163 35.5q83 0 139.5 -26t92 -72.5t51 -111t15.5 -141.5q0 -214 -63.5 -435.5t-161.5 -365.5q-86 -127 -195 -189q-97 -56 -208 -56zM296 282q0 -81 14 -126.5
t43 -66t80 -20.5q75 0 145.5 71t133 212t113.5 361t51 380q0 106 -31.5 154.5t-100.5 48.5q-44 0 -86 -22q-51 -27 -99 -89q-59 -75 -110 -198q-44 -108 -81 -249q-26 -102 -44 -200q-28 -144 -28 -256z" />
    <glyph glyph-name="one" unicode="1" horiz-adv-x="1082" 
d="M609 289q-18 -82 -18 -117q0 -40 21 -59.5t69.5 -28t150.5 -11.5l-15 -73h-706l15 73q84 4 129 11t72.5 19t44.5 29t30 45t25 84l160 725q9 42 13.5 67t4.5 41q0 30 -15 42.5t-36 12.5q-26 0 -79 -25.5t-158 -87.5l-39 80l507 265h69l-29 -117q-16 -64 -34 -149z" />
    <glyph glyph-name="two" unicode="2" horiz-adv-x="1082" 
d="M581 160q37 0 57.5 4t33.5 11.5t27 22.5t25.5 35t29.5 59h93l-74 -292h-784l10 48q58 104 151.5 218t253.5 266q134 127 185 180q91 92 139 159t68 125t20 118q0 84 -47.5 129.5t-135.5 45.5q-82 0 -147.5 -49t-105.5 -139h-129l43 192q113 45 209.5 66.5t192.5 21.5
q98 0 169.5 -32.5t108 -90t36.5 -126.5q0 -65 -16 -118.5t-50 -106.5q-42 -64 -129 -153q-78 -79 -257 -239q-250 -224 -347 -355h370z" />
    <glyph glyph-name="three" unicode="3" horiz-adv-x="1082" 
d="M264 1101l41 192q112 47 206 67.5t196 20.5q65 0 123 -15t101.5 -46t69 -79.5t25.5 -115.5q0 -92 -36 -163.5t-116.5 -131.5t-219.5 -114l-1 -11q124 -29 190 -105t66 -186q0 -83 -36 -167t-101.5 -143t-160.5 -89.5t-223 -30.5q-92 0 -197 20.5t-172 50.5l46 212h115
q6 -102 61 -150t161 -48q100 0 171 44t110.5 129t39.5 192q0 108 -69.5 162t-208.5 54h-100l19 88q121 8 214 44t151 91t82.5 117t24.5 125q0 82 -49 128t-134 46q-96 0 -158 -47t-106 -141h-125z" />
    <glyph glyph-name="four" unicode="4" horiz-adv-x="1082" 
d="M406 49q39 5 57.5 16t32.5 32t27 61.5t32 127.5l28 128h-532l19 94l728 864h166l-190 -861h34q53 0 77 8.5t41 29t38 71.5h90l-57 -206h-244l-32 -144q-9 -43 -12.5 -77t-3.5 -55q0 -46 21 -65.5t77 -23.5l-11 -49h-397zM230 511h376l54 249q43 196 96 392h-14l-509 -627
z" />
    <glyph glyph-name="five" unicode="5" horiz-adv-x="1082" 
d="M419 769q91 33 199 33q101 0 175 -39t113 -111.5t39 -168.5q0 -131 -59.5 -254.5t-175 -184t-281.5 -60.5q-86 0 -184.5 19t-176.5 52l46 212h115q6 -198 206 -198q108 0 179 56t107 152t36 193q0 112 -54 171t-157 59q-48 0 -87 -5t-94 -21l-85 64l139 627h499
q34 0 49.5 5.5t26.5 18.5t23 42h81l-64 -232h-520z" />
    <glyph glyph-name="six" unicode="6" horiz-adv-x="1082" 
d="M382 720q78 48 152 71.5t152 23.5q84 0 152.5 -36.5t109 -111.5t40.5 -183q0 -71 -17.5 -144.5t-55.5 -138t-97 -113t-138.5 -76.5t-179.5 -28q-90 0 -156.5 32.5t-110.5 90t-66 134.5t-22 167q0 80 12 159q17 110 49 197q41 113 116.5 217.5t182.5 188t237 138t275 73.5
l37 -55l-10 -49q-240 -17 -411.5 -159.5t-260.5 -393.5zM306 359q0 -145 55.5 -217.5t164.5 -72.5q79 0 144 51.5t101.5 144.5t36.5 210q0 239 -197 239q-34 0 -66.5 -6.5t-66 -20.5t-63.5 -34q-32 -21 -48 -37q-14 -14 -24 -32q-10 -19 -16 -42q-6 -25 -14 -89
q-7 -51 -7 -94z" />
    <glyph glyph-name="seven" unicode="7" horiz-adv-x="1082" 
d="M1153 1317l-806 -1324h-149l12 56l728 1134l3 15h-415q-49 0 -79.5 -11t-53.5 -38.5t-54 -107.5h-92l81 324h836z" />
    <glyph glyph-name="eight" unicode="8" horiz-adv-x="1082" 
d="M800 709v-13q160 -76 160 -254q0 -39 -10 -91q-13 -73 -44 -132q-37 -72 -100 -124t-152 -81.5t-198 -29.5q-118 0 -205.5 37t-134 106.5t-46.5 163.5q0 80 29.5 160.5t97 144.5t173.5 108l1 13q-70 50 -102.5 113.5t-32.5 141.5q0 38 8 81q11 63 39 114q34 62 94.5 110
t146 76t185.5 28q133 0 218.5 -39t123.5 -103t38 -145q0 -80 -31 -155t-98.5 -136.5t-159.5 -93.5zM408 940q0 -38 8.5 -72.5t31 -61t60 -42t97.5 -15.5q88 0 155 43t108.5 128t41.5 184q0 97 -49.5 144.5t-147.5 47.5q-100 0 -169 -48.5t-102.5 -135.5t-33.5 -172zM251 273
q0 -100 54.5 -152t160.5 -52q83 0 143 34.5t96.5 91.5t55.5 132t19 143q0 97 -49 146.5t-151 49.5q-82 0 -145 -34t-103 -91.5t-60.5 -130t-20.5 -137.5z" />
    <glyph glyph-name="nine" unicode="9" horiz-adv-x="1082" 
d="M791 645q-72 -48 -145 -71.5t-151 -23.5q-91 0 -161.5 41t-108 116.5t-37.5 177.5q0 66 17.5 140t55 137.5t96.5 113.5t137.5 77.5t172.5 27.5q90 0 158 -32.5t113 -90t68 -136.5t23 -173q0 -87 -19 -193q-15 -85 -49 -176q-34 -89 -81 -168q-47 -78 -108 -145
q-60 -66 -128 -117t-144 -87q-77 -36 -159 -56q-80 -20 -165 -23l-37 55l10 49q173 14 298.5 79t211.5 181t142 293zM565 651q58 0 118 22q53 19 95 52q33 25 47 47q19 29 28 83t9 142q0 148 -55 223.5t-162 75.5q-78 0 -143 -53t-102 -149t-37 -210q0 -119 47.5 -176
t154.5 -57z" />
    <glyph glyph-name="colon" unicode=":" horiz-adv-x="530" 
d="M454 902l-51 -232h-190l51 232h190zM306 232l-51 -232h-190l51 232h190z" />
    <glyph glyph-name="semicolon" unicode=";" horiz-adv-x="530" 
d="M454 902l-51 -232h-190l51 232h190zM307 232q0 -36 -7 -86t-21.5 -96t-33.5 -81t-49.5 -72t-81.5 -80.5t-132 -95.5l-46 62q48 40 74.5 68t43.5 57t30.5 67.5t29.5 110.5t24 146h169z" />
    <glyph glyph-name="less" unicode="&#x3c;" horiz-adv-x="1082" 
d="M132 515l30 140l918 378l-35 -160l-761 -298l628 -296l-30 -141z" />
    <glyph glyph-name="equal" unicode="=" horiz-adv-x="1082" 
d="M180 725l30 135h830l-30 -135h-830zM89 310l30 135h830l-30 -135h-830z" />
    <glyph glyph-name="greater" unicode="&#x3e;" horiz-adv-x="1082" 
d="M996 655l-30 -140l-918 -378l35 160l761 298l-628 296l30 141z" />
    <glyph glyph-name="question" unicode="?" horiz-adv-x="834" 
d="M288 416l7 34q9 45 27.5 82.5t57 86t110.5 121.5q82 86 119 134t59.5 93.5t32.5 88.5t10 93q0 72 -38.5 112t-102.5 40q-74 0 -128 -48t-81 -140h-129l35 164q127 61 201 82.5t144 21.5q96 0 162.5 -31.5t98.5 -85t32 -118.5q0 -49 -14.5 -94.5t-47 -94t-89.5 -108
t-151 -147.5q-61 -57 -92 -94.5t-48.5 -73t-30.5 -93.5l-5 -25h-139zM418 232l-51 -232h-190l51 232h190z" />
    <glyph glyph-name="at" unicode="@" horiz-adv-x="1813" 
d="M1110 422l-13 1q-84 -126 -159.5 -184t-153.5 -58q-65 0 -112 33.5t-70.5 95.5t-23.5 145q0 81 19.5 164t58 158t92 131.5t125 91t154.5 34.5q59 0 107.5 -13.5t91.5 -40.5l78 54l64 -15l-111 -501q-10 -44 -14.5 -73t-4.5 -56q0 -115 96 -115q71 0 126 57.5t85 159
t30 220.5q0 187 -60.5 315.5t-180.5 194.5t-291 66q-211 0 -370 -95t-244.5 -270t-85.5 -398q0 -194 66.5 -325t193.5 -196.5t304 -65.5q86 0 157.5 12t152.5 38l24 -90q-64 -25 -153.5 -39t-185.5 -14q-250 0 -412.5 82t-239.5 236t-77 376q0 173 60 327t176 271.5t275 181
t348 63.5q183 0 317.5 -50.5t216 -140t118 -200.5t36.5 -242q0 -166 -50 -296t-141.5 -200.5t-212.5 -70.5q-42 0 -80 10.5t-66.5 33.5t-45.5 60t-17 90q0 24 3 47zM1145 721q8 36 10.5 62t2.5 52q0 64 -27 92t-89 28q-35 0 -66.5 -11.5t-64.5 -38t-62.5 -69t-53.5 -104
t-37.5 -133t-13.5 -137.5q0 -85 23 -127t76 -42q42 0 83.5 30.5t88 90.5t76 122.5t46.5 147.5z" />
    <glyph glyph-name="A" unicode="A" horiz-adv-x="1205" 
d="M678 0l11 49q45 4 70.5 26t36 61t10.5 103q0 39 -3 85l-7 129h-440l-55 -98q-39 -69 -57 -118.5t-18 -87.5q0 -84 101 -100l-11 -49h-409l11 49q31 4 58.5 24.5t58.5 62t87 137.5l641 1108h151l72 -1115q5 -79 18 -123.5t35.5 -66t65.5 -27.5l-11 -49h-416zM401 540h391
l-17 322q-3 66 -5 165t-2 143h-11z" />
    <glyph glyph-name="B" unicode="B" horiz-adv-x="1221" 
d="M895 699q93 -37 143 -105.5t50 -155.5q0 -103 -37.5 -184.5t-118.5 -142.5t-186 -86t-259 -25h-445l11 49q38 6 57 19.5t32 37.5t24 58.5t33 133.5l170 770q22 100 22 158q0 49 -23 68t-75 22l11 49h495q150 0 240.5 -31.5t133 -92.5t42.5 -153q0 -131 -80 -228.5
t-238 -149.5zM619 753q104 0 167.5 14t103.5 42t71.5 65.5t50 88.5t18.5 120q0 43 -15 80.5t-51.5 64t-84 38t-126.5 11.5q-87 0 -162 -3l-113 -521h141zM333 92q78 -4 146 -4q151 0 233.5 38t133.5 124t51 206q0 65 -25.5 110t-81 72t-152.5 27h-181z" />
    <glyph glyph-name="C" unicode="C" horiz-adv-x="1105" 
d="M1184 1330l-60 -271h-96q-8 123 -53.5 177.5t-146.5 54.5q-84 0 -158 -49.5t-140 -143t-115 -219t-75 -256t-26 -235.5q0 -163 53.5 -239.5t167.5 -76.5q75 0 131 22.5t105 76t97 149.5h96l-61 -284q-102 -28 -197 -40t-195 -12q-124 0 -211 51.5t-131 149t-44 234.5
q0 72 10 140q12 84 38 183q33 123 83 224q54 107 123 189q65 76 141 127q70 47 151 73t172 26t168.5 -11t172.5 -40z" />
    <glyph glyph-name="D" unicode="D" horiz-adv-x="1324" 
d="M683 1365q151 0 245 -23t175.5 -83t122.5 -159.5t41 -235.5q0 -135 -31 -258t-89 -226.5t-139 -180t-157 -117.5t-170 -61.5t-219 -20.5h-420l11 49q38 6 57 19.5t32 37.5t24 58.5t33 133.5l170 770q10 46 16 88.5t6 72.5q0 47 -24 65.5t-74 21.5l11 49h379zM332 92
q29 -3 111 -3q101 0 183.5 22t152 70.5t126.5 129.5t92.5 164.5t55.5 179.5t20 203q0 209 -97.5 314.5t-289.5 105.5q-44 0 -95 -3z" />
    <glyph glyph-name="E" unicode="E" horiz-adv-x="1164" 
d="M1224 1365l-69 -307h-96q-3 72 -11 112.5t-18 60t-23 29t-32.5 13.5t-55.5 4h-326l-114 -524h191q44 0 73.5 12t54.5 41.5t56 90.5h91l-90 -384h-85q0 55 -4 81t-10.5 38.5t-16.5 19.5t-26 10t-53 3h-200l-128 -577h296q44 0 74.5 6.5t55.5 22.5t48 41.5t47.5 65.5
t66.5 122h97l-88 -346h-887l11 49q38 6 57 19.5t32 37.5t24 58.5t33 133.5l170 770q22 100 22 161q0 47 -24 65.5t-74 21.5l11 49h920z" />
    <glyph glyph-name="F" unicode="F" horiz-adv-x="1079" 
d="M376 291q-7 -30 -11 -51t-7 -51.5t-3 -53.5q0 -31 10 -48.5t30 -25.5t69 -12l-11 -49h-411l11 49q38 6 57 19.5t32 37.5t24 58.5t33 133.5l170 770q22 100 22 158q0 49 -23 68t-75 22l11 49h902l-69 -307h-96q-4 71 -11 111.5t-17.5 60.5t-23.5 29.5t-32.5 13.5t-55.5 4
h-308l-119 -544h187q44 0 73 12t54 43.5t62 107.5h91l-97 -422h-88q0 62 -2.5 97t-12 49t-27 19.5t-63.5 5.5h-196z" />
    <glyph glyph-name="G" unicode="G" horiz-adv-x="1198" 
d="M816 320q22 94 22 161q0 47 -24 65.5t-74 21.5l11 49h400l-11 -49q-34 -8 -48.5 -15t-25.5 -19.5t-22 -34.5t-22.5 -63.5t-27.5 -116.5l-69 -314l-79 -22l-52 79q-72 -34 -112 -48t-83 -22t-91 -8q-123 0 -209.5 52t-130 148.5t-43.5 228.5q0 107 22 219q25 127 67 237
q40 106 92.5 189.5t117.5 148.5q57 56 125 95t143 59t158 20q95 0 174 -11.5t173 -41.5l-61 -269h-96q-7 87 -29.5 137.5t-65 73.5t-110.5 23q-84 0 -155 -44.5t-136.5 -130.5t-119 -217t-82 -267t-28.5 -246q0 -162 53.5 -239.5t164.5 -77.5q41 0 84 9.5t80.5 32.5t66.5 62
t42 98z" />
    <glyph glyph-name="H" unicode="H" horiz-adv-x="1370" 
d="M1091 291q-13 -59 -17 -93.5t-4 -62.5q0 -45 22.5 -63.5t75.5 -22.5l-11 -49h-400l11 49q38 6 57 19.5t32 37.5t24 58.5t33 133.5l82 371h-537l-83 -378q-8 -37 -12.5 -60.5t-6.5 -46t-2 -49.5q0 -43 20 -62t78 -24l-11 -49h-400l11 49q38 6 57 19.5t32 37.5t24 58.5
t33 133.5l170 770q9 41 15.5 87.5t6.5 73.5q0 47 -24 65.5t-74 21.5l11 49h400l-11 -49q-38 -8 -54.5 -18t-30 -30t-27 -62.5t-34.5 -138.5l-68 -306h537l68 307q9 41 15.5 87.5t6.5 73.5q0 47 -24 65.5t-74 21.5l11 49h400l-11 -49q-34 -8 -48 -15t-25.5 -19t-22 -34.5
t-22.5 -66t-28 -114.5z" />
    <glyph glyph-name="I" unicode="I" horiz-adv-x="656" 
d="M376 291q-13 -59 -17 -93.5t-4 -62.5q0 -45 22.5 -63.5t75.5 -22.5l-11 -49h-400l11 49q38 6 57 19.5t32 37.5t24 58.5t33 133.5l170 770q10 46 16 88.5t6 72.5q0 47 -24 65.5t-74 21.5l11 49h400l-11 -49q-38 -8 -54.5 -18t-30 -30t-27 -62.5t-34.5 -138.5z" />
    <glyph glyph-name="J" unicode="J" horiz-adv-x="613" 
d="M301 43q-34 -156 -87 -248.5t-137.5 -137t-207.5 -44.5q-27 0 -53 2.5t-42 7.5l26 96q16 -5 35.5 -6.5t40.5 -1.5q58 0 100.5 27t77 93.5t60.5 182.5l234 1054q10 44 16 87.5t6 73.5q0 47 -24 65.5t-74 21.5l11 49h400l-11 -49q-38 -8 -54.5 -18t-30 -30t-27 -62.5
t-34.5 -138.5z" />
    <glyph glyph-name="K" unicode="K" horiz-adv-x="1235" 
d="M476 748h33q42 0 76.5 14t80.5 51t146.5 136t143 150.5t62 89t19.5 68.5q0 25 -20 40.5t-57 18.5l11 49h429l-11 -49q-40 -6 -90.5 -41.5t-154.5 -138.5l-388 -378l213 -512q27 -65 43.5 -95.5t35.5 -51t43 -33t58 -17.5l-11 -49h-386l11 49q54 5 54 48q0 13 -2.5 27
t-11 41t-23.5 65l-130 318q-23 57 -40 80t-36 32t-59 9h-56l-83 -378q-13 -60 -17 -94.5t-4 -61.5q0 -45 22.5 -63.5t75.5 -22.5l-11 -49h-400l11 49q38 6 57 19.5t32 37.5t24 58.5t33 133.5l170 770q10 46 16 88.5t6 72.5q0 47 -24 65.5t-74 21.5l11 49h400l-11 -49
q-38 -8 -54.5 -18t-30 -30t-27 -62.5t-34.5 -138.5z" />
    <glyph glyph-name="L" unicode="L" horiz-adv-x="1071" 
d="M53 49q38 6 57 19.5t32 37.5t24 58.5t33 133.5l170 770q10 46 16 88.5t6 72.5q0 47 -24 65.5t-74 21.5l11 49h400l-11 -49q-38 -8 -54.5 -18t-30 -30t-27 -62.5t-34.5 -138.5l-214 -975h246q67 0 105.5 13t73 47.5t67.5 93.5t67 147h97l-101 -393h-846z" />
    <glyph glyph-name="M" unicode="M" horiz-adv-x="1622" 
d="M1356 1365h315l-11 -49q-38 -8 -54.5 -18t-30 -30t-27 -62.5t-34.5 -138.5l-171 -776q-13 -59 -17 -93.5t-4 -62.5q0 -45 22.5 -63.5t75.5 -22.5l-11 -49h-400l11 49q38 6 57 19.5t32 37.5t24 58.5t33 133.5l133 603q26 119 66 255h-14q-29 -54 -57.5 -103.5
t-84.5 -142.5l-455 -751h-109l-96 750l-27 269h-20q-38 -251 -76 -425l-96 -436q-17 -76 -22 -113t-5 -69q0 -45 22.5 -63.5t75.5 -22.5l-11 -49h-350l11 49q38 6 57 19.5t32 37.5t24 58.5t33 133.5l170 770q10 43 16 82t6 79q0 47 -24 65.5t-74 21.5l11 49h357l114 -970z
" />
    <glyph glyph-name="N" unicode="N" horiz-adv-x="1374" 
d="M1428 1365l-11 -49q-38 -8 -54.5 -18t-30 -30t-27 -62.5t-34.5 -138.5l-235 -1067h-136l-292 858q-53 154 -93 307h-13q-6 -51 -33 -194.5t-57 -280.5l-88 -399q-9 -42 -15 -81t-6 -75q0 -45 22.5 -63.5t75.5 -22.5l-11 -49h-350l11 49q38 6 57 19.5t32 37.5t24 58.5
t33 133.5l170 770q10 43 16 82t6 79q0 47 -24 65.5t-74 21.5l11 49h319l264 -779q57 -168 88 -284h11q8 61 36.5 203t52.5 248l70 315q7 33 14.5 78t7.5 83q0 47 -24 65.5t-74 21.5l11 49h350z" />
    <glyph glyph-name="O" unicode="O" horiz-adv-x="1273" 
d="M837 1381q124 0 214.5 -48t139 -146t48.5 -242q0 -155 -53 -348.5t-153.5 -335t-229.5 -210t-270 -68.5q-140 0 -231.5 54t-134.5 150.5t-43 227.5q0 127 36.5 284.5t100 284.5t151 216t195.5 135t230 46zM1049 987q0 306 -223 306q-54 0 -102 -18q-56 -22 -107 -65
q-57 -49 -106 -125q-58 -90 -101 -205q-45 -120 -72 -259q-26 -133 -26 -241q0 -156 56.5 -232.5t168.5 -76.5q90 0 171 55q100 67 180 213q86 157 133 383q28 133 28 265z" />
    <glyph glyph-name="P" unicode="P" horiz-adv-x="1137" 
d="M745 1365q119 0 195.5 -18.5t126 -57t74 -97.5t24.5 -137q0 -150 -71 -260t-192.5 -162t-291.5 -52q-102 0 -170 4l-64 -294q-9 -41 -12.5 -63t-6 -47.5t-2.5 -45.5q0 -31 10 -48.5t30 -25.5t69 -12l-11 -49h-411l11 49q38 6 57 19.5t32 37.5t24 58.5t33 133.5l170 770
q22 100 22 158q0 49 -23 68t-75 22l11 49h441zM561 668q121 0 195.5 25t122 77.5t73.5 124.5t26 158q0 85 -30 134t-85 69.5t-140 20.5q-62 0 -130 -3l-136 -606h104z" />
    <glyph glyph-name="Q" unicode="Q" horiz-adv-x="1273" 
d="M675 1q23 -73 43 -120.5t38.5 -77t36.5 -44t36 -19.5t42 -5q38 0 77 22t87 76l52 -56q-80 -87 -149 -123t-142 -36q-83 0 -135.5 37t-91 118t-74.5 212q-181 10 -276 120t-95 310q0 127 36.5 284.5t100 284.5t151 216t195.5 135t230 46q124 0 214.5 -48t139 -146
t48.5 -242q0 -140 -44 -313t-121 -305.5t-178.5 -213.5t-220.5 -112zM1050 987q0 149 -55 227.5t-169 78.5q-54 0 -102 -18q-56 -22 -107 -65q-57 -49 -106 -125q-58 -90 -101 -205q-45 -120 -72 -259q-26 -133 -26 -241q0 -156 56.5 -232.5t168.5 -76.5q98 0 185.5 65
t160 193t120 312t47.5 346z" />
    <glyph glyph-name="R" unicode="R" horiz-adv-x="1209" 
d="M809 619q48 -36 77.5 -86t47.5 -139l23 -116q7 -36 15.5 -67t20 -59.5t25 -45.5t29 -28t35 -17.5t49.5 -11.5l-10 -49h-277q-32 89 -57 212l-44 212q-11 55 -26.5 92.5t-37 58t-50 27t-69.5 6.5h-114l-70 -317q-9 -39 -12.5 -62t-6 -48.5t-2.5 -45.5q0 -31 10 -48.5
t30 -25.5t69 -12l-11 -49h-411l11 49q38 6 57 19.5t32 37.5t24 58.5t33 133.5l170 770q22 100 22 158q0 49 -23 68t-75 22l11 49h445q106 0 173 -12.5t114.5 -37.5t79.5 -64.5t48 -89t16 -105.5q0 -89 -29.5 -158t-80.5 -121t-118.5 -88t-142.5 -59v-11zM583 694
q109 0 181 21.5t120 65.5t79 116t31 156q0 43 -8 76.5t-21 55.5t-33 39t-50 29.5t-69.5 18t-107.5 5.5q-53 0 -112 -4l-128 -579h118z" />
    <glyph glyph-name="S" unicode="S" horiz-adv-x="986" 
d="M159 311q0 -121 56 -180.5t175 -59.5q92 0 158 34t100 96.5t34 148.5q0 61 -21.5 107.5t-65 89t-125.5 97.5q-74 50 -123 98.5t-78 108.5t-29 134q0 118 57 208t161 139t240 49q92 0 170.5 -12.5t173.5 -42.5l-56 -257h-96q-4 85 -26 133.5t-63 69.5t-109 21
q-83 0 -146 -34t-96 -92.5t-33 -130.5q0 -52 18 -93t57.5 -80.5t115.5 -91.5q98 -68 149.5 -121.5t76 -113.5t24.5 -139q0 -121 -58.5 -215.5t-165 -146t-242.5 -51.5q-93 0 -197.5 14t-191.5 38l60 275h96z" />
    <glyph glyph-name="T" unicode="T" horiz-adv-x="1175" 
d="M712 0h-421l11 49q39 5 58 15.5t33.5 31.5t29.5 65.5t35 136.5l214 979h-127q-62 0 -99 -18t-74 -67t-90 -164h-96l75 337h1044l-78 -352h-96q0 97 -5 145.5t-19 74t-34.5 35t-72.5 9.5h-148l-217 -986q-9 -39 -12.5 -62t-6 -48.5t-2.5 -45.5q0 -31 10 -48.5t30 -25.5
t69 -12z" />
    <glyph glyph-name="U" unicode="U" horiz-adv-x="1295" 
d="M260 1316l11 49h402l-11 -49q-38 -8 -54.5 -18t-30 -30t-27 -62.5t-34.5 -138.5l-125 -560q-13 -57 -20.5 -108.5t-7.5 -106.5q0 -109 53.5 -165t161.5 -56q102 0 170 42t109 121t69 205l139 629q10 45 16 88t6 73q0 47 -24 65.5t-74 21.5l11 49h380l-11 -49
q-37 -8 -54.5 -18.5t-31 -30.5t-26.5 -63t-34 -137l-130 -599q-39 -179 -110 -285t-177.5 -153t-260.5 -47q-173 0 -265 83.5t-92 243.5q0 56 11.5 128.5t32.5 163.5l104 466q12 53 17.5 94.5t5.5 66.5q0 45 -23 64.5t-76 22.5z" />
    <glyph glyph-name="V" unicode="V" horiz-adv-x="1178" 
d="M615 1365l-11 -49q-44 -5 -68.5 -26t-34.5 -58.5t-10 -100.5q0 -20 1 -42l30 -780v-80h10l433 781q38 69 57 118.5t19 87.5q0 40 -23.5 65.5t-76.5 34.5l11 49h409l-11 -49q-27 -4 -51.5 -20.5t-55 -55t-94.5 -148.5l-640 -1108h-133l-67 1115q-4 65 -14.5 111.5
t-33 72.5t-71.5 33l11 49h414z" />
    <glyph glyph-name="W" unicode="W" horiz-adv-x="1836" 
d="M1051 -13v732q0 178 9 371h-10l-535 -1103h-157l-47 1112q-4 83 -17.5 127t-36.5 64t-65 26l11 49h417l-11 -49q-45 -3 -70.5 -26.5t-35.5 -64t-10 -114.5v-34q0 -18 1 -37l9 -391q1 -43 1 -132v-81l-1 -209h10l553 1138h151v-667q0 -119 -3 -231l-6 -240h10l405 783
q23 44 48.5 103.5t25.5 102.5q0 40 -23.5 65.5t-76.5 34.5l11 49h409l-11 -49q-46 -6 -88 -50.5t-112 -173.5l-601 -1105h-154z" />
    <glyph glyph-name="X" unicode="X" horiz-adv-x="1116" 
d="M640 1365l-11 -49q-43 -7 -68.5 -29.5t-25.5 -65.5q0 -64 33 -161l83 -242l214 271q15 19 29.5 39.5t26 40t17 33.5t8 25t2.5 21q0 27 -16 46t-55 22l11 49h373l-11 -49q-30 -9 -56.5 -29t-63 -60t-135.5 -158l-298 -356l146 -406q33 -92 53 -139q22 -50 38 -73
q13 -17 27 -27q14 -9 47 -19l-10 -49h-404l10 49q46 7 70.5 31.5t24.5 63.5q0 59 -24 131l-104 305l-228 -285q-51 -64 -74 -104.5t-23 -69.5q0 -24 6.5 -38t22 -22.5t42.5 -11.5l-11 -49h-372l10 49q20 7 35.5 15.5t34 24t50 50.5t71.5 82l390 464l-148 411q-22 61 -39 102
t-33.5 65t-34.5 36t-45 17l11 49h404z" />
    <glyph glyph-name="Y" unicode="Y" horiz-adv-x="1122" 
d="M587 1365l-11 -49q-42 -4 -64 -24.5t-22 -63.5q0 -61 28 -160l106 -377l246 329q55 73 79.5 114.5t34.5 73.5q8 24 8 46q0 28 -19 43t-55 19l11 49h375l-11 -49q-24 -5 -41.5 -14.5t-40 -30.5t-61 -67.5t-98.5 -124.5l-389 -505l-62 -283q-9 -40 -12.5 -62.5t-6 -48
t-2.5 -45.5q0 -31 10 -48.5t30 -25.5t69 -12l-11 -49h-421l11 49q40 6 59 16t33.5 31t29 66t34.5 136l59 276l-145 505q-33 116 -52 157t-40.5 58t-56.5 22l11 49h387z" />
    <glyph glyph-name="Z" unicode="Z" horiz-adv-x="1049" 
d="M237 92h320q44 0 72 6t50 18t41 30t38.5 43t43 67t51.5 106h96l-77 -362h-887l10 49l908 1224h-307q-42 0 -67 -4.5t-44 -14t-34 -22t-35.5 -37t-45 -63.5t-56.5 -105h-96l74 338h866l-11 -48z" />
    <glyph glyph-name="bracketleft" unicode="[" horiz-adv-x="694" 
d="M452 -430h-423l409 1861h423l-18 -82h-253l-374 -1699h253z" />
    <glyph glyph-name="backslash" unicode="\" horiz-adv-x="954" 
d="M418 1431l269 -1861h-146l-269 1861h146z" />
    <glyph glyph-name="bracketright" unicode="]" horiz-adv-x="694" 
d="M267 -430h-423l18 81h252l373 1698h-253l18 82h424z" />
    <glyph glyph-name="asciicircum" unicode="^" horiz-adv-x="1082" 
d="M835 675l-123 569l-367 -569h-154l473 706h144l169 -706h-142z" />
    <glyph glyph-name="underscore" unicode="_" horiz-adv-x="759" 
d="M-145 -241v116h759v-116h-759z" />
    <glyph glyph-name="grave" unicode="`" horiz-adv-x="554" 
d="M433 1442l133 -328l-71 -44l-235 322l11 50h162z" />
    <glyph glyph-name="a" unicode="a" horiz-adv-x="1077" 
d="M834 907l92 66l64 -16l-153 -679q-14 -60 -19 -92.5t-5 -53.5q0 -41 23 -59.5t88 -23.5l-9 -49h-286l63 251l-13 4q-96 -140 -182 -205t-182 -65q-110 0 -170.5 83t-60.5 233q0 96 22 192.5t66.5 183t106.5 152.5t143.5 105t177.5 39q62 0 118 -14.5t116 -51.5zM746 609
q9 41 12 71t3 65q0 78 -33 113.5t-110 35.5q-42 0 -80 -13.5t-77 -45t-74.5 -82.5t-64.5 -124t-45 -156.5t-16 -162.5q0 -104 28.5 -155.5t95.5 -51.5q31 0 64.5 14t74.5 51.5t93 110.5q47 67 74.5 132.5t45.5 154.5z" />
    <glyph glyph-name="b" unicode="b" horiz-adv-x="1067" 
d="M233 49l-92 -65l-64 16l259 1143q6 25 14.5 72t8.5 76q0 42 -25.5 59t-91.5 19l12 52l253 9h58l-176 -700l13 -4q97 130 182 188t170 58q109 0 169.5 -83t60.5 -234q0 -108 -29.5 -217t-82 -197t-117 -144.5t-136 -84.5t-150.5 -28q-133 0 -236 65zM321 348
q-10 -45 -12.5 -76.5t-2.5 -59.5q0 -79 34.5 -114t114.5 -35q52 0 95 20t81.5 58.5t70 93.5t55.5 125.5t36.5 146t12.5 140.5q0 104 -29.5 156t-94.5 52q-48 0 -94.5 -30.5t-103.5 -101t-93 -144.5t-61 -189z" />
    <glyph glyph-name="c" unicode="c" horiz-adv-x="887" 
d="M735 716q-2 76 -12.5 110t-34 51t-66.5 17q-101 0 -181.5 -80.5t-131.5 -228t-51 -283.5q0 -42 7.5 -79t26 -64t49 -42.5t77.5 -15.5q91 0 157.5 34.5t140.5 108.5l61 -61q-94 -104 -189.5 -152t-205.5 -48q-145 0 -220 86t-75 250q0 107 40 235t117 225t180 145t220 48
q80 0 139.5 -9t105.5 -21l-49 -226h-105z" />
    <glyph glyph-name="d" unicode="d" horiz-adv-x="1073" 
d="M870 1148q8 33 14 73t6 70t-11 45.5t-31.5 22.5t-73.5 10l12 52l251 9h59l-259 -1152q-14 -63 -19 -94t-5 -52q0 -41 23 -59.5t88 -23.5l-9 -49h-286l63 251l-13 4q-96 -140 -182 -205t-182 -65q-110 0 -170.5 83t-60.5 233q0 96 22 192.5t66.5 183t106.5 152.5
t143.5 105t177.5 39q61 0 112.5 -12.5t105.5 -43.5zM746 609q15 72 15 136q0 78 -33 113.5t-110 35.5q-42 0 -80 -13.5t-77 -45t-74.5 -82.5t-64.5 -124t-45 -156.5t-16 -162.5q0 -104 28.5 -155.5t95.5 -51.5q31 0 64.5 14t74.5 51.5t93 110.5q47 67 74.5 132.5t45.5 154.5
z" />
    <glyph glyph-name="e" unicode="e" horiz-adv-x="936" 
d="M814 199q-74 -81 -142 -128t-136 -67t-150 -20q-79 0 -136 25.5t-94.5 70t-55.5 106t-18 133.5q0 107 38.5 229.5t116.5 220t187 151t232 53.5q121 0 181.5 -49t60.5 -153q0 -170 -159.5 -255t-473.5 -85q-12 -60 -12 -130q0 -105 41 -152.5t134 -47.5q92 0 167 40
t157 123zM282 516q92 1 161.5 10.5t119.5 26t83 39.5t52.5 50.5t27 58t7.5 63.5q0 61 -28.5 95.5t-84.5 34.5q-70 0 -137.5 -50.5t-119 -136t-81.5 -191.5z" />
    <glyph glyph-name="f" unicode="f" horiz-adv-x="599" 
d="M254 -17q-34 -160 -93.5 -254t-144.5 -135t-206 -41q-44 0 -79 10l23 88q24 -8 70 -8q53 0 86.5 14t62 45.5t54 92t48.5 159.5l203 901h-121l12 51q49 5 69 13.5t32.5 23t22.5 41t29 91.5q53 180 163.5 270.5t281.5 90.5q98 0 169 -16l-39 -170h-88q-14 57 -36.5 82
t-66.5 25q-57 0 -97 -31t-68.5 -93.5t-52.5 -167.5l-25 -109h229l-22 -101h-230z" />
    <glyph glyph-name="g" unicode="g" horiz-adv-x="1070" 
d="M102 -86q-19 -23 -32 -45.5t-18.5 -43.5t-5.5 -50q0 -75 54 -109.5t163 -34.5q99 0 165 35t112 107.5t80.5 179t70.5 284.5l-14 3q-97 -133 -180 -194t-179 -61q-109 0 -169.5 82t-60.5 234q0 111 29 219t81 195t117.5 144.5t138.5 85.5t152 28q63 0 119 -15t113 -51
l92 66l64 -16l-104 -469q-11 -50 -23 -113l-26 -131q-47 -236 -75 -325q-34 -103 -80 -172q-43 -63 -102 -105.5t-136.5 -65.5t-182.5 -23q-378 0 -378 220q0 56 34 102t109 97zM389 103q51 0 101.5 35t108 111t89.5 145t54.5 172t22.5 179q0 78 -33 113.5t-110 35.5
q-42 0 -80 -13.5t-77 -45t-74.5 -82.5t-64.5 -124t-45 -156.5t-16 -162.5q0 -104 30 -155.5t94 -51.5z" />
    <glyph glyph-name="h" unicode="h" horiz-adv-x="1086" 
d="M933 0h-314l126 508q14 55 24.5 111.5t10.5 102.5q0 72 -24 102.5t-81 30.5q-41 0 -90.5 -34t-104.5 -103.5t-87.5 -133t-51.5 -151.5l-91 -433h-173l257 1143q11 50 15.5 72.5t6.5 41.5t2 34q0 42 -25.5 59t-91.5 19l12 52l253 9h58l-172 -693l12 -4q94 125 179 182
t173 57q97 0 147 -53.5t50 -158.5q0 -64 -20 -154l-84 -356q-10 -43 -14 -69t-4 -45q0 -31 10.5 -48t32 -25.5t68.5 -13.5z" />
    <glyph glyph-name="i" unicode="i" horiz-adv-x="555" 
d="M560 1348l-46 -194h-177l46 194h177zM313 250q-11 -51 -14 -74.5t-3 -39.5q0 -30 10 -47t31 -26t69 -14l-9 -49h-310l151 674q13 58 18 92.5t5 57.5q0 29 -8.5 45t-28.5 24t-69 10l11 53l244 9h59z" />
    <glyph glyph-name="j" unicode="j" horiz-adv-x="545" 
d="M563 1348l-46 -194h-177l46 194h177zM262 -17q-32 -152 -87 -244.5t-143 -139t-210 -46.5q-50 0 -85 10l23 88q16 -5 35.5 -6.5t40.5 -1.5q48 0 81.5 14.5t62.5 48t53.5 93.5t45.5 155l162 720q13 56 18 91t5 59q0 29 -8.5 45t-28.5 24t-69 10l11 53l244 9h57z" />
    <glyph glyph-name="k" unicode="k" horiz-adv-x="1018" 
d="M368 557h32q31 0 67 12t77 37.5t110 80.5q52 42 77 71.5t34 51.5t9 42q0 49 -68 55l11 49h324l19 -49q-83 -75 -176 -147l-253 -197l150 -379q20 -51 41 -78.5t48.5 -40.5t70.5 -16l-11 -49h-267l-146 411q-14 39 -24 53t-23 20t-42 6h-74l-104 -490h-173l257 1143
q11 50 15.5 72.5t6.5 41.5t2 34q0 42 -25.5 59t-91.5 19l12 52l253 9h58z" />
    <glyph glyph-name="l" unicode="l" horiz-adv-x="546" 
d="M505 1430h59l-260 -1180q-11 -48 -14 -72.5t-3 -41.5q0 -30 10 -47t31 -26t69 -14l-8 -49h-312l258 1148q10 44 14 66t6 42t2 35q0 30 -11 45.5t-31.5 22.5t-73.5 10l12 52z" />
    <glyph glyph-name="m" unicode="m" horiz-adv-x="1636" 
d="M959 760v-14q0 -7 -1 -15q87 123 173 182t178 59q95 0 144.5 -53.5t49.5 -158.5q0 -64 -20 -154l-84 -356q-17 -72 -17 -114q0 -30 10 -47t31 -26t69 -14l-9 -49h-314l126 508q14 55 24.5 111.5t10.5 102.5q0 72 -25 102.5t-79 30.5q-39 0 -87.5 -32t-101.5 -98
t-86.5 -130.5t-53.5 -157.5l-91 -437h-173l115 508q21 93 28.5 137.5t7.5 76.5q0 72 -25.5 102.5t-79.5 30.5q-40 0 -88.5 -32.5t-102.5 -100.5t-86.5 -133.5t-50.5 -155.5l-91 -433h-173l152 683q5 23 13.5 68t8.5 75q0 28 -8.5 43.5t-29 23t-69.5 10.5l12 53l228 9h56
l-66 -259l12 -4q92 137 183 203.5t184 66.5q96 0 146 -54.5t50 -157.5z" />
    <glyph glyph-name="n" unicode="n" horiz-adv-x="1096" 
d="M943 0h-315l127 508q12 49 23.5 108t11.5 106q0 71 -24.5 102t-76.5 31q-42 0 -90.5 -32.5t-101.5 -97t-89.5 -131t-56.5 -161.5l-91 -433h-173l152 683q5 23 13.5 68t8.5 75q0 28 -8.5 43.5t-29 23t-69.5 10.5l12 53l227 9h57l-67 -260l12 -4q98 138 189 204.5t182 66.5
q97 0 147 -53.5t50 -158.5q0 -36 -6.5 -78.5t-14.5 -75.5l-84 -356q-17 -72 -17 -114q0 -30 10 -47t31 -26t69 -14z" />
    <glyph glyph-name="o" unicode="o" horiz-adv-x="1038" 
d="M409 -17q-155 0 -240.5 87t-85.5 250q0 60 15 141q19 105 54 186q45 101 115.5 174.5t162 112t196.5 38.5q115 0 188.5 -44t106.5 -119.5t33 -174.5q0 -89 -25 -190q-36 -148 -105 -251t-173 -156.5t-242 -53.5zM258 277q0 -110 45.5 -162.5t137.5 -52.5q98 0 174 88
t120 246.5t44 278.5q0 108 -42 162.5t-131 54.5q-104 0 -181.5 -87t-122 -249t-44.5 -279z" />
    <glyph glyph-name="p" unicode="p" horiz-adv-x="1079" 
d="M214 -177q-10 -48 -12.5 -74t-2.5 -43q0 -30 10 -47t31 -26t69 -14l-8 -49h-309l253 1112q19 84 19 144q0 28 -8.5 43.5t-29 23t-69.5 10.5l12 53l227 9h57l-67 -260l12 -4q185 271 368 271q109 0 169.5 -83t60.5 -234q0 -108 -29.5 -217t-82 -197t-117 -144.5
t-136 -84.5t-150.5 -28q-133 0 -221 58zM334 348q-10 -53 -12.5 -81t-2.5 -55q0 -78 33.5 -113.5t115.5 -35.5q51 0 94 20t81.5 58t69.5 92t55.5 125.5t37 147t12.5 141.5q0 105 -29.5 156.5t-93.5 51.5q-51 0 -100.5 -34.5t-108.5 -110.5t-92 -150t-52 -170z" />
    <glyph glyph-name="q" unicode="q" horiz-adv-x="1068" 
d="M666 232q-90 -127 -175.5 -187t-174.5 -60q-110 0 -170.5 83t-60.5 233q0 96 22 192.5t66.5 183t106.5 152.5t143.5 105t177.5 39q62 0 118 -14.5t116 -51.5l92 66l64 -16l-256 -1137q-17 -76 -17 -114q0 -31 10 -47.5t31.5 -25.5t69.5 -14l-9 -49h-312l172 656zM747 609
q9 44 12 75.5t3 60.5q0 78 -33 113.5t-110 35.5q-42 0 -80 -13.5t-77 -45t-74.5 -82.5t-64.5 -124t-45 -156.5t-16 -162.5q0 -104 28.5 -155.5t95.5 -51.5q31 0 64.5 14t74.5 51.5t93 110.5q47 67 74.5 132.5t45.5 154.5z" />
    <glyph glyph-name="r" unicode="r" horiz-adv-x="834" 
d="M398 965h60l-70 -246l12 -4q95 131 185.5 194t186.5 63q73 0 122 -11l-48 -224h-103q-8 52 -25 79t-53 27q-39 0 -90 -40t-104 -110t-79.5 -129t-40.5 -131l-91 -433h-173l152 683q21 94 21 143q0 28 -9 43.5t-29 23t-68 10.5l11 53z" />
    <glyph glyph-name="s" unicode="s" horiz-adv-x="782" 
d="M660 723q-11 90 -51.5 130.5t-125.5 40.5q-47 0 -85 -17.5t-60 -51t-22 -78.5q0 -37 15 -67.5t50.5 -63.5t99.5 -76q97 -65 136 -126t39 -141q0 -94 -45 -159.5t-123 -97.5t-176 -32q-88 0 -164.5 13t-148.5 33l47 216h78q7 -92 52.5 -137.5t132.5 -45.5q89 0 139 44.5
t50 117.5q0 43 -15 77t-47 65t-91 71q-63 43 -102 81t-60.5 83.5t-21.5 100.5q0 83 41 144t116.5 93t176.5 32q165 0 291 -43l-46 -206h-80z" />
    <glyph glyph-name="t" unicode="t" horiz-adv-x="707" 
d="M675 184q-82 -99 -162 -149.5t-170 -50.5q-106 0 -158 54t-52 157q0 63 18 141l124 519h-149l11 51q59 7 93.5 25.5t58 49t43.5 79.5t50 143h138l-55 -247h317l-22 -101h-318l-96 -388q-40 -162 -40 -242q0 -61 26.5 -92.5t77.5 -31.5q46 0 96.5 35.5t110.5 107.5z" />
    <glyph glyph-name="u" unicode="u" horiz-adv-x="1096" 
d="M153 956h315l-127 -509q-14 -56 -24.5 -111.5t-10.5 -101.5q0 -71 24.5 -102t76.5 -31q43 0 93 33.5t106 104t88.5 133.5t50.5 150l91 434h173l-152 -683q-6 -27 -14 -71t-8 -72q0 -42 23.5 -59.5t87.5 -21.5l-11 -49h-286l64 251l-13 4q-97 -138 -187.5 -204.5
t-182.5 -66.5q-97 0 -147 53.5t-50 158.5q0 30 5.5 70.5t15.5 84.5l84 355q10 44 13.5 70t3.5 44q0 45 -24 63t-86 23z" />
    <glyph glyph-name="v" unicode="v" horiz-adv-x="942" 
d="M934 956l27 -50q-37 -89 -56.5 -132t-53 -107.5t-75 -135.5t-94.5 -152t-120.5 -178t-158.5 -217h-125l-93 755q-9 73 -19.5 104.5t-30.5 46t-63 17.5l11 49h257l76 -795q172 237 255 399t83 263q0 47 -20 64t-68 20l10 49h258z" />
    <glyph glyph-name="w" unicode="w" horiz-adv-x="1490" 
d="M979 166q156 222 237.5 387.5t81.5 269.5q0 47 -20 64t-68 20l10 49h258l27 -50q-35 -89 -56 -137t-55 -115.5t-72 -134.5t-89.5 -147.5t-115.5 -175t-151 -212.5h-119l-41 418q-5 49 -10.5 128t-7.5 122l-11 1q-54 -133 -147 -296t-230 -373h-134l-76 753q-6 58 -15 94
t-30 54t-69 22l11 49h262l60 -789q141 230 203.5 350t92.5 207.5t46 182.5l11 49h144z" />
    <glyph glyph-name="x" unicode="x" horiz-adv-x="920" 
d="M946 907q-194 -207 -406 -409l93 -219q37 -88 59 -129.5t40 -60t36 -27t57 -13.5l-11 -49h-249l-139 402q-24 -21 -63.5 -58.5t-76.5 -80t-52 -68.5t-19.5 -45t-4.5 -39q0 -26 14.5 -41t49.5 -21l-11 -49h-285l-19 49q219 235 431 433l-95 223q-29 68 -47 103.5t-34.5 55
t-38 30t-61.5 13.5l11 49h249l133 -377q49 45 93 93t62 76t25 50t7 46q0 55 -64 63l11 49h285z" />
    <glyph glyph-name="y" unicode="y" horiz-adv-x="942" 
d="M185 738q-10 76 -19 105.5t-29 45t-65 18.5l11 49h257l76 -795q338 462 338 662q0 47 -20 64t-68 20l10 49h258l27 -50q-53 -139 -135.5 -288t-202 -326t-265.5 -368q-112 -147 -188 -222q-59 -57 -108.5 -86.5t-96 -42t-98.5 -12.5q-27 0 -61 5.5t-58 14.5l43 187h78
q1 -34 16 -54t44 -20q32 0 55 6.5t48.5 21.5t62 48t82.5 87.5t103 131.5z" />
    <glyph glyph-name="z" unicode="z" horiz-adv-x="921" 
d="M797 281l-61 -281h-724l-19 49l547 630q116 133 170 189l-6 7h-234q-52 0 -76 -7t-48 -24.5t-51.5 -52t-61.5 -98.5h-89l59 263h711l19 -50l-718 -818l6 -7h226q60 0 92 6.5t56 24.5t49.5 54.5t63.5 114.5h89z" />
    <glyph glyph-name="braceleft" unicode="{" horiz-adv-x="768" 
d="M495 -432q-167 0 -246.5 63t-79.5 194q0 59 18 144l59 273q12 56 12 95q0 71 -37.5 102t-126.5 31l17 82q105 0 167 61t92 193l61 277q19 84 46 142t66 97t90 62.5t117 34.5t149 11h31l-18 -81q-104 0 -159 -25t-90.5 -86t-61.5 -180l-45 -204q-21 -93 -51 -156t-82 -109
t-135 -77l-4 -18q64 -32 96 -85t32 -137q0 -67 -21 -164l-45 -206q-14 -64 -14 -108q0 -59 24 -90t68 -43t122 -12l-17 -81h-34z" />
    <glyph glyph-name="bar" unicode="|" horiz-adv-x="646" 
d="M200 -430h-154l410 1861h154z" />
    <glyph glyph-name="braceright" unicode="}" horiz-adv-x="768" 
d="M283 1431q27 0 68 -3q31 -3 62.5 -9.5t64 -20t57 -34.5t40.5 -47.5t25 -62.5t9 -80q0 -59 -18 -144l-59 -273q-12 -56 -12 -95q0 -71 37 -102.5t127 -31.5l-17 -82q-107 0 -168.5 -63t-89.5 -191l-61 -277q-30 -137 -87 -210t-148 -105t-233 -32h-32l18 81
q110 0 164.5 28t88 89t58.5 174l45 204q21 95 51 157.5t82 108t135 76.5l4 18q-63 31 -95.5 84.5t-32.5 137.5q0 67 21 164l45 206q14 64 14 108q0 57 -23 88.5t-67 44t-124 12.5l17 81z" />
    <glyph glyph-name="asciitilde" unicode="~" horiz-adv-x="1082" 
d="M74 512q41 53 74.5 93t62 66.5t53.5 43.5t47.5 26.5t43.5 14t44 4.5q36 0 66 -10.5t59 -32t74 -68.5q37 -40 60.5 -60t47 -30.5t52.5 -10.5q33 0 59.5 13t58.5 45.5t97 118.5l85 -67q-84 -109 -132 -155t-94 -69.5t-97 -23.5q-39 0 -71 11t-60.5 33t-70.5 67
q-43 47 -66.5 66t-45 27t-47.5 8q-33 0 -62.5 -16t-60.5 -48t-93 -114z" />
    <glyph glyph-name="exclamdown" unicode="&#xa1;" horiz-adv-x="574" 
d="M244 724l51 232h190l-51 -232h-190zM-17 -409l270 949h99l-164 -949h-205z" />
    <glyph glyph-name="cent" unicode="&#xa2;" horiz-adv-x="896" 
d="M320 -156l40 184q-126 11 -190.5 97t-64.5 238q0 98 34.5 216.5t98.5 211t149 147t188 71.5l42 190h103l-40 -183q122 -2 227 -30l-43 -199h-105q-6 78 -29 112t-67 40l-174 -795q61 7 118 41.5t127 102.5l61 -61q-81 -89 -161.5 -137t-169.5 -59l-41 -187h-103zM386 146
l171 781q-81 -29 -143.5 -114t-103 -216.5t-40.5 -250.5q0 -173 116 -200zM624 956z" />
    <glyph glyph-name="sterling" unicode="&#xa3;" horiz-adv-x="1025" 
d="M943 356l-124 -356h-826l10 49q68 60 115.5 118.5t86 134t58.5 168.5l41 189h-157l25 116h157l48 220q23 104 67.5 175t112 118t142 70t174.5 23q57 0 126 -8t134 -22l-46 -213h-96q-9 81 -50 119.5t-116 38.5q-72 0 -127.5 -39t-91.5 -110.5t-67 -215.5l-34 -156h391
l-25 -116h-391l-14 -63q-12 -53 -18 -75q-13 -50 -30 -92t-39.5 -78t-62 -86t-84.5 -95l-2 -10h391q39 0 65 4.5t42 14t36.5 34t38.5 57.5t38 86h102z" />
    <glyph glyph-name="currency" unicode="&#xa4;" horiz-adv-x="1134" 
d="M910 462l123 -127l-94 -95l-127 127q-89 -70 -211 -70q-124 0 -214 70l-126 -127l-94 95l123 127q-70 97 -70 213q0 57 17.5 110t52.5 105l-123 123l94 94l126 -123q96 69 214 69q115 0 211 -69l127 126l94 -97l-123 -123q35 -52 52.5 -105t17.5 -110q0 -116 -70 -213z
M837 675q0 68 -30 123.5t-84 86.5t-122 31t-122.5 -31.5t-85 -86.5t-30.5 -123q0 -69 29.5 -124t84 -87t124.5 -32q67 0 121 31.5t84.5 87t30.5 124.5z" />
    <glyph glyph-name="yen" unicode="&#xa5;" horiz-adv-x="1227" 
d="M628 1365l-11 -49q-42 -4 -64 -24.5t-22 -63.5q0 -61 28 -160l108 -382l250 334q55 73 79.5 114.5t34.5 73.5q8 24 8 46q0 28 -19 43t-55 19l11 49h370l-11 -49q-24 -5 -41.5 -14.5t-40 -30.5t-61 -67.5t-98.5 -124.5l-222 -288h273l-21 -96h-326l-93 -121l-18 -79h394
l-21 -96h-394l-30 -140q-4 -18 -7.5 -41.5t-5 -44t-1.5 -38.5q0 -31 10 -48.5t30 -25.5t69 -12l-11 -49h-417l11 49q47 5 71 23.5t42.5 64t42.5 161.5l21 101h-394l21 96h394l17 79l-35 121h-333l21 96h284l-82 288q-33 116 -51.5 157t-40.5 58t-57 22l9 49h384z" />
    <glyph glyph-name="brokenbar" unicode="&#xa6;" horiz-adv-x="646" 
d="M283 646l173 785h154l-173 -785h-154zM200 -430h-154l173 783h154z" />
    <glyph glyph-name="section" unicode="&#xa7;" horiz-adv-x="973" 
d="M97 -31q3 -100 52 -149t154 -49q102 0 160 55.5t58 147.5q0 50 -18 89t-57.5 80.5t-122.5 105.5q-77 59 -122 108t-67 100t-22 113q0 104 72 190t223 164q-39 49 -58 97t-19 99q0 93 45 164.5t133 111.5t207 40q170 0 316 -65l-47 -218h-94q-3 97 -45 147.5t-137 50.5
q-70 0 -120 -27.5t-74 -71.5t-24 -95q0 -43 17.5 -78.5t57.5 -76.5t124 -106q84 -66 127.5 -113.5t64.5 -97t21 -111.5q0 -102 -73.5 -190.5t-221.5 -162.5q40 -46 60 -94.5t20 -116.5q0 -101 -50.5 -174.5t-140.5 -111.5t-204 -38q-90 0 -177 17.5t-159 47.5l47 218h94z
M464 865q-189 -102 -189 -260q0 -60 39 -112.5t134 -127.5q76 -60 102 -85q92 53 140.5 115.5t48.5 141.5q0 61 -42.5 118t-138.5 131q-53 41 -94 79z" />
    <glyph glyph-name="dieresis" unicode="&#xa8;" horiz-adv-x="554" 
d="M705 1339l-38 -176h-165l38 176h165zM383 1339l-38 -176h-165l38 176h165z" />
    <glyph glyph-name="copyright" unicode="&#xa9;" horiz-adv-x="1742" 
d="M1656 622q0 -161 -56 -300.5t-160.5 -243.5t-245 -160t-299.5 -56q-157 0 -295.5 54t-244 156.5t-163.5 244.5t-58 305t58 305t164 244.5t244 156.5t295 54q159 0 299.5 -56t245 -160t160.5 -243.5t56 -300.5zM1531 622q0 188 -79.5 339.5t-226 236.5t-331.5 85
q-184 0 -330.5 -85t-225.5 -236.5t-79 -339.5q0 -191 80.5 -342.5t226 -235.5t328.5 -84q184 0 330 84.5t226.5 236.5t80.5 341zM1193 1021v-188h-85q-23 65 -49.5 101t-61.5 51.5t-96 15.5q-69 0 -120.5 -41t-80 -123.5t-28.5 -199.5q0 -80 12.5 -150.5t40.5 -124t72.5 -84
t109.5 -30.5q80 0 126 40.5t76 136.5h85v-194q-76 -33 -146.5 -45.5t-163.5 -12.5q-189 0 -286 112.5t-97 332.5q0 137 49 240.5t144 160.5t226 57q84 0 148 -13t125 -42z" />
    <glyph glyph-name="ordfeminine" unicode="&#xaa;" horiz-adv-x="811" 
d="M615 825l-11 2q-44 -52 -108 -83t-125 -31q-81 0 -126.5 40t-45.5 107q0 106 116.5 165t336.5 62l8 41q8 41 8 79q0 108 -107 108q-52 0 -91 -27.5t-58 -85.5h-109l20 96q68 33 99.5 45.5t64 21t62.5 12.5t63 4q90 0 139.5 -41.5t49.5 -113.5q0 -44 -12 -113l-38 -184
q-11 -52 -14 -72t-3 -34q0 -34 15 -45.5t49 -12.5l-9 -41h-202zM638 1023q-148 0 -225.5 -38.5t-77.5 -111.5q0 -35 24 -56t63 -21q53 0 98 26.5t71 65t35 78.5zM726 490h-600l19 92h600z" />
    <glyph glyph-name="guillemotleft" unicode="&#xab;" horiz-adv-x="960" 
d="M414 98l-70 -35l-246 402l16 74l415 383l55 -55l-318 -384zM783 98l-70 -35l-246 402l16 74l415 383l55 -55l-318 -384z" />
    <glyph glyph-name="logicalnot" unicode="&#xac;" horiz-adv-x="1082" 
d="M747 294l97 433h-676l29 135h824l-125 -568h-149z" />
    <glyph glyph-name="registered" unicode="&#xae;" horiz-adv-x="1742" 
d="M1656 622q0 -161 -56 -300.5t-160.5 -243.5t-245 -160t-299.5 -56q-157 0 -295.5 54t-244 156.5t-163.5 244.5t-58 305t58 305t164 244.5t244 156.5t295 54q159 0 299.5 -56t245 -160t160.5 -243.5t56 -300.5zM1531 622q0 188 -79.5 339.5t-226 236.5t-331.5 85
q-184 0 -330.5 -85t-225.5 -236.5t-79 -339.5q0 -191 80.5 -342.5t226 -235.5t328.5 -84q184 0 330 84.5t226.5 236.5t80.5 341zM850 187h-336v44q38 11 55.5 28t25 45t7.5 75v494q0 44 -7 72t-23 45t-58 30v44h407q110 0 179.5 -25t106 -75t36.5 -135q0 -80 -50.5 -136.5
t-164.5 -94.5l1 -11q42 -20 70.5 -51.5t55.5 -87.5l49 -103q15 -32 29.5 -53t28 -33.5t27 -17.5t37.5 -10v-44h-214q-41 70 -71 142l-47 110q-19 45 -37.5 70.5t-38.5 38t-43.5 15.5t-52.5 3h-72v-160q0 -59 7 -93t26 -52.5t67 -29.5v-44zM750 984v-343h104
q119 0 174.5 44.5t55.5 132.5q0 64 -26.5 101t-73.5 52.5t-115 15.5h-30q-38 0 -89 -3z" />
    <glyph glyph-name="macron" unicode="&#xaf;" horiz-adv-x="554" 
d="M682 1188h-501l26 125h501z" />
    <glyph glyph-name="macron" unicode="&#x2c9;" horiz-adv-x="554" 
d="M682 1188h-501l26 125h501z" />
    <glyph glyph-name="degree" unicode="&#xb0;" horiz-adv-x="769" 
d="M511 783q-87 0 -153.5 39t-102.5 107.5t-36 154.5q0 85 38.5 153.5t107.5 106t156 37.5q86 0 153.5 -38t105 -106t37.5 -154q0 -85 -39.5 -153.5t-109.5 -107.5t-157 -39zM517 1282q-56 0 -100 -25.5t-68 -70.5t-24 -103t23.5 -103.5t68 -71t100.5 -25.5q57 0 101.5 25.5
t68.5 71t24 103.5t-24 103t-68.5 70.5t-101.5 25.5z" />
    <glyph glyph-name="plusminus" unicode="&#xb1;" horiz-adv-x="1082" 
d="M652 648l-75 -341h-150l75 341h-341l30 135h340l81 369h150l-81 -369h344l-30 -135h-343zM33 28l30 135h818l-30 -135h-818z" />
    <glyph glyph-name="uni00B2" unicode="&#xb2;" horiz-adv-x="808" 
d="M579 942q36 0 54 7.5t32.5 24.5t31.5 53h77l-51 -198h-561l10 46q83 135 279 296l90 75q64 54 96 88t49 62t24 54t7 55q0 46 -32.5 72.5t-92.5 26.5q-61 0 -103 -31t-68 -86h-103l30 136q158 55 285 55q60 0 103.5 -14.5t71.5 -38t41 -52.5t13 -58q0 -61 -22 -106
t-81 -101.5t-197 -163.5q-149 -118 -223 -202h240z" />
    <glyph glyph-name="uni00B3" unicode="&#xb3;" horiz-adv-x="808" 
d="M334 1486l27 136q74 27 142 41t139 14q62 0 113 -18t82.5 -57t31.5 -98q0 -48 -22.5 -91t-74 -79t-129.5 -66v-10q78 -21 118 -68t40 -112q0 -54 -22.5 -103.5t-68 -85.5t-111.5 -54.5t-149 -18.5q-64 0 -139.5 12.5t-126.5 30.5l32 147h90q6 -59 42.5 -89t110.5 -30
q98 0 150.5 53.5t52.5 152.5q0 59 -46.5 90.5t-138.5 31.5h-81l15 74q78 4 134.5 20t92.5 39.5t55.5 50.5t26.5 52t7 54q0 47 -30.5 73.5t-88.5 26.5q-64 0 -106 -29.5t-70 -89.5h-98z" />
    <glyph glyph-name="acute" unicode="&#xb4;" horiz-adv-x="554" 
d="M714 1442l-11 -50l-374 -322l-62 60l263 312h184z" />
    <glyph glyph-name="mu" unicode="&#xb5;" horiz-adv-x="1128" 
d="M699 256q-60 -88 -112.5 -144.5t-107 -87.5t-115.5 -31q-42 0 -76.5 13.5t-71.5 51.5q-13 -68 -20 -155.5t-7 -156.5q0 -28 1 -51l-10 -55l-79 -41h-112l301 1357h168l-123 -545q-15 -66 -23.5 -114.5t-8.5 -88.5q0 -52 27.5 -79t78.5 -27q21 0 44.5 8.5t54.5 30.5
t66.5 61t69 90.5t57 104.5t32.5 94l99 465h173l-142 -633q-5 -23 -14 -70t-9 -78q0 -40 13 -58t41 -18q23 0 55.5 18t72.5 63l56 -56q-56 -55 -99.5 -85t-79.5 -42.5t-78 -12.5q-65 0 -101 38.5t-36 107.5q0 27 7 59.5t19 60.5z" />
    <glyph glyph-name="paragraph" unicode="&#xb6;" horiz-adv-x="1166" 
d="M1076 1261l-371 -1691h-125l371 1691h-184l-371 -1691h-125l246 1117q-105 12 -179 55.5t-110.5 111.5t-36.5 153q0 89 30 156t89 113t138 67.5t204 21.5h634l-23 -104h-187z" />
    <glyph glyph-name="periodcentered" unicode="&#xb7;" horiz-adv-x="494" 
d="M423 801l-54 -244h-210l54 244h210z" />
    <glyph glyph-name="cedilla" unicode="&#xb8;" horiz-adv-x="554" 
d="M401 27l-170 -114q4 -14 4 -49q0 -125 -94.5 -202.5t-267.5 -91.5v76q96 8 148.5 58t54.5 145l7 34l291 183z" />
    <glyph glyph-name="uni00B9" unicode="&#xb9;" horiz-adv-x="808" 
d="M613 1020q-9 -42 -9 -66q0 -23 14 -35t49.5 -18.5t107.5 -7.5l-14 -64h-508l13 64q64 2 99 7.5t55 16t32.5 28t20.5 55.5l99 449q3 13 4.5 22.5t1.5 13.5q0 15 -8 20t-22 5q-19 0 -59 -17t-110 -53l-32 70l354 161h57q-21 -80 -42 -175z" />
    <glyph glyph-name="ordmasculine" unicode="&#xba;" horiz-adv-x="832" 
d="M468 713q-111 0 -173.5 59.5t-62.5 168.5q0 65 22.5 150t72.5 151.5t124 102.5t164 36q116 0 176.5 -59.5t60.5 -168.5q0 -43 -8 -86t-24 -94t-46 -100t-74 -85.5t-102 -55.5t-130 -19zM370 920q0 -72 30.5 -104.5t92.5 -32.5q28 0 51.5 9t48.5 31t46 57t37.5 85
t27 107.5t10.5 99.5q0 69 -27.5 104t-88.5 35q-73 0 -122.5 -55.5t-77.5 -161t-28 -174.5zM715 490h-589l19 92h589z" />
    <glyph glyph-name="guillemotright" unicode="&#xbb;" horiz-adv-x="960" 
d="M552 882l70 35l246 -402l-16 -74l-415 -383l-55 55l318 384zM183 882l70 35l246 -402l-16 -74l-415 -383l-55 55l318 384z" />
    <glyph glyph-name="onequarter" unicode="&#xbc;" horiz-adv-x="1757" 
d="M548 724q-9 -42 -9 -66q0 -23 14 -35t49.5 -18.5t107.5 -7.5l-14 -64h-508l13 64q64 2 99 7.5t55 16t32.5 28t20.5 55.5l99 449q3 13 4.5 22.5t1.5 13.5q0 15 -8 20t-22 5q-19 0 -59 -17t-110 -53l-32 70l354 161h57q-21 -80 -42 -175zM1570 1365l-1140 -1461h-151
l1143 1461h148zM1204 -51q34 3 50.5 15.5t27 39.5t21.5 81l14 63h-371l13 67l497 528h122l-116 -519h18q32 0 50 5t31 19t25 46h75l-42 -146h-173l-15 -72q-6 -27 -8.5 -45t-2.5 -35q0 -23 17.5 -33.5t54.5 -13.5l-9 -45h-289zM1091 231v-7h243l32 147q23 108 53 212h-10z
" />
    <glyph glyph-name="onehalf" unicode="&#xbd;" horiz-adv-x="1806" 
d="M548 724q-9 -42 -9 -66q0 -23 14 -35t49.5 -18.5t107.5 -7.5l-14 -64h-508l13 64q64 2 99 7.5t55 16t32.5 28t20.5 55.5l99 449q3 13 4.5 22.5t1.5 13.5q0 15 -8 20t-22 5q-19 0 -59 -17t-110 -53l-32 70l354 161h57q-21 -80 -42 -175zM1570 1365l-1140 -1461h-151
l1143 1461h148zM1373 17q36 0 54 7.5t32.5 24.5t31.5 53h77l-51 -198h-561l10 46q83 135 279 296l90 75q64 54 96 88t49 62t24 54t7 55q0 46 -32.5 72.5t-92.5 26.5q-61 0 -103 -31t-68 -86h-103l30 136q158 55 285 55q60 0 103.5 -14.5t71.5 -38t41 -52.5t13 -58
q0 -61 -22 -106t-81 -101.5t-197 -163.5q-149 -118 -223 -202h240z" />
    <glyph glyph-name="threequarters" unicode="&#xbe;" horiz-adv-x="1757" 
d="M269 1190l27 136q74 27 142 41t139 14q62 0 113 -18t82.5 -57t31.5 -98q0 -48 -22.5 -91t-74 -79t-129.5 -66v-10q78 -21 118 -68t40 -112q0 -54 -22.5 -103.5t-68 -85.5t-111.5 -54.5t-149 -18.5q-64 0 -139.5 12.5t-126.5 30.5l32 147h90q6 -59 42.5 -89t110.5 -30
q98 0 150.5 53.5t52.5 152.5q0 59 -46.5 90.5t-138.5 31.5h-81l15 74q78 4 134.5 20t92.5 39.5t55.5 50.5t26.5 52t7 54q0 47 -30.5 73.5t-88.5 26.5q-64 0 -106 -29.5t-70 -89.5h-98zM1570 1365l-1140 -1461h-151l1143 1461h148zM1204 -51q34 3 50.5 15.5t27 39.5t21.5 81
l14 63h-371l13 67l497 528h122l-116 -519h18q32 0 50 5t31 19t25 46h75l-42 -146h-173l-15 -72q-6 -27 -8.5 -45t-2.5 -35q0 -23 17.5 -33.5t54.5 -13.5l-9 -45h-289zM1091 231v-7h243l32 147q23 108 53 212h-10z" />
    <glyph glyph-name="questiondown" unicode="&#xbf;" horiz-adv-x="834" 
d="M416 724l51 232h190l-51 -232h-190zM546 540l-7 -34q-9 -45 -27.5 -82.5t-57 -86t-110.5 -121.5q-48 -50 -89 -96.5t-70.5 -95t-45.5 -101.5t-16 -116q0 -72 38 -112t103 -40q74 0 128 47.5t81 140.5h129l-35 -164q-127 -61 -201 -82.5t-144 -21.5q-96 0 -163 32
t-98.5 85t-31.5 118q0 42 10 80t30.5 75t53 76.5t74 81.5t134.5 131q51 48 81 81.5t46 60t25 51.5t19 68l5 25h139z" />
    <glyph glyph-name="Agrave" unicode="&#xc0;" horiz-adv-x="1205" 
d="M678 0l11 49q45 4 70.5 26t36 61t10.5 103q0 39 -3 85l-7 129h-440l-55 -98q-39 -69 -57 -118.5t-18 -87.5q0 -84 101 -100l-11 -49h-409l11 49q31 4 58.5 24.5t58.5 62t87 137.5l641 1108h151l72 -1115q5 -79 18 -123.5t35.5 -66t65.5 -27.5l-11 -49h-416zM401 540h391
l-17 322q-3 66 -5 165t-2 143h-11zM827 1782l192 -257l-58 -59l-326 266l11 50h181z" />
    <glyph glyph-name="Aacute" unicode="&#xc1;" horiz-adv-x="1205" 
d="M678 0l11 49q45 4 70.5 26t36 61t10.5 103q0 39 -3 85l-7 129h-440l-55 -98q-39 -69 -57 -118.5t-18 -87.5q0 -84 101 -100l-11 -49h-409l11 49q31 4 58.5 24.5t58.5 62t87 137.5l641 1108h151l72 -1115q5 -79 18 -123.5t35.5 -66t65.5 -27.5l-11 -49h-416zM401 540h391
l-17 322q-3 66 -5 165t-2 143h-11zM1200 1782l-11 -50l-425 -268l-50 71l268 247h218z" />
    <glyph glyph-name="Acircumflex" unicode="&#xc2;" horiz-adv-x="1205" 
d="M678 0l11 49q45 4 70.5 26t36 61t10.5 103q0 39 -3 85l-7 129h-440l-55 -98q-39 -69 -57 -118.5t-18 -87.5q0 -84 101 -100l-11 -49h-409l11 49q31 4 58.5 24.5t58.5 62t87 137.5l641 1108h151l72 -1115q5 -79 18 -123.5t35.5 -66t65.5 -27.5l-11 -49h-416zM401 540h391
l-17 322q-3 66 -5 165t-2 143h-11zM985 1780l161 -261l-66 -50l-180 182h-10l-263 -183l-52 62l274 250h136z" />
    <glyph glyph-name="Atilde" unicode="&#xc3;" horiz-adv-x="1205" 
d="M678 0l11 49q45 4 70.5 26t36 61t10.5 103q0 39 -3 85l-7 129h-440l-55 -98q-39 -69 -57 -118.5t-18 -87.5q0 -84 101 -100l-11 -49h-409l11 49q31 4 58.5 24.5t58.5 62t87 137.5l641 1108h151l72 -1115q5 -79 18 -123.5t35.5 -66t65.5 -27.5l-11 -49h-416zM401 540h391
l-17 322q-3 66 -5 165t-2 143h-11zM1145 1720l69 -48q-50 -75 -88.5 -116t-70.5 -57t-71 -16q-23 0 -42 6t-35.5 16t-49.5 38q-30 24 -43 33t-25 13.5t-25 4.5q-25 0 -45 -9.5t-44 -34.5t-54 -67l-70 47q61 87 93 122t64.5 51.5t77.5 16.5q16 0 29.5 -3.5t26.5 -9.5t23 -13
t39 -30q41 -34 60.5 -44.5t39.5 -10.5q23 0 43 10t44 34t54 67z" />
    <glyph glyph-name="Adieresis" unicode="&#xc4;" horiz-adv-x="1205" 
d="M678 0l11 49q45 4 70.5 26t36 61t10.5 103q0 39 -3 85l-7 129h-440l-55 -98q-39 -69 -57 -118.5t-18 -87.5q0 -84 101 -100l-11 -49h-409l11 49q31 4 58.5 24.5t58.5 62t87 137.5l641 1108h151l72 -1115q5 -79 18 -123.5t35.5 -66t65.5 -27.5l-11 -49h-416zM401 540h391
l-17 322q-3 66 -5 165t-2 143h-11zM1160 1691l-38 -176h-165l38 176h165zM810 1691l-38 -176h-165l38 176h165z" />
    <glyph glyph-name="Aring" unicode="&#xc5;" horiz-adv-x="1205" 
d="M678 0l11 49q45 4 70.5 26t36 61t10.5 103q0 39 -3 85l-7 129h-440l-55 -98q-39 -69 -57 -118.5t-18 -87.5q0 -84 101 -100l-11 -49h-409l11 49q31 4 58.5 24.5t58.5 62t87 137.5l641 1108h151l72 -1115q5 -79 18 -123.5t35.5 -66t65.5 -27.5l-11 -49h-416zM401 540h391
l-17 322q-3 66 -5 165t-2 143h-11zM844 1424q-86 0 -132.5 38.5t-46.5 109.5q0 46 16.5 94t53.5 84.5t87.5 55.5t107.5 19q90 0 135.5 -38.5t45.5 -110.5q0 -66 -31 -126t-92 -93t-144 -33zM766 1578q0 -42 21.5 -67t67.5 -25q48 0 84 28.5t53.5 72.5t17.5 85q0 44 -23 67.5
t-65 23.5q-43 0 -79 -25t-56.5 -68t-20.5 -92z" />
    <glyph glyph-name="AE" unicode="&#xc6;" horiz-adv-x="1709" 
d="M1700 1058h-96q-3 72 -11 112.5t-18 60t-23 29t-32.5 13.5t-55.5 4h-350l-81 -524h182q44 0 73.5 12t54.5 41.5t56 90.5h91l-90 -384h-85q0 55 -4 81t-10.5 38.5t-16.5 19.5t-26 10t-53 3h-185l-89 -577h242q44 0 74.5 6.5t55.5 22.5t48 41.5t47.5 65.5t66.5 122h97
l-88 -346h-833l11 49q42 7 65.5 25t38 56.5t26.5 119.5l30 203h-404l-70 -98q-66 -92 -89 -136t-23 -80q0 -34 25 -58t71 -32l-10 -49h-414l11 49q40 5 92.5 54t139.5 170l774 1092h854zM826 540l72 461l29 162q5 27 10 48h-9l-465 -671h363z" />
    <glyph glyph-name="Ccedilla" unicode="&#xc7;" horiz-adv-x="1105" 
d="M1184 1330l-60 -271h-96q-8 123 -53.5 177.5t-146.5 54.5q-84 0 -158 -49.5t-140 -143t-115 -219t-75 -256t-26 -235.5q0 -163 53.5 -239.5t167.5 -76.5q75 0 131 22.5t105 76t97 149.5h96l-61 -284q-134 -36 -257 -46l-114 -77q4 -14 4 -49q0 -125 -94.5 -202.5
t-267.5 -91.5v76q96 8 148.5 58t54.5 145l7 34l161 101h-34q-124 0 -211 51.5t-131 149t-44 234.5q0 72 10 140q12 84 38 183q33 123 83 224q54 107 123 189q65 76 141 127q70 47 151 73t172 26t168.5 -11t172.5 -40z" />
    <glyph glyph-name="Egrave" unicode="&#xc8;" horiz-adv-x="1164" 
d="M1224 1365l-69 -307h-96q-3 72 -11 112.5t-18 60t-23 29t-32.5 13.5t-55.5 4h-326l-114 -524h191q44 0 73.5 12t54.5 41.5t56 90.5h91l-90 -384h-85q0 55 -4 81t-10.5 38.5t-16.5 19.5t-26 10t-53 3h-200l-128 -577h296q44 0 74.5 6.5t55.5 22.5t48 41.5t47.5 65.5
t66.5 122h97l-88 -346h-887l11 49q38 6 57 19.5t32 37.5t24 58.5t33 133.5l170 770q22 100 22 161q0 47 -24 65.5t-74 21.5l11 49h920zM769 1782l192 -257l-58 -59l-326 266l11 50h181z" />
    <glyph glyph-name="Eacute" unicode="&#xc9;" horiz-adv-x="1164" 
d="M1224 1365l-69 -307h-96q-3 72 -11 112.5t-18 60t-23 29t-32.5 13.5t-55.5 4h-326l-114 -524h191q44 0 73.5 12t54.5 41.5t56 90.5h91l-90 -384h-85q0 55 -4 81t-10.5 38.5t-16.5 19.5t-26 10t-53 3h-200l-128 -577h296q44 0 74.5 6.5t55.5 22.5t48 41.5t47.5 65.5
t66.5 122h97l-88 -346h-887l11 49q38 6 57 19.5t32 37.5t24 58.5t33 133.5l170 770q22 100 22 161q0 47 -24 65.5t-74 21.5l11 49h920zM1156 1782l-11 -50l-425 -268l-50 71l268 247h218z" />
    <glyph glyph-name="Ecircumflex" unicode="&#xca;" horiz-adv-x="1164" 
d="M1224 1365l-69 -307h-96q-3 72 -11 112.5t-18 60t-23 29t-32.5 13.5t-55.5 4h-326l-114 -524h191q44 0 73.5 12t54.5 41.5t56 90.5h91l-90 -384h-85q0 55 -4 81t-10.5 38.5t-16.5 19.5t-26 10t-53 3h-200l-128 -577h296q44 0 74.5 6.5t55.5 22.5t48 41.5t47.5 65.5
t66.5 122h97l-88 -346h-887l11 49q38 6 57 19.5t32 37.5t24 58.5t33 133.5l170 770q22 100 22 161q0 47 -24 65.5t-74 21.5l11 49h920zM947 1780l161 -261l-66 -50l-180 182h-10l-263 -183l-52 62l274 250h136z" />
    <glyph glyph-name="Edieresis" unicode="&#xcb;" horiz-adv-x="1164" 
d="M1224 1365l-69 -307h-96q-3 72 -11 112.5t-18 60t-23 29t-32.5 13.5t-55.5 4h-326l-114 -524h191q44 0 73.5 12t54.5 41.5t56 90.5h91l-90 -384h-85q0 55 -4 81t-10.5 38.5t-16.5 19.5t-26 10t-53 3h-200l-128 -577h296q44 0 74.5 6.5t55.5 22.5t48 41.5t47.5 65.5
t66.5 122h97l-88 -346h-887l11 49q38 6 57 19.5t32 37.5t24 58.5t33 133.5l170 770q22 100 22 161q0 47 -24 65.5t-74 21.5l11 49h920zM1116 1691l-38 -176h-165l38 176h165zM766 1691l-38 -176h-165l38 176h165z" />
    <glyph glyph-name="Igrave" unicode="&#xcc;" horiz-adv-x="656" 
d="M376 291q-13 -59 -17 -93.5t-4 -62.5q0 -45 22.5 -63.5t75.5 -22.5l-11 -49h-400l11 49q38 6 57 19.5t32 37.5t24 58.5t33 133.5l170 770q10 46 16 88.5t6 72.5q0 47 -24 65.5t-74 21.5l11 49h400l-11 -49q-38 -8 -54.5 -18t-30 -30t-27 -62.5t-34.5 -138.5zM505 1782
l192 -257l-58 -59l-326 266l11 50h181z" />
    <glyph glyph-name="Iacute" unicode="&#xcd;" horiz-adv-x="656" 
d="M376 291q-13 -59 -17 -93.5t-4 -62.5q0 -45 22.5 -63.5t75.5 -22.5l-11 -49h-400l11 49q38 6 57 19.5t32 37.5t24 58.5t33 133.5l170 770q10 46 16 88.5t6 72.5q0 47 -24 65.5t-74 21.5l11 49h400l-11 -49q-38 -8 -54.5 -18t-30 -30t-27 -62.5t-34.5 -138.5zM893 1782
l-11 -50l-425 -268l-50 71l268 247h218z" />
    <glyph glyph-name="Icircumflex" unicode="&#xce;" horiz-adv-x="656" 
d="M376 291q-13 -59 -17 -93.5t-4 -62.5q0 -45 22.5 -63.5t75.5 -22.5l-11 -49h-400l11 49q38 6 57 19.5t32 37.5t24 58.5t33 133.5l170 770q10 46 16 88.5t6 72.5q0 47 -24 65.5t-74 21.5l11 49h400l-11 -49q-38 -8 -54.5 -18t-30 -30t-27 -62.5t-34.5 -138.5zM683 1780
l161 -261l-66 -50l-180 182h-10l-263 -183l-52 62l274 250h136z" />
    <glyph glyph-name="Idieresis" unicode="&#xcf;" horiz-adv-x="656" 
d="M376 291q-13 -59 -17 -93.5t-4 -62.5q0 -45 22.5 -63.5t75.5 -22.5l-11 -49h-400l11 49q38 6 57 19.5t32 37.5t24 58.5t33 133.5l170 770q10 46 16 88.5t6 72.5q0 47 -24 65.5t-74 21.5l11 49h400l-11 -49q-38 -8 -54.5 -18t-30 -30t-27 -62.5t-34.5 -138.5zM852 1691
l-38 -176h-165l38 176h165zM502 1691l-38 -176h-165l38 176h165z" />
    <glyph glyph-name="Eth" unicode="&#xd0;" horiz-adv-x="1330" 
d="M122 761h185l68 307q10 45 16 88t6 73q0 47 -24 65.5t-74 21.5l11 49h379q151 0 245 -23t175.5 -83t122.5 -159.5t41 -235.5q0 -135 -31 -258t-89 -226.5t-139 -180t-157 -117.5t-170 -61.5t-219 -20.5h-420l11 49q38 6 57 19.5t32 37.5t24 58.5t33 133.5l82 371h-185z
M484 761h304l-20 -92h-304l-126 -577q29 -3 111 -3q101 0 183.5 22t152 70.5t126.5 129.5t92.5 164.5t55.5 179.5t20 203q0 209 -97.5 314.5t-289.5 105.5q-44 0 -95 -3z" />
    <glyph glyph-name="Ntilde" unicode="&#xd1;" horiz-adv-x="1374" 
d="M1428 1365l-11 -49q-38 -8 -54.5 -18t-30 -30t-27 -62.5t-34.5 -138.5l-235 -1067h-136l-292 858q-53 154 -93 307h-13q-6 -51 -33 -194.5t-57 -280.5l-88 -399q-9 -42 -15 -81t-6 -75q0 -45 22.5 -63.5t75.5 -22.5l-11 -49h-350l11 49q38 6 57 19.5t32 37.5t24 58.5
t33 133.5l170 770q10 43 16 82t6 79q0 47 -24 65.5t-74 21.5l11 49h319l264 -779q57 -168 88 -284h11q8 61 36.5 203t52.5 248l70 315q7 33 14.5 78t7.5 83q0 47 -24 65.5t-74 21.5l11 49h350zM1206 1720l69 -48q-50 -75 -88.5 -116t-70.5 -57t-71 -16q-23 0 -42 6t-35.5 16
t-49.5 38q-30 24 -43 33t-25 13.5t-25 4.5q-25 0 -45 -9.5t-44 -34.5t-54 -67l-70 47q61 87 93 122t64.5 51.5t77.5 16.5q16 0 29.5 -3.5t26.5 -9.5t23 -13t39 -30q41 -34 60.5 -44.5t39.5 -10.5q23 0 43 10t44 34t54 67z" />
    <glyph glyph-name="Ograve" unicode="&#xd2;" horiz-adv-x="1273" 
d="M837 1381q124 0 214.5 -48t139 -146t48.5 -242q0 -155 -53 -348.5t-153.5 -335t-229.5 -210t-270 -68.5q-140 0 -231.5 54t-134.5 150.5t-43 227.5q0 127 36.5 284.5t100 284.5t151 216t195.5 135t230 46zM1049 987q0 306 -223 306q-54 0 -102 -18q-56 -22 -107 -65
q-57 -49 -106 -125q-58 -90 -101 -205q-45 -120 -72 -259q-26 -133 -26 -241q0 -156 56.5 -232.5t168.5 -76.5q90 0 171 55q100 67 180 213q86 157 133 383q28 133 28 265zM828 1782l192 -257l-58 -59l-326 266l11 50h181z" />
    <glyph glyph-name="Oacute" unicode="&#xd3;" horiz-adv-x="1273" 
d="M837 1381q124 0 214.5 -48t139 -146t48.5 -242q0 -155 -53 -348.5t-153.5 -335t-229.5 -210t-270 -68.5q-140 0 -231.5 54t-134.5 150.5t-43 227.5q0 127 36.5 284.5t100 284.5t151 216t195.5 135t230 46zM1049 987q0 306 -223 306q-54 0 -102 -18q-56 -22 -107 -65
q-57 -49 -106 -125q-58 -90 -101 -205q-45 -120 -72 -259q-26 -133 -26 -241q0 -156 56.5 -232.5t168.5 -76.5q90 0 171 55q100 67 180 213q86 157 133 383q28 133 28 265zM1201 1782l-11 -50l-425 -268l-50 71l268 247h218z" />
    <glyph glyph-name="Ocircumflex" unicode="&#xd4;" horiz-adv-x="1273" 
d="M837 1381q124 0 214.5 -48t139 -146t48.5 -242q0 -155 -53 -348.5t-153.5 -335t-229.5 -210t-270 -68.5q-140 0 -231.5 54t-134.5 150.5t-43 227.5q0 127 36.5 284.5t100 284.5t151 216t195.5 135t230 46zM1049 987q0 306 -223 306q-54 0 -102 -18q-56 -22 -107 -65
q-57 -49 -106 -125q-58 -90 -101 -205q-45 -120 -72 -259q-26 -133 -26 -241q0 -156 56.5 -232.5t168.5 -76.5q90 0 171 55q100 67 180 213q86 157 133 383q28 133 28 265zM991 1780l161 -261l-66 -50l-180 182h-10l-263 -183l-52 62l274 250h136z" />
    <glyph glyph-name="Otilde" unicode="&#xd5;" horiz-adv-x="1273" 
d="M837 1381q124 0 214.5 -48t139 -146t48.5 -242q0 -155 -53 -348.5t-153.5 -335t-229.5 -210t-270 -68.5q-140 0 -231.5 54t-134.5 150.5t-43 227.5q0 127 36.5 284.5t100 284.5t151 216t195.5 135t230 46zM1049 987q0 306 -223 306q-54 0 -102 -18q-56 -22 -107 -65
q-57 -49 -106 -125q-58 -90 -101 -205q-45 -120 -72 -259q-26 -133 -26 -241q0 -156 56.5 -232.5t168.5 -76.5q90 0 171 55q100 67 180 213q86 157 133 383q28 133 28 265zM1146 1720l69 -48q-50 -75 -88.5 -116t-70.5 -57t-71 -16q-23 0 -42 6t-35.5 16t-49.5 38
q-30 24 -43 33t-25 13.5t-25 4.5q-25 0 -45 -9.5t-44 -34.5t-54 -67l-70 47q61 87 93 122t64.5 51.5t77.5 16.5q16 0 29.5 -3.5t26.5 -9.5t23 -13t39 -30q41 -34 60.5 -44.5t39.5 -10.5q23 0 43 10t44 34t54 67z" />
    <glyph glyph-name="Odieresis" unicode="&#xd6;" horiz-adv-x="1273" 
d="M837 1381q124 0 214.5 -48t139 -146t48.5 -242q0 -155 -53 -348.5t-153.5 -335t-229.5 -210t-270 -68.5q-140 0 -231.5 54t-134.5 150.5t-43 227.5q0 127 36.5 284.5t100 284.5t151 216t195.5 135t230 46zM1049 987q0 306 -223 306q-54 0 -102 -18q-56 -22 -107 -65
q-57 -49 -106 -125q-58 -90 -101 -205q-45 -120 -72 -259q-26 -133 -26 -241q0 -156 56.5 -232.5t168.5 -76.5q90 0 171 55q100 67 180 213q86 157 133 383q28 133 28 265zM1161 1691l-38 -176h-165l38 176h165zM811 1691l-38 -176h-165l38 176h165z" />
    <glyph glyph-name="multiply" unicode="&#xd7;" horiz-adv-x="1082" 
d="M580 686l345 296l85 -110l-350 -295l220 -299l-114 -90l-215 297l-347 -297l-85 110l352 297l-218 297l114 90z" />
    <glyph glyph-name="Oslash" unicode="&#xd8;" horiz-adv-x="1273" 
d="M-33 -135l222 281q-65 101 -65 269q0 127 36.5 284.5t100 284.5t151 216t195.5 135t230 46q160 0 263 -80l156 198h139l-222 -281q66 -106 66 -273q0 -155 -53 -348.5t-153.5 -335t-229.5 -210t-270 -68.5q-169 0 -271 80l-156 -198h-139zM315 298l695 890
q-54 105 -184 105q-54 0 -102 -18q-56 -22 -107 -65q-57 -49 -106 -125q-58 -90 -101 -205q-45 -120 -72 -259q-26 -133 -26 -241q0 -47 3 -82zM1045 1063l-694 -888q54 -104 186 -104q90 0 171 55q100 67 180 213q86 157 133 383q28 133 28 265q0 32 -4 76z" />
    <glyph glyph-name="Ugrave" unicode="&#xd9;" horiz-adv-x="1295" 
d="M260 1316l11 49h402l-11 -49q-38 -8 -54.5 -18t-30 -30t-27 -62.5t-34.5 -138.5l-125 -560q-13 -57 -20.5 -108.5t-7.5 -106.5q0 -109 53.5 -165t161.5 -56q102 0 170 42t109 121t69 205l139 629q10 45 16 88t6 73q0 47 -24 65.5t-74 21.5l11 49h380l-11 -49
q-37 -8 -54.5 -18.5t-31 -30.5t-26.5 -63t-34 -137l-130 -599q-39 -179 -110 -285t-177.5 -153t-260.5 -47q-173 0 -265 83.5t-92 243.5q0 56 11.5 128.5t32.5 163.5l104 466q12 53 17.5 94.5t5.5 66.5q0 45 -23 64.5t-76 22.5zM759 1782l192 -257l-58 -59l-326 266l11 50
h181z" />
    <glyph glyph-name="Uacute" unicode="&#xda;" horiz-adv-x="1295" 
d="M260 1316l11 49h402l-11 -49q-38 -8 -54.5 -18t-30 -30t-27 -62.5t-34.5 -138.5l-125 -560q-13 -57 -20.5 -108.5t-7.5 -106.5q0 -109 53.5 -165t161.5 -56q102 0 170 42t109 121t69 205l139 629q10 45 16 88t6 73q0 47 -24 65.5t-74 21.5l11 49h380l-11 -49
q-37 -8 -54.5 -18.5t-31 -30.5t-26.5 -63t-34 -137l-130 -599q-39 -179 -110 -285t-177.5 -153t-260.5 -47q-173 0 -265 83.5t-92 243.5q0 56 11.5 128.5t32.5 163.5l104 466q12 53 17.5 94.5t5.5 66.5q0 45 -23 64.5t-76 22.5zM1222 1782l-11 -50l-425 -268l-50 71l268 247
h218z" />
    <glyph glyph-name="Ucircumflex" unicode="&#xdb;" horiz-adv-x="1295" 
d="M260 1316l11 49h402l-11 -49q-38 -8 -54.5 -18t-30 -30t-27 -62.5t-34.5 -138.5l-125 -560q-13 -57 -20.5 -108.5t-7.5 -106.5q0 -109 53.5 -165t161.5 -56q102 0 170 42t109 121t69 205l139 629q10 45 16 88t6 73q0 47 -24 65.5t-74 21.5l11 49h380l-11 -49
q-37 -8 -54.5 -18.5t-31 -30.5t-26.5 -63t-34 -137l-130 -599q-39 -179 -110 -285t-177.5 -153t-260.5 -47q-173 0 -265 83.5t-92 243.5q0 56 11.5 128.5t32.5 163.5l104 466q12 53 17.5 94.5t5.5 66.5q0 45 -23 64.5t-76 22.5zM1007 1780l161 -261l-66 -50l-180 182h-10
l-263 -183l-52 62l274 250h136z" />
    <glyph glyph-name="Udieresis" unicode="&#xdc;" horiz-adv-x="1295" 
d="M260 1316l11 49h402l-11 -49q-38 -8 -54.5 -18t-30 -30t-27 -62.5t-34.5 -138.5l-125 -560q-13 -57 -20.5 -108.5t-7.5 -106.5q0 -109 53.5 -165t161.5 -56q102 0 170 42t109 121t69 205l139 629q10 45 16 88t6 73q0 47 -24 65.5t-74 21.5l11 49h380l-11 -49
q-37 -8 -54.5 -18.5t-31 -30.5t-26.5 -63t-34 -137l-130 -599q-39 -179 -110 -285t-177.5 -153t-260.5 -47q-173 0 -265 83.5t-92 243.5q0 56 11.5 128.5t32.5 163.5l104 466q12 53 17.5 94.5t5.5 66.5q0 45 -23 64.5t-76 22.5zM1177 1691l-38 -176h-165l38 176h165z
M827 1691l-38 -176h-165l38 176h165z" />
    <glyph glyph-name="Yacute" unicode="&#xdd;" horiz-adv-x="1122" 
d="M587 1365l-11 -49q-42 -4 -64 -24.5t-22 -63.5q0 -61 28 -160l106 -377l246 329q55 73 79.5 114.5t34.5 73.5q8 24 8 46q0 28 -19 43t-55 19l11 49h375l-11 -49q-24 -5 -41.5 -14.5t-40 -30.5t-61 -67.5t-98.5 -124.5l-389 -505l-62 -283q-9 -40 -12.5 -62.5t-6 -48
t-2.5 -45.5q0 -31 10 -48.5t30 -25.5t69 -12l-11 -49h-421l11 49q40 6 59 16t33.5 31t29 66t34.5 136l59 276l-145 505q-33 116 -52 157t-40.5 58t-56.5 22l11 49h387zM1141 1782l-11 -50l-425 -268l-50 71l268 247h218z" />
    <glyph glyph-name="Thorn" unicode="&#xde;" horiz-adv-x="1147" 
d="M383 326l-7 -35q-10 -52 -15.5 -88.5t-5.5 -67.5q0 -45 22.5 -63.5t75.5 -22.5l-11 -49h-400l11 49q38 6 57 19.5t32 37.5t24 58.5t33 133.5l170 770q10 46 16 88.5t6 72.5q0 47 -24 65.5t-74 21.5l11 49h400l-11 -49q-36 -7 -52.5 -16.5t-29.5 -28t-25.5 -54
t-29.5 -111.5h131q119 0 195.5 -18.5t126 -57t74 -97.5t24.5 -137q0 -150 -71 -260t-192.5 -162t-291.5 -52q-101 0 -169 4zM535 1015l-133 -606h101q121 0 195.5 25t122 77.5t73.5 124.5t26 158q0 85 -30 134t-85 69.5t-140 20.5q-62 0 -130 -3z" />
    <glyph glyph-name="germandbls" unicode="&#xdf;" horiz-adv-x="1160" 
d="M254 -17q-34 -157 -92 -251t-143.5 -136.5t-208.5 -42.5q-44 0 -79 10l23 88q24 -8 70 -8q53 0 86.5 14t62 45.5t54 92t48.5 159.5l203 901h-121l12 51q64 7 96 33.5t53 91.5q17 55 40.5 106.5t56 97t74.5 82.5t97.5 63.5t125 41t156.5 14.5q60 0 111.5 -12.5t89 -38.5
t59 -67.5t21.5 -100.5q0 -69 -27 -124t-76.5 -102t-132.5 -100t-118 -81.5t-49.5 -52.5t-14.5 -55q0 -30 11 -51.5t40.5 -45t96.5 -63.5q63 -38 101 -69.5t60 -62.5t32 -65.5t10 -83.5q0 -89 -47.5 -152.5t-129 -94.5t-185.5 -31q-140 0 -306 47l37 171h83
q11 -72 57.5 -105.5t134.5 -33.5q90 0 142 43.5t52 119.5q0 45 -15 77.5t-49 62.5t-108 75q-60 37 -88 59.5t-45 47t-24.5 50.5t-7.5 58q0 45 18.5 82t59 76t142.5 109q67 45 104.5 83t57.5 83.5t20 108.5q0 77 -40.5 118.5t-115.5 41.5q-77 0 -130.5 -24.5t-101.5 -79.5
t-83 -140.5t-67 -235.5zM63 956z" />
    <glyph glyph-name="agrave" unicode="&#xe0;" horiz-adv-x="1077" 
d="M834 907l92 66l64 -16l-153 -679q-14 -60 -19 -92.5t-5 -53.5q0 -41 23 -59.5t88 -23.5l-9 -49h-286l63 251l-13 4q-96 -140 -182 -205t-182 -65q-110 0 -170.5 83t-60.5 233q0 96 22 192.5t66.5 183t106.5 152.5t143.5 105t177.5 39q62 0 118 -14.5t116 -51.5zM746 609
q9 41 12 71t3 65q0 78 -33 113.5t-110 35.5q-42 0 -80 -13.5t-77 -45t-74.5 -82.5t-64.5 -124t-45 -156.5t-16 -162.5q0 -104 28.5 -155.5t95.5 -51.5q31 0 64.5 14t74.5 51.5t93 110.5q47 67 74.5 132.5t45.5 154.5zM667 1442l133 -328l-71 -44l-235 322l11 50h162z" />
    <glyph glyph-name="aacute" unicode="&#xe1;" horiz-adv-x="1077" 
d="M834 907l92 66l64 -16l-153 -679q-14 -60 -19 -92.5t-5 -53.5q0 -41 23 -59.5t88 -23.5l-9 -49h-286l63 251l-13 4q-96 -140 -182 -205t-182 -65q-110 0 -170.5 83t-60.5 233q0 96 22 192.5t66.5 183t106.5 152.5t143.5 105t177.5 39q62 0 118 -14.5t116 -51.5zM746 609
q9 41 12 71t3 65q0 78 -33 113.5t-110 35.5q-42 0 -80 -13.5t-77 -45t-74.5 -82.5t-64.5 -124t-45 -156.5t-16 -162.5q0 -104 28.5 -155.5t95.5 -51.5q31 0 64.5 14t74.5 51.5t93 110.5q47 67 74.5 132.5t45.5 154.5zM1001 1442l-11 -50l-374 -322l-62 60l263 312h184z" />
    <glyph glyph-name="acircumflex" unicode="&#xe2;" horiz-adv-x="1077" 
d="M834 907l92 66l64 -16l-153 -679q-14 -60 -19 -92.5t-5 -53.5q0 -41 23 -59.5t88 -23.5l-9 -49h-286l63 251l-13 4q-96 -140 -182 -205t-182 -65q-110 0 -170.5 83t-60.5 233q0 96 22 192.5t66.5 183t106.5 152.5t143.5 105t177.5 39q62 0 118 -14.5t116 -51.5zM746 609
q9 41 12 71t3 65q0 78 -33 113.5t-110 35.5q-42 0 -80 -13.5t-77 -45t-74.5 -82.5t-64.5 -124t-45 -156.5t-16 -162.5q0 -104 28.5 -155.5t95.5 -51.5q31 0 64.5 14t74.5 51.5t93 110.5q47 67 74.5 132.5t45.5 154.5zM819 1432l132 -337l-79 -35l-138 243h-10l-256 -243
l-62 57l277 315h136z" />
    <glyph glyph-name="atilde" unicode="&#xe3;" horiz-adv-x="1077" 
d="M834 907l92 66l64 -16l-153 -679q-14 -60 -19 -92.5t-5 -53.5q0 -41 23 -59.5t88 -23.5l-9 -49h-286l63 251l-13 4q-96 -140 -182 -205t-182 -65q-110 0 -170.5 83t-60.5 233q0 96 22 192.5t66.5 183t106.5 152.5t143.5 105t177.5 39q62 0 118 -14.5t116 -51.5zM746 609
q9 41 12 71t3 65q0 78 -33 113.5t-110 35.5q-42 0 -80 -13.5t-77 -45t-74.5 -82.5t-64.5 -124t-45 -156.5t-16 -162.5q0 -104 28.5 -155.5t95.5 -51.5q31 0 64.5 14t74.5 51.5t93 110.5q47 67 74.5 132.5t45.5 154.5zM970 1365l69 -48q-50 -75 -88.5 -116t-70.5 -57t-71 -16
q-23 0 -42 6t-35.5 16t-49.5 38q-30 24 -43 33t-25 13.5t-25 4.5q-25 0 -45 -9.5t-44 -34.5t-54 -67l-70 47q61 87 93 122t64.5 51.5t77.5 16.5q16 0 29.5 -3.5t26.5 -9.5t23 -13t39 -30q41 -34 60.5 -44.5t39.5 -10.5q23 0 43 10t44 34t54 67z" />
    <glyph glyph-name="adieresis" unicode="&#xe4;" horiz-adv-x="1077" 
d="M834 907l92 66l64 -16l-153 -679q-14 -60 -19 -92.5t-5 -53.5q0 -41 23 -59.5t88 -23.5l-9 -49h-286l63 251l-13 4q-96 -140 -182 -205t-182 -65q-110 0 -170.5 83t-60.5 233q0 96 22 192.5t66.5 183t106.5 152.5t143.5 105t177.5 39q62 0 118 -14.5t116 -51.5zM746 609
q9 41 12 71t3 65q0 78 -33 113.5t-110 35.5q-42 0 -80 -13.5t-77 -45t-74.5 -82.5t-64.5 -124t-45 -156.5t-16 -162.5q0 -104 28.5 -155.5t95.5 -51.5q31 0 64.5 14t74.5 51.5t93 110.5q47 67 74.5 132.5t45.5 154.5zM971 1339l-38 -176h-165l38 176h165zM649 1339l-38 -176
h-165l38 176h165z" />
    <glyph glyph-name="aring" unicode="&#xe5;" horiz-adv-x="1077" 
d="M834 907l92 66l64 -16l-153 -679q-14 -60 -19 -92.5t-5 -53.5q0 -41 23 -59.5t88 -23.5l-9 -49h-286l63 251l-13 4q-96 -140 -182 -205t-182 -65q-110 0 -170.5 83t-60.5 233q0 96 22 192.5t66.5 183t106.5 152.5t143.5 105t177.5 39q62 0 118 -14.5t116 -51.5zM746 609
q9 41 12 71t3 65q0 78 -33 113.5t-110 35.5q-42 0 -80 -13.5t-77 -45t-74.5 -82.5t-64.5 -124t-45 -156.5t-16 -162.5q0 -104 28.5 -155.5t95.5 -51.5q31 0 64.5 14t74.5 51.5t93 110.5q47 67 74.5 132.5t45.5 154.5zM669 1071q-86 0 -132.5 38.5t-46.5 109.5q0 46 16.5 94
t53.5 84.5t87.5 55.5t107.5 19q90 0 135.5 -38.5t45.5 -110.5q0 -66 -31 -126t-92 -93t-144 -33zM591 1225q0 -42 21.5 -67t67.5 -25q48 0 84 28.5t53.5 72.5t17.5 85q0 44 -23 67.5t-65 23.5q-43 0 -79 -25t-56.5 -68t-20.5 -92z" />
    <glyph glyph-name="ae" unicode="&#xe6;" horiz-adv-x="1452" 
d="M1330 199q-74 -81 -142 -128t-136 -67t-150 -20q-108 0 -178 52t-98 152h-10q-87 -104 -179 -154t-192 -50q-104 0 -161 53.5t-57 144.5q0 104 63 180t199 119t348 44l16 78q9 46 12 75t3 51q0 80 -37 117t-113 37q-78 0 -128 -40t-82 -124h-130l28 130q84 44 133 65
t94 34.5t84.5 19t81.5 5.5q84 0 133.5 -37t71.5 -120h10q155 157 358 157q121 0 181.5 -49t60.5 -153q0 -170 -159.5 -255t-473.5 -85q-12 -60 -12 -130q0 -105 41 -152.5t134 -47.5q92 0 167 40t157 123zM798 516q92 1 161.5 10.5t119.5 26t83 39.5t52.5 50.5t27 58
t7.5 63.5q0 61 -28.5 95.5t-84.5 34.5q-70 0 -137.5 -50.5t-119 -136t-81.5 -191.5zM619 443h-8q-89 0 -166 -11.5t-133.5 -38t-88.5 -69t-32 -103.5q0 -124 134 -124q68 0 125.5 35t95.5 94.5t54 131.5z" />
    <glyph glyph-name="ccedilla" unicode="&#xe7;" horiz-adv-x="887" 
d="M735 716q-2 76 -12.5 110t-34 51t-66.5 17q-101 0 -181.5 -80.5t-131.5 -228t-51 -283.5q0 -42 7.5 -79t26 -64t49 -42.5t77.5 -15.5q91 0 157.5 34.5t140.5 108.5l61 -61q-103 -115 -210 -162l-161 -108q4 -14 4 -49q0 -125 -94.5 -202.5t-267.5 -91.5v76q96 8 148.5 58
t54.5 145l7 34l163 102q-11 -2 -39 -2q-145 0 -220 86t-75 250q0 107 40 235t117 225t180 145t220 48q80 0 139.5 -9t105.5 -21l-49 -226h-105z" />
    <glyph glyph-name="egrave" unicode="&#xe8;" horiz-adv-x="936" 
d="M814 199q-74 -81 -142 -128t-136 -67t-150 -20q-79 0 -136 25.5t-94.5 70t-55.5 106t-18 133.5q0 107 38.5 229.5t116.5 220t187 151t232 53.5q121 0 181.5 -49t60.5 -153q0 -170 -159.5 -255t-473.5 -85q-12 -60 -12 -130q0 -105 41 -152.5t134 -47.5q92 0 167 40
t157 123zM282 516q92 1 161.5 10.5t119.5 26t83 39.5t52.5 50.5t27 58t7.5 63.5q0 61 -28.5 95.5t-84.5 34.5q-70 0 -137.5 -50.5t-119 -136t-81.5 -191.5zM632 1442l133 -328l-71 -44l-235 322l11 50h162z" />
    <glyph glyph-name="eacute" unicode="&#xe9;" horiz-adv-x="936" 
d="M814 199q-74 -81 -142 -128t-136 -67t-150 -20q-79 0 -136 25.5t-94.5 70t-55.5 106t-18 133.5q0 107 38.5 229.5t116.5 220t187 151t232 53.5q121 0 181.5 -49t60.5 -153q0 -170 -159.5 -255t-473.5 -85q-12 -60 -12 -130q0 -105 41 -152.5t134 -47.5q92 0 167 40
t157 123zM282 516q92 1 161.5 10.5t119.5 26t83 39.5t52.5 50.5t27 58t7.5 63.5q0 61 -28.5 95.5t-84.5 34.5q-70 0 -137.5 -50.5t-119 -136t-81.5 -191.5zM966 1442l-11 -50l-374 -322l-62 60l263 312h184z" />
    <glyph glyph-name="ecircumflex" unicode="&#xea;" horiz-adv-x="936" 
d="M814 199q-74 -81 -142 -128t-136 -67t-150 -20q-79 0 -136 25.5t-94.5 70t-55.5 106t-18 133.5q0 107 38.5 229.5t116.5 220t187 151t232 53.5q121 0 181.5 -49t60.5 -153q0 -170 -159.5 -255t-473.5 -85q-12 -60 -12 -130q0 -105 41 -152.5t134 -47.5q92 0 167 40
t157 123zM282 516q92 1 161.5 10.5t119.5 26t83 39.5t52.5 50.5t27 58t7.5 63.5q0 61 -28.5 95.5t-84.5 34.5q-70 0 -137.5 -50.5t-119 -136t-81.5 -191.5zM783 1432l132 -337l-79 -35l-138 243h-10l-256 -243l-62 57l277 315h136z" />
    <glyph glyph-name="edieresis" unicode="&#xeb;" horiz-adv-x="936" 
d="M814 199q-74 -81 -142 -128t-136 -67t-150 -20q-79 0 -136 25.5t-94.5 70t-55.5 106t-18 133.5q0 107 38.5 229.5t116.5 220t187 151t232 53.5q121 0 181.5 -49t60.5 -153q0 -170 -159.5 -255t-473.5 -85q-12 -60 -12 -130q0 -105 41 -152.5t134 -47.5q92 0 167 40
t157 123zM282 516q92 1 161.5 10.5t119.5 26t83 39.5t52.5 50.5t27 58t7.5 63.5q0 61 -28.5 95.5t-84.5 34.5q-70 0 -137.5 -50.5t-119 -136t-81.5 -191.5zM936 1339l-38 -176h-165l38 176h165zM614 1339l-38 -176h-165l38 176h165z" />
    <glyph glyph-name="igrave" unicode="&#xec;" horiz-adv-x="555" 
d="M313 250q-11 -51 -14 -74.5t-3 -39.5q0 -30 10 -47t31 -26t69 -14l-9 -49h-310l151 674q13 58 18 92.5t5 57.5q0 29 -8.5 45t-28.5 24t-69 10l11 53l244 9h59zM399 1442l133 -328l-71 -44l-235 322l11 50h162z" />
    <glyph glyph-name="iacute" unicode="&#xed;" horiz-adv-x="555" 
d="M313 250q-11 -51 -14 -74.5t-3 -39.5q0 -30 10 -47t31 -26t69 -14l-9 -49h-310l151 674q13 58 18 92.5t5 57.5q0 29 -8.5 45t-28.5 24t-69 10l11 53l244 9h59zM731 1442l-11 -50l-374 -322l-62 60l263 312h184z" />
    <glyph glyph-name="icircumflex" unicode="&#xee;" horiz-adv-x="555" 
d="M313 250q-11 -51 -14 -74.5t-3 -39.5q0 -30 10 -47t31 -26t69 -14l-9 -49h-310l151 674q13 58 18 92.5t5 57.5q0 29 -8.5 45t-28.5 24t-69 10l11 53l244 9h59zM551 1432l132 -337l-79 -35l-138 243h-10l-256 -243l-62 57l277 315h136z" />
    <glyph glyph-name="idieresis" unicode="&#xef;" horiz-adv-x="555" 
d="M313 250q-11 -51 -14 -74.5t-3 -39.5q0 -30 10 -47t31 -26t69 -14l-9 -49h-310l151 674q13 58 18 92.5t5 57.5q0 29 -8.5 45t-28.5 24t-69 10l11 53l244 9h59zM703 1339l-38 -176h-165l38 176h165zM381 1339l-38 -176h-165l38 176h165z" />
    <glyph glyph-name="eth" unicode="&#xf0;" horiz-adv-x="1042" 
d="M386 1132l259 125q-41 33 -75 54t-80 43l31 81q130 -47 232 -125l231 112l40 -80l-205 -97q31 -33 55.5 -70t46 -87.5t34 -104.5t16.5 -107t4 -94q0 -128 -34 -288.5t-102.5 -273t-177 -174.5t-254.5 -62q-106 0 -179.5 41.5t-110 117t-36.5 177.5q0 74 20.5 165.5
t56 163t83 125t104.5 88.5t121.5 52.5t136.5 17.5t124 -19.5t90 -61.5l14 7q-11 196 -125 330l-281 -136zM256 273q0 -108 44 -159t137 -51q75 0 136 46t104.5 132t69 200.5t25.5 194.5q0 108 -43.5 162.5t-130.5 54.5q-74 0 -134.5 -45.5t-106.5 -131.5t-73.5 -202.5
t-27.5 -200.5zM626 972z" />
    <glyph glyph-name="ntilde" unicode="&#xf1;" horiz-adv-x="1096" 
d="M943 0h-315l127 508q12 49 23.5 108t11.5 106q0 71 -24.5 102t-76.5 31q-42 0 -90.5 -32.5t-101.5 -97t-89.5 -131t-56.5 -161.5l-91 -433h-173l152 683q5 23 13.5 68t8.5 75q0 28 -8.5 43.5t-29 23t-69.5 10.5l12 53l227 9h57l-67 -260l12 -4q98 138 189 204.5t182 66.5
q97 0 147 -53.5t50 -158.5q0 -36 -6.5 -78.5t-14.5 -75.5l-84 -356q-17 -72 -17 -114q0 -30 10 -47t31 -26t69 -14zM980 1365l69 -48q-50 -75 -88.5 -116t-70.5 -57t-71 -16q-23 0 -42 6t-35.5 16t-49.5 38q-30 24 -43 33t-25 13.5t-25 4.5q-25 0 -45 -9.5t-44 -34.5
t-54 -67l-70 47q61 87 93 122t64.5 51.5t77.5 16.5q16 0 29.5 -3.5t26.5 -9.5t23 -13t39 -30q41 -34 60.5 -44.5t39.5 -10.5q23 0 43 10t44 34t54 67z" />
    <glyph glyph-name="ograve" unicode="&#xf2;" horiz-adv-x="1038" 
d="M409 -17q-155 0 -240.5 87t-85.5 250q0 60 15 141q19 105 54 186q45 101 115.5 174.5t162 112t196.5 38.5q115 0 188.5 -44t106.5 -119.5t33 -174.5q0 -89 -25 -190q-36 -148 -105 -251t-173 -156.5t-242 -53.5zM258 277q0 -110 45.5 -162.5t137.5 -52.5q98 0 174 88
t120 246.5t44 278.5q0 108 -42 162.5t-131 54.5q-104 0 -181.5 -87t-122 -249t-44.5 -279zM648 1442l133 -328l-71 -44l-235 322l11 50h162z" />
    <glyph glyph-name="oacute" unicode="&#xf3;" horiz-adv-x="1038" 
d="M409 -17q-155 0 -240.5 87t-85.5 250q0 60 15 141q19 105 54 186q45 101 115.5 174.5t162 112t196.5 38.5q115 0 188.5 -44t106.5 -119.5t33 -174.5q0 -89 -25 -190q-36 -148 -105 -251t-173 -156.5t-242 -53.5zM258 277q0 -110 45.5 -162.5t137.5 -52.5q98 0 174 88
t120 246.5t44 278.5q0 108 -42 162.5t-131 54.5q-104 0 -181.5 -87t-122 -249t-44.5 -279zM982 1442l-11 -50l-374 -322l-62 60l263 312h184z" />
    <glyph glyph-name="ocircumflex" unicode="&#xf4;" horiz-adv-x="1038" 
d="M409 -17q-155 0 -240.5 87t-85.5 250q0 60 15 141q19 105 54 186q45 101 115.5 174.5t162 112t196.5 38.5q115 0 188.5 -44t106.5 -119.5t33 -174.5q0 -89 -25 -190q-36 -148 -105 -251t-173 -156.5t-242 -53.5zM258 277q0 -110 45.5 -162.5t137.5 -52.5q98 0 174 88
t120 246.5t44 278.5q0 108 -42 162.5t-131 54.5q-104 0 -181.5 -87t-122 -249t-44.5 -279zM799 1432l132 -337l-79 -35l-138 243h-10l-256 -243l-62 57l277 315h136z" />
    <glyph glyph-name="otilde" unicode="&#xf5;" horiz-adv-x="1038" 
d="M409 -17q-155 0 -240.5 87t-85.5 250q0 60 15 141q19 105 54 186q45 101 115.5 174.5t162 112t196.5 38.5q115 0 188.5 -44t106.5 -119.5t33 -174.5q0 -89 -25 -190q-36 -148 -105 -251t-173 -156.5t-242 -53.5zM258 277q0 -110 45.5 -162.5t137.5 -52.5q98 0 174 88
t120 246.5t44 278.5q0 108 -42 162.5t-131 54.5q-104 0 -181.5 -87t-122 -249t-44.5 -279zM951 1365l69 -48q-50 -75 -88.5 -116t-70.5 -57t-71 -16q-23 0 -42 6t-35.5 16t-49.5 38q-30 24 -43 33t-25 13.5t-25 4.5q-25 0 -45 -9.5t-44 -34.5t-54 -67l-70 47q61 87 93 122
t64.5 51.5t77.5 16.5q16 0 29.5 -3.5t26.5 -9.5t23 -13t39 -30q41 -34 60.5 -44.5t39.5 -10.5q23 0 43 10t44 34t54 67z" />
    <glyph glyph-name="odieresis" unicode="&#xf6;" horiz-adv-x="1038" 
d="M409 -17q-155 0 -240.5 87t-85.5 250q0 60 15 141q19 105 54 186q45 101 115.5 174.5t162 112t196.5 38.5q115 0 188.5 -44t106.5 -119.5t33 -174.5q0 -89 -25 -190q-36 -148 -105 -251t-173 -156.5t-242 -53.5zM258 277q0 -110 45.5 -162.5t137.5 -52.5q98 0 174 88
t120 246.5t44 278.5q0 108 -42 162.5t-131 54.5q-104 0 -181.5 -87t-122 -249t-44.5 -279zM952 1339l-38 -176h-165l38 176h165zM630 1339l-38 -176h-165l38 176h165z" />
    <glyph glyph-name="divide" unicode="&#xf7;" horiz-adv-x="1082" 
d="M633 1036q44 0 73.5 -30.5t29.5 -77.5t-29.5 -77.5t-73.5 -30.5t-73.5 30.5t-29.5 77.5t29.5 77.5t73.5 30.5zM137 518l30 135h826l-30 -135h-826zM489 349q44 0 73.5 -30.5t29.5 -77.5t-29.5 -77.5t-73.5 -30.5t-73.5 30.5t-29.5 77.5t29.5 77.5t73.5 30.5z" />
    <glyph glyph-name="oslash" unicode="&#xf8;" horiz-adv-x="1038" 
d="M145 97q-62 86 -62 223q0 60 15 141q19 105 54 186q45 101 115.5 174.5t162 112t196.5 38.5q112 0 190 -45l134 165h129l-188 -232q63 -86 63 -226q0 -89 -25 -190q-36 -148 -105 -251t-173 -156.5t-242 -53.5q-111 0 -190 46l-133 -164h-129zM256 230l484 603
q-41 59 -134 59q-105 0 -183.5 -87.5t-123 -249t-44.5 -278.5v-26q0 -12 1 -21zM779 727l-483 -603q44 -62 145 -62q71 0 130.5 46t105.5 133t75.5 212.5t29.5 221.5q0 29 -3 52z" />
    <glyph glyph-name="ugrave" unicode="&#xf9;" horiz-adv-x="1096" 
d="M153 956h315l-127 -509q-14 -56 -24.5 -111.5t-10.5 -101.5q0 -71 24.5 -102t76.5 -31q43 0 93 33.5t106 104t88.5 133.5t50.5 150l91 434h173l-152 -683q-6 -27 -14 -71t-8 -72q0 -42 23.5 -59.5t87.5 -21.5l-11 -49h-286l64 251l-13 4q-97 -138 -187.5 -204.5
t-182.5 -66.5q-97 0 -147 53.5t-50 158.5q0 30 5.5 70.5t15.5 84.5l84 355q10 44 13.5 70t3.5 44q0 45 -24 63t-86 23zM627 1442l133 -328l-71 -44l-235 322l11 50h162z" />
    <glyph glyph-name="uacute" unicode="&#xfa;" horiz-adv-x="1096" 
d="M153 956h315l-127 -509q-14 -56 -24.5 -111.5t-10.5 -101.5q0 -71 24.5 -102t76.5 -31q43 0 93 33.5t106 104t88.5 133.5t50.5 150l91 434h173l-152 -683q-6 -27 -14 -71t-8 -72q0 -42 23.5 -59.5t87.5 -21.5l-11 -49h-286l64 251l-13 4q-97 -138 -187.5 -204.5
t-182.5 -66.5q-97 0 -147 53.5t-50 158.5q0 30 5.5 70.5t15.5 84.5l84 355q10 44 13.5 70t3.5 44q0 45 -24 63t-86 23zM1011 1442l-11 -50l-374 -322l-62 60l263 312h184z" />
    <glyph glyph-name="ucircumflex" unicode="&#xfb;" horiz-adv-x="1096" 
d="M153 956h315l-127 -509q-14 -56 -24.5 -111.5t-10.5 -101.5q0 -71 24.5 -102t76.5 -31q43 0 93 33.5t106 104t88.5 133.5t50.5 150l91 434h173l-152 -683q-6 -27 -14 -71t-8 -72q0 -42 23.5 -59.5t87.5 -21.5l-11 -49h-286l64 251l-13 4q-97 -138 -187.5 -204.5
t-182.5 -66.5q-97 0 -147 53.5t-50 158.5q0 30 5.5 70.5t15.5 84.5l84 355q10 44 13.5 70t3.5 44q0 45 -24 63t-86 23zM828 1432l132 -337l-79 -35l-138 243h-10l-256 -243l-62 57l277 315h136z" />
    <glyph glyph-name="udieresis" unicode="&#xfc;" horiz-adv-x="1096" 
d="M153 956h315l-127 -509q-14 -56 -24.5 -111.5t-10.5 -101.5q0 -71 24.5 -102t76.5 -31q43 0 93 33.5t106 104t88.5 133.5t50.5 150l91 434h173l-152 -683q-6 -27 -14 -71t-8 -72q0 -42 23.5 -59.5t87.5 -21.5l-11 -49h-286l64 251l-13 4q-97 -138 -187.5 -204.5
t-182.5 -66.5q-97 0 -147 53.5t-50 158.5q0 30 5.5 70.5t15.5 84.5l84 355q10 44 13.5 70t3.5 44q0 45 -24 63t-86 23zM981 1339l-38 -176h-165l38 176h165zM659 1339l-38 -176h-165l38 176h165z" />
    <glyph glyph-name="yacute" unicode="&#xfd;" horiz-adv-x="942" 
d="M185 738q-10 76 -19 105.5t-29 45t-65 18.5l11 49h257l76 -795q338 462 338 662q0 47 -20 64t-68 20l10 49h258l27 -50q-53 -139 -135.5 -288t-202 -326t-265.5 -368q-112 -147 -188 -222q-59 -57 -108.5 -86.5t-96 -42t-98.5 -12.5q-27 0 -61 5.5t-58 14.5l43 187h78
q1 -34 16 -54t44 -20q32 0 55 6.5t48.5 21.5t62 48t82.5 87.5t103 131.5zM919 1442l-11 -50l-374 -322l-62 60l263 312h184z" />
    <glyph glyph-name="thorn" unicode="&#xfe;" horiz-adv-x="1067" 
d="M202 -177q-10 -48 -12.5 -74t-2.5 -43q0 -30 10 -47t31 -26t69 -14l-8 -49h-309l356 1573q6 25 14.5 72t8.5 76q0 42 -25.5 59t-91.5 19l12 52l253 9h58l-176 -700l13 -4q96 129 180.5 187.5t171.5 58.5q109 0 169.5 -83t60.5 -234q0 -108 -29.5 -217t-82 -197
t-117 -144.5t-136 -84.5t-150.5 -28q-133 0 -221 58zM322 348q-10 -53 -12.5 -81t-2.5 -55q0 -78 33.5 -113.5t115.5 -35.5q51 0 94 20t81.5 58t69.5 92t55.5 125.5t37 147t12.5 141.5q0 105 -29.5 156.5t-93.5 51.5q-51 0 -100.5 -34.5t-108.5 -110.5t-92 -150t-52 -170z
" />
    <glyph glyph-name="ydieresis" unicode="&#xff;" horiz-adv-x="942" 
d="M185 738q-10 76 -19 105.5t-29 45t-65 18.5l11 49h257l76 -795q338 462 338 662q0 47 -20 64t-68 20l10 49h258l27 -50q-53 -139 -135.5 -288t-202 -326t-265.5 -368q-112 -147 -188 -222q-59 -57 -108.5 -86.5t-96 -42t-98.5 -12.5q-27 0 -61 5.5t-58 14.5l43 187h78
q1 -34 16 -54t44 -20q32 0 55 6.5t48.5 21.5t62 48t82.5 87.5t103 131.5zM889 1339l-38 -176h-165l38 176h165zM567 1339l-38 -176h-165l38 176h165z" />
    <glyph glyph-name="Amacron" unicode="&#x100;" horiz-adv-x="1205" 
d="M678 0l11 49q45 4 70.5 26t36 61t10.5 103q0 39 -3 85l-7 129h-440l-55 -98q-39 -69 -57 -118.5t-18 -87.5q0 -84 101 -100l-11 -49h-409l11 49q31 4 58.5 24.5t58.5 62t87 137.5l641 1108h151l72 -1115q5 -79 18 -123.5t35.5 -66t65.5 -27.5l-11 -49h-416zM401 540h391
l-17 322q-3 66 -5 165t-2 143h-11zM1135 1538h-530l26 125h530z" />
    <glyph glyph-name="amacron" unicode="&#x101;" horiz-adv-x="1077" 
d="M834 907l92 66l64 -16l-153 -679q-14 -60 -19 -92.5t-5 -53.5q0 -41 23 -59.5t88 -23.5l-9 -49h-286l63 251l-13 4q-96 -140 -182 -205t-182 -65q-110 0 -170.5 83t-60.5 233q0 96 22 192.5t66.5 183t106.5 152.5t143.5 105t177.5 39q62 0 118 -14.5t116 -51.5zM746 609
q9 41 12 71t3 65q0 78 -33 113.5t-110 35.5q-42 0 -80 -13.5t-77 -45t-74.5 -82.5t-64.5 -124t-45 -156.5t-16 -162.5q0 -104 28.5 -155.5t95.5 -51.5q31 0 64.5 14t74.5 51.5t93 110.5q47 67 74.5 132.5t45.5 154.5zM946 1188h-501l26 125h501z" />
    <glyph glyph-name="Abreve" unicode="&#x102;" horiz-adv-x="1205" 
d="M678 0l11 49q45 4 70.5 26t36 61t10.5 103q0 39 -3 85l-7 129h-440l-55 -98q-39 -69 -57 -118.5t-18 -87.5q0 -84 101 -100l-11 -49h-409l11 49q31 4 58.5 24.5t58.5 62t87 137.5l641 1108h151l72 -1115q5 -79 18 -123.5t35.5 -66t65.5 -27.5l-11 -49h-416zM401 540h391
l-17 322q-3 66 -5 165t-2 143h-11zM1217 1748q-61 -93 -118 -149t-118 -81.5t-146 -25.5q-72 0 -120.5 37.5t-72 103.5t-23.5 150l81 15q8 -92 47.5 -135.5t111.5 -43.5q58 0 101.5 14.5t89 52t96.5 104.5z" />
    <glyph glyph-name="abreve" unicode="&#x103;" horiz-adv-x="1077" 
d="M834 907l92 66l64 -16l-153 -679q-14 -60 -19 -92.5t-5 -53.5q0 -41 23 -59.5t88 -23.5l-9 -49h-286l63 251l-13 4q-96 -140 -182 -205t-182 -65q-110 0 -170.5 83t-60.5 233q0 96 22 192.5t66.5 183t106.5 152.5t143.5 105t177.5 39q62 0 118 -14.5t116 -51.5zM746 609
q9 41 12 71t3 65q0 78 -33 113.5t-110 35.5q-42 0 -80 -13.5t-77 -45t-74.5 -82.5t-64.5 -124t-45 -156.5t-16 -162.5q0 -104 28.5 -155.5t95.5 -51.5q31 0 64.5 14t74.5 51.5t93 110.5q47 67 74.5 132.5t45.5 154.5zM1030 1369q-58 -98 -116.5 -153.5t-119 -79
t-136.5 -23.5q-101 0 -156 76.5t-55 215.5l81 15q12 -180 153 -180q58 0 100.5 15t85.5 51.5t92 104.5z" />
    <glyph glyph-name="Aogonek" unicode="&#x104;" horiz-adv-x="1205" 
d="M987 0q-111 -85 -155.5 -144t-44.5 -111q0 -48 20 -66.5t62 -18.5q33 0 61.5 10.5t50.5 23.5l16 -68q-36 -25 -83 -40.5t-86 -15.5q-87 0 -130 38.5t-43 118.5q0 66 60.5 136t175.5 137h-213l11 49q45 4 70.5 26t36 61t10.5 103q0 39 -3 85l-7 129h-440l-55 -98
q-39 -69 -57 -118.5t-18 -87.5q0 -84 101 -100l-11 -49h-409l11 49q31 4 58.5 24.5t58.5 62t87 137.5l641 1108h151l72 -1115q5 -79 18 -123.5t35.5 -66t65.5 -27.5l-11 -49h-107zM401 540h391l-17 322q-3 66 -5 165t-2 143h-11z" />
    <glyph glyph-name="aogonek" unicode="&#x105;" horiz-adv-x="1077" 
d="M834 907l92 66l64 -16l-153 -679q-14 -60 -19 -92.5t-5 -53.5q0 -41 23 -59.5t88 -23.5l-9 -49h-86q-111 -85 -155.5 -144t-44.5 -111q0 -48 20 -66.5t62 -18.5q33 0 61.5 10.5t50.5 23.5l16 -68q-36 -25 -83 -40.5t-86 -15.5q-87 0 -130 38.5t-43 118.5q0 66 60.5 136
t175.5 137h-104l63 251l-13 4q-96 -140 -182 -205t-182 -65q-110 0 -170.5 83t-60.5 233q0 96 22 192.5t66.5 183t106.5 152.5t143.5 105t177.5 39q62 0 118 -14.5t116 -51.5zM746 609q9 41 12 71t3 65q0 78 -33 113.5t-110 35.5q-42 0 -80 -13.5t-77 -45t-74.5 -82.5
t-64.5 -124t-45 -156.5t-16 -162.5q0 -104 28.5 -155.5t95.5 -51.5q31 0 64.5 14t74.5 51.5t93 110.5q47 67 74.5 132.5t45.5 154.5z" />
    <glyph glyph-name="Cacute" unicode="&#x106;" horiz-adv-x="1105" 
d="M1184 1330l-60 -271h-96q-8 123 -53.5 177.5t-146.5 54.5q-84 0 -158 -49.5t-140 -143t-115 -219t-75 -256t-26 -235.5q0 -163 53.5 -239.5t167.5 -76.5q75 0 131 22.5t105 76t97 149.5h96l-61 -284q-102 -28 -197 -40t-195 -12q-124 0 -211 51.5t-131 149t-44 234.5
q0 72 10 140q12 84 38 183q33 123 83 224q54 107 123 189q65 76 141 127q70 47 151 73t172 26t168.5 -11t172.5 -40zM1182 1782l-11 -50l-425 -268l-50 71l268 247h218z" />
    <glyph glyph-name="cacute" unicode="&#x107;" horiz-adv-x="887" 
d="M735 716q-2 76 -12.5 110t-34 51t-66.5 17q-101 0 -181.5 -80.5t-131.5 -228t-51 -283.5q0 -42 7.5 -79t26 -64t49 -42.5t77.5 -15.5q91 0 157.5 34.5t140.5 108.5l61 -61q-94 -104 -189.5 -152t-205.5 -48q-145 0 -220 86t-75 250q0 107 40 235t117 225t180 145t220 48
q80 0 139.5 -9t105.5 -21l-49 -226h-105zM939 1442l-11 -50l-374 -322l-62 60l263 312h184z" />
    <glyph glyph-name="Ccircumflex" unicode="&#x108;" horiz-adv-x="1105" 
d="M1184 1330l-60 -271h-96q-8 123 -53.5 177.5t-146.5 54.5q-84 0 -158 -49.5t-140 -143t-115 -219t-75 -256t-26 -235.5q0 -163 53.5 -239.5t167.5 -76.5q75 0 131 22.5t105 76t97 149.5h96l-61 -284q-102 -28 -197 -40t-195 -12q-124 0 -211 51.5t-131 149t-44 234.5
q0 72 10 140q12 84 38 183q33 123 83 224q54 107 123 189q65 76 141 127q70 47 151 73t172 26t168.5 -11t172.5 -40zM972 1780l161 -261l-66 -50l-180 182h-10l-263 -183l-52 62l274 250h136z" />
    <glyph glyph-name="ccircumflex" unicode="&#x109;" horiz-adv-x="887" 
d="M735 716q-2 76 -12.5 110t-34 51t-66.5 17q-101 0 -181.5 -80.5t-131.5 -228t-51 -283.5q0 -42 7.5 -79t26 -64t49 -42.5t77.5 -15.5q91 0 157.5 34.5t140.5 108.5l61 -61q-94 -104 -189.5 -152t-205.5 -48q-145 0 -220 86t-75 250q0 107 40 235t117 225t180 145t220 48
q80 0 139.5 -9t105.5 -21l-49 -226h-105zM746 1432l132 -337l-79 -35l-138 243h-10l-256 -243l-62 57l277 315h136z" />
    <glyph glyph-name="Cdotaccent" unicode="&#x10a;" horiz-adv-x="1105" 
d="M1184 1330l-60 -271h-96q-8 123 -53.5 177.5t-146.5 54.5q-84 0 -158 -49.5t-140 -143t-115 -219t-75 -256t-26 -235.5q0 -163 53.5 -239.5t167.5 -76.5q75 0 131 22.5t105 76t97 149.5h96l-61 -284q-102 -28 -197 -40t-195 -12q-124 0 -211 51.5t-131 149t-44 234.5
q0 72 10 140q12 84 38 183q33 123 83 224q54 107 123 189q65 76 141 127q70 47 151 73t172 26t168.5 -11t172.5 -40zM977 1699l-46 -194h-177l46 194h177z" />
    <glyph glyph-name="cdotaccent" unicode="&#x10b;" horiz-adv-x="887" 
d="M735 716q-2 76 -12.5 110t-34 51t-66.5 17q-101 0 -181.5 -80.5t-131.5 -228t-51 -283.5q0 -42 7.5 -79t26 -64t49 -42.5t77.5 -15.5q91 0 157.5 34.5t140.5 108.5l61 -61q-94 -104 -189.5 -152t-205.5 -48q-145 0 -220 86t-75 250q0 107 40 235t117 225t180 145t220 48
q80 0 139.5 -9t105.5 -21l-49 -226h-105zM747 1348l-46 -194h-177l46 194h177z" />
    <glyph glyph-name="Ccaron" unicode="&#x10c;" horiz-adv-x="1105" 
d="M1184 1330l-60 -271h-96q-8 123 -53.5 177.5t-146.5 54.5q-84 0 -158 -49.5t-140 -143t-115 -219t-75 -256t-26 -235.5q0 -163 53.5 -239.5t167.5 -76.5q75 0 131 22.5t105 76t97 149.5h96l-61 -284q-102 -28 -197 -40t-195 -12q-124 0 -211 51.5t-131 149t-44 234.5
q0 72 10 140q12 84 38 183q33 123 83 224q54 107 123 189q65 76 141 127q70 47 151 73t172 26t168.5 -11t172.5 -40zM767 1468l-161 261l66 50l180 -182h10l263 183l52 -62l-274 -250h-136z" />
    <glyph glyph-name="ccaron" unicode="&#x10d;" horiz-adv-x="887" 
d="M735 716q-2 76 -12.5 110t-34 51t-66.5 17q-101 0 -181.5 -80.5t-131.5 -228t-51 -283.5q0 -42 7.5 -79t26 -64t49 -42.5t77.5 -15.5q91 0 157.5 34.5t140.5 108.5l61 -61q-94 -104 -189.5 -152t-205.5 -48q-145 0 -220 86t-75 250q0 107 40 235t117 225t180 145t220 48
q80 0 139.5 -9t105.5 -21l-49 -226h-105zM539 1080l-132 335l78 37l138 -243h10l256 243l63 -57l-278 -315h-135z" />
    <glyph glyph-name="Dcaron" unicode="&#x10e;" horiz-adv-x="1324" 
d="M683 1365q151 0 245 -23t175.5 -83t122.5 -159.5t41 -235.5q0 -135 -31 -258t-89 -226.5t-139 -180t-157 -117.5t-170 -61.5t-219 -20.5h-420l11 49q38 6 57 19.5t32 37.5t24 58.5t33 133.5l170 770q10 46 16 88.5t6 72.5q0 47 -24 65.5t-74 21.5l11 49h379zM332 92
q29 -3 111 -3q101 0 183.5 22t152 70.5t126.5 129.5t92.5 164.5t55.5 179.5t20 203q0 209 -97.5 314.5t-289.5 105.5q-44 0 -95 -3zM797 1468l-161 261l66 50l180 -182h10l263 183l52 -62l-274 -250h-136z" />
    <glyph glyph-name="dcaron" unicode="&#x10f;" horiz-adv-x="1305" 
d="M870 1148q8 33 14 73t6 70t-11 45.5t-31.5 22.5t-73.5 10l12 52l251 9h59l-259 -1152q-14 -63 -19 -94t-5 -52q0 -41 23 -59.5t88 -23.5l-9 -49h-286l63 251l-13 4q-96 -140 -182 -205t-182 -65q-110 0 -170.5 83t-60.5 233q0 96 22 192.5t66.5 183t106.5 152.5
t143.5 105t177.5 39q61 0 112.5 -12.5t105.5 -43.5zM746 609q15 72 15 136q0 78 -33 113.5t-110 35.5q-42 0 -80 -13.5t-77 -45t-74.5 -82.5t-64.5 -124t-45 -156.5t-16 -162.5q0 -104 28.5 -155.5t95.5 -51.5q31 0 64.5 14t74.5 51.5t93 110.5q47 67 74.5 132.5t45.5 154.5
zM1452 1431q2 -10 2 -49q0 -70 -14.5 -121t-43 -92t-73 -81t-132.5 -105l-47 62q77 63 115.5 155t38.5 231h154z" />
    <glyph glyph-name="Dcroat" unicode="&#x110;" horiz-adv-x="1330" 
d="M122 761h185l68 307q10 45 16 88t6 73q0 47 -24 65.5t-74 21.5l11 49h379q151 0 245 -23t175.5 -83t122.5 -159.5t41 -235.5q0 -135 -31 -258t-89 -226.5t-139 -180t-157 -117.5t-170 -61.5t-219 -20.5h-420l11 49q38 6 57 19.5t32 37.5t24 58.5t33 133.5l82 371h-185z
M484 761h304l-20 -92h-304l-126 -577q29 -3 111 -3q101 0 183.5 22t152 70.5t126.5 129.5t92.5 164.5t55.5 179.5t20 203q0 209 -97.5 314.5t-289.5 105.5q-44 0 -95 -3z" />
    <glyph glyph-name="dcroat" unicode="&#x111;" horiz-adv-x="1073" 
d="M565 1218h318q7 36 7 74q0 30 -11 45.5t-31.5 22.5t-73.5 10l12 52l251 9h59l-48 -213h139l-19 -88h-140l-191 -852q-13 -59 -18.5 -91t-5.5 -55q0 -41 23 -59.5t88 -23.5l-9 -49h-286l63 251l-13 4q-96 -140 -182 -205t-182 -65q-110 0 -170.5 83t-60.5 233
q0 96 22 192.5t66.5 183t106.5 152.5t143.5 105t177.5 39q61 0 112.5 -12.5t105.5 -43.5l47 213h-319zM746 609q15 72 15 136q0 78 -33 113.5t-110 35.5q-42 0 -80 -13.5t-77 -45t-74.5 -82.5t-64.5 -124t-45 -156.5t-16 -162.5q0 -104 28.5 -155.5t95.5 -51.5q31 0 64.5 14
t74.5 51.5t93 110.5q47 67 74.5 132.5t45.5 154.5z" />
    <glyph glyph-name="Emacron" unicode="&#x112;" horiz-adv-x="1164" 
d="M1224 1365l-69 -307h-96q-3 72 -11 112.5t-18 60t-23 29t-32.5 13.5t-55.5 4h-326l-114 -524h191q44 0 73.5 12t54.5 41.5t56 90.5h91l-90 -384h-85q0 55 -4 81t-10.5 38.5t-16.5 19.5t-26 10t-53 3h-200l-128 -577h296q44 0 74.5 6.5t55.5 22.5t48 41.5t47.5 65.5
t66.5 122h97l-88 -346h-887l11 49q38 6 57 19.5t32 37.5t24 58.5t33 133.5l170 770q22 100 22 161q0 47 -24 65.5t-74 21.5l11 49h920zM1101 1538h-530l26 125h530z" />
    <glyph glyph-name="emacron" unicode="&#x113;" horiz-adv-x="936" 
d="M814 199q-74 -81 -142 -128t-136 -67t-150 -20q-79 0 -136 25.5t-94.5 70t-55.5 106t-18 133.5q0 107 38.5 229.5t116.5 220t187 151t232 53.5q121 0 181.5 -49t60.5 -153q0 -170 -159.5 -255t-473.5 -85q-12 -60 -12 -130q0 -105 41 -152.5t134 -47.5q92 0 167 40
t157 123zM282 516q92 1 161.5 10.5t119.5 26t83 39.5t52.5 50.5t27 58t7.5 63.5q0 61 -28.5 95.5t-84.5 34.5q-70 0 -137.5 -50.5t-119 -136t-81.5 -191.5zM910 1188h-501l26 125h501z" />
    <glyph glyph-name="Ebreve" unicode="&#x114;" horiz-adv-x="1164" 
d="M1224 1365l-69 -307h-96q-3 72 -11 112.5t-18 60t-23 29t-32.5 13.5t-55.5 4h-326l-114 -524h191q44 0 73.5 12t54.5 41.5t56 90.5h91l-90 -384h-85q0 55 -4 81t-10.5 38.5t-16.5 19.5t-26 10t-53 3h-200l-128 -577h296q44 0 74.5 6.5t55.5 22.5t48 41.5t47.5 65.5
t66.5 122h97l-88 -346h-887l11 49q38 6 57 19.5t32 37.5t24 58.5t33 133.5l170 770q22 100 22 161q0 47 -24 65.5t-74 21.5l11 49h920zM1183 1748q-61 -93 -118 -149t-118 -81.5t-146 -25.5q-72 0 -120.5 37.5t-72 103.5t-23.5 150l81 15q8 -92 47.5 -135.5t111.5 -43.5
q58 0 101.5 14.5t89 52t96.5 104.5z" />
    <glyph glyph-name="ebreve" unicode="&#x115;" horiz-adv-x="936" 
d="M814 199q-74 -81 -142 -128t-136 -67t-150 -20q-79 0 -136 25.5t-94.5 70t-55.5 106t-18 133.5q0 107 38.5 229.5t116.5 220t187 151t232 53.5q121 0 181.5 -49t60.5 -153q0 -170 -159.5 -255t-473.5 -85q-12 -60 -12 -130q0 -105 41 -152.5t134 -47.5q92 0 167 40
t157 123zM282 516q92 1 161.5 10.5t119.5 26t83 39.5t52.5 50.5t27 58t7.5 63.5q0 61 -28.5 95.5t-84.5 34.5q-70 0 -137.5 -50.5t-119 -136t-81.5 -191.5zM994 1369q-58 -98 -116.5 -153.5t-119 -79t-136.5 -23.5q-101 0 -156 76.5t-55 215.5l81 15q12 -180 153 -180
q58 0 100.5 15t85.5 51.5t92 104.5z" />
    <glyph glyph-name="Edotaccent" unicode="&#x116;" horiz-adv-x="1164" 
d="M1224 1365l-69 -307h-96q-3 72 -11 112.5t-18 60t-23 29t-32.5 13.5t-55.5 4h-326l-114 -524h191q44 0 73.5 12t54.5 41.5t56 90.5h91l-90 -384h-85q0 55 -4 81t-10.5 38.5t-16.5 19.5t-26 10t-53 3h-200l-128 -577h296q44 0 74.5 6.5t55.5 22.5t48 41.5t47.5 65.5
t66.5 122h97l-88 -346h-887l11 49q38 6 57 19.5t32 37.5t24 58.5t33 133.5l170 770q22 100 22 161q0 47 -24 65.5t-74 21.5l11 49h920zM951 1699l-46 -194h-177l46 194h177z" />
    <glyph glyph-name="edotaccent" unicode="&#x117;" horiz-adv-x="936" 
d="M814 199q-74 -81 -142 -128t-136 -67t-150 -20q-79 0 -136 25.5t-94.5 70t-55.5 106t-18 133.5q0 107 38.5 229.5t116.5 220t187 151t232 53.5q121 0 181.5 -49t60.5 -153q0 -170 -159.5 -255t-473.5 -85q-12 -60 -12 -130q0 -105 41 -152.5t134 -47.5q92 0 167 40
t157 123zM282 516q92 1 161.5 10.5t119.5 26t83 39.5t52.5 50.5t27 58t7.5 63.5q0 61 -28.5 95.5t-84.5 34.5q-70 0 -137.5 -50.5t-119 -136t-81.5 -191.5zM783 1348l-46 -194h-177l46 194h177z" />
    <glyph glyph-name="Eogonek" unicode="&#x118;" horiz-adv-x="1164" 
d="M1224 1365l-69 -307h-96q-3 72 -11 112.5t-18 60t-23 29t-32.5 13.5t-55.5 4h-326l-114 -524h191q44 0 73.5 12t54.5 41.5t56 90.5h91l-90 -384h-85q0 55 -4 81t-10.5 38.5t-16.5 19.5t-26 10t-53 3h-200l-128 -577h296q44 0 74.5 6.5t55.5 22.5t48 41.5t47.5 65.5
t66.5 122h97l-88 -346h-80q-111 -85 -155.5 -144t-44.5 -111q0 -48 20 -66.5t62 -18.5q33 0 61.5 10.5t50.5 23.5l16 -68q-36 -25 -83 -40.5t-86 -15.5q-87 0 -130 38.5t-43 118.5q0 66 60.5 136t175.5 137h-711l11 49q38 6 57 19.5t32 37.5t24 58.5t33 133.5l170 770
q22 100 22 161q0 47 -24 65.5t-74 21.5l11 49h920z" />
    <glyph glyph-name="eogonek" unicode="&#x119;" horiz-adv-x="936" 
d="M814 199q-63 -68 -126 -118q-53 -42 -96.5 -83.5t-74.5 -80.5t-48 -70.5t-23.5 -53.5t-6.5 -43q0 -29 6.5 -48t24.5 -30.5t51 -11.5t61.5 10.5t50.5 23.5l16 -68q-36 -25 -83 -40.5t-86 -15.5q-87 0 -130 38.5t-43 118.5q0 64 50.5 133.5t144.5 136.5q-61 -13 -116 -13
q-79 0 -136 25.5t-94.5 70t-55.5 106t-18 133.5q0 107 38.5 229.5t116.5 220t187 151t232 53.5q121 0 181.5 -49t60.5 -153q0 -170 -159.5 -255t-473.5 -85q-12 -60 -12 -130q0 -105 41 -152.5t134 -47.5q92 0 167 40t157 123zM282 516q92 1 161.5 10.5t119.5 26t83 39.5
t52.5 50.5t27 58t7.5 63.5q0 61 -28.5 95.5t-84.5 34.5q-70 0 -137.5 -50.5t-119 -136t-81.5 -191.5z" />
    <glyph glyph-name="Ecaron" unicode="&#x11a;" horiz-adv-x="1164" 
d="M1224 1365l-69 -307h-96q-3 72 -11 112.5t-18 60t-23 29t-32.5 13.5t-55.5 4h-326l-114 -524h191q44 0 73.5 12t54.5 41.5t56 90.5h91l-90 -384h-85q0 55 -4 81t-10.5 38.5t-16.5 19.5t-26 10t-53 3h-200l-128 -577h296q44 0 74.5 6.5t55.5 22.5t48 41.5t47.5 65.5
t66.5 122h97l-88 -346h-887l11 49q38 6 57 19.5t32 37.5t24 58.5t33 133.5l170 770q22 100 22 161q0 47 -24 65.5t-74 21.5l11 49h920zM742 1468l-161 261l66 50l180 -182h10l263 183l52 -62l-274 -250h-136z" />
    <glyph glyph-name="ecaron" unicode="&#x11b;" horiz-adv-x="936" 
d="M814 199q-74 -81 -142 -128t-136 -67t-150 -20q-79 0 -136 25.5t-94.5 70t-55.5 106t-18 133.5q0 107 38.5 229.5t116.5 220t187 151t232 53.5q121 0 181.5 -49t60.5 -153q0 -170 -159.5 -255t-473.5 -85q-12 -60 -12 -130q0 -105 41 -152.5t134 -47.5q92 0 167 40
t157 123zM282 516q92 1 161.5 10.5t119.5 26t83 39.5t52.5 50.5t27 58t7.5 63.5q0 61 -28.5 95.5t-84.5 34.5q-70 0 -137.5 -50.5t-119 -136t-81.5 -191.5zM566 1080l-132 335l78 37l138 -243h10l256 243l63 -57l-278 -315h-135z" />
    <glyph glyph-name="Gcircumflex" unicode="&#x11c;" horiz-adv-x="1198" 
d="M816 320q22 94 22 161q0 47 -24 65.5t-74 21.5l11 49h400l-11 -49q-34 -8 -48.5 -15t-25.5 -19.5t-22 -34.5t-22.5 -63.5t-27.5 -116.5l-69 -314l-79 -22l-52 79q-72 -34 -112 -48t-83 -22t-91 -8q-123 0 -209.5 52t-130 148.5t-43.5 228.5q0 107 22 219q25 127 67 237
q40 106 92.5 189.5t117.5 148.5q57 56 125 95t143 59t158 20q95 0 174 -11.5t173 -41.5l-61 -269h-96q-7 87 -29.5 137.5t-65 73.5t-110.5 23q-84 0 -155 -44.5t-136.5 -130.5t-119 -217t-82 -267t-28.5 -246q0 -162 53.5 -239.5t164.5 -77.5q41 0 84 9.5t80.5 32.5t66.5 62
t42 98zM959 1780l161 -261l-66 -50l-180 182h-10l-263 -183l-52 62l274 250h136z" />
    <glyph glyph-name="gcircumflex" unicode="&#x11d;" horiz-adv-x="1070" 
d="M102 -86q-19 -23 -32 -45.5t-18.5 -43.5t-5.5 -50q0 -75 54 -109.5t163 -34.5q99 0 165 35t112 107.5t80.5 179t70.5 284.5l-14 3q-97 -133 -180 -194t-179 -61q-109 0 -169.5 82t-60.5 234q0 111 29 219t81 195t117.5 144.5t138.5 85.5t152 28q63 0 119 -15t113 -51
l92 66l64 -16l-104 -469q-11 -50 -23 -113l-26 -131q-47 -236 -75 -325q-34 -103 -80 -172q-43 -63 -102 -105.5t-136.5 -65.5t-182.5 -23q-378 0 -378 220q0 56 34 102t109 97zM389 103q51 0 101.5 35t108 111t89.5 145t54.5 172t22.5 179q0 78 -33 113.5t-110 35.5
q-42 0 -80 -13.5t-77 -45t-74.5 -82.5t-64.5 -124t-45 -156.5t-16 -162.5q0 -104 30 -155.5t94 -51.5zM815 1432l132 -337l-79 -35l-138 243h-10l-256 -243l-62 57l277 315h136z" />
    <glyph glyph-name="Gbreve" unicode="&#x11e;" horiz-adv-x="1198" 
d="M816 320q22 94 22 161q0 47 -24 65.5t-74 21.5l11 49h400l-11 -49q-34 -8 -48.5 -15t-25.5 -19.5t-22 -34.5t-22.5 -63.5t-27.5 -116.5l-69 -314l-79 -22l-52 79q-72 -34 -112 -48t-83 -22t-91 -8q-123 0 -209.5 52t-130 148.5t-43.5 228.5q0 107 22 219q25 127 67 237
q40 106 92.5 189.5t117.5 148.5q57 56 125 95t143 59t158 20q95 0 174 -11.5t173 -41.5l-61 -269h-96q-7 87 -29.5 137.5t-65 73.5t-110.5 23q-84 0 -155 -44.5t-136.5 -130.5t-119 -217t-82 -267t-28.5 -246q0 -162 53.5 -239.5t164.5 -77.5q41 0 84 9.5t80.5 32.5t66.5 62
t42 98zM1186 1748q-61 -93 -118 -149t-118 -81.5t-146 -25.5q-72 0 -120.5 37.5t-72 103.5t-23.5 150l81 15q8 -92 47.5 -135.5t111.5 -43.5q58 0 101.5 14.5t89 52t96.5 104.5z" />
    <glyph glyph-name="gbreve" unicode="&#x11f;" horiz-adv-x="1070" 
d="M102 -86q-19 -23 -32 -45.5t-18.5 -43.5t-5.5 -50q0 -75 54 -109.5t163 -34.5q99 0 165 35t112 107.5t80.5 179t70.5 284.5l-14 3q-97 -133 -180 -194t-179 -61q-109 0 -169.5 82t-60.5 234q0 111 29 219t81 195t117.5 144.5t138.5 85.5t152 28q63 0 119 -15t113 -51
l92 66l64 -16l-104 -469q-11 -50 -23 -113l-26 -131q-47 -236 -75 -325q-34 -103 -80 -172q-43 -63 -102 -105.5t-136.5 -65.5t-182.5 -23q-378 0 -378 220q0 56 34 102t109 97zM389 103q51 0 101.5 35t108 111t89.5 145t54.5 172t22.5 179q0 78 -33 113.5t-110 35.5
q-42 0 -80 -13.5t-77 -45t-74.5 -82.5t-64.5 -124t-45 -156.5t-16 -162.5q0 -104 30 -155.5t94 -51.5zM1026 1369q-58 -98 -116.5 -153.5t-119 -79t-136.5 -23.5q-101 0 -156 76.5t-55 215.5l81 15q12 -180 153 -180q58 0 100.5 15t85.5 51.5t92 104.5z" />
    <glyph glyph-name="Gdotaccent" unicode="&#x120;" horiz-adv-x="1198" 
d="M816 320q22 94 22 161q0 47 -24 65.5t-74 21.5l11 49h400l-11 -49q-34 -8 -48.5 -15t-25.5 -19.5t-22 -34.5t-22.5 -63.5t-27.5 -116.5l-69 -314l-79 -22l-52 79q-72 -34 -112 -48t-83 -22t-91 -8q-123 0 -209.5 52t-130 148.5t-43.5 228.5q0 107 22 219q25 127 67 237
q40 106 92.5 189.5t117.5 148.5q57 56 125 95t143 59t158 20q95 0 174 -11.5t173 -41.5l-61 -269h-96q-7 87 -29.5 137.5t-65 73.5t-110.5 23q-84 0 -155 -44.5t-136.5 -130.5t-119 -217t-82 -267t-28.5 -246q0 -162 53.5 -239.5t164.5 -77.5q41 0 84 9.5t80.5 32.5t66.5 62
t42 98zM963 1699l-46 -194h-177l46 194h177z" />
    <glyph glyph-name="gdotaccent" unicode="&#x121;" horiz-adv-x="1070" 
d="M102 -86q-19 -23 -32 -45.5t-18.5 -43.5t-5.5 -50q0 -75 54 -109.5t163 -34.5q99 0 165 35t112 107.5t80.5 179t70.5 284.5l-14 3q-97 -133 -180 -194t-179 -61q-109 0 -169.5 82t-60.5 234q0 111 29 219t81 195t117.5 144.5t138.5 85.5t152 28q63 0 119 -15t113 -51
l92 66l64 -16l-104 -469q-11 -50 -23 -113l-26 -131q-47 -236 -75 -325q-34 -103 -80 -172q-43 -63 -102 -105.5t-136.5 -65.5t-182.5 -23q-378 0 -378 220q0 56 34 102t109 97zM389 103q51 0 101.5 35t108 111t89.5 145t54.5 172t22.5 179q0 78 -33 113.5t-110 35.5
q-42 0 -80 -13.5t-77 -45t-74.5 -82.5t-64.5 -124t-45 -156.5t-16 -162.5q0 -104 30 -155.5t94 -51.5zM817 1348l-46 -194h-177l46 194h177z" />
    <glyph glyph-name="uni0122" unicode="&#x122;" horiz-adv-x="1198" 
d="M816 320q22 94 22 161q0 47 -24 65.5t-74 21.5l11 49h400l-11 -49q-34 -8 -48.5 -15t-25.5 -19.5t-22 -34.5t-22.5 -63.5t-27.5 -116.5l-69 -314l-79 -22l-52 79q-72 -34 -112 -48t-83 -22t-91 -8q-123 0 -209.5 52t-130 148.5t-43.5 228.5q0 107 22 219q25 127 67 237
q40 106 92.5 189.5t117.5 148.5q57 56 125 95t143 59t158 20q95 0 174 -11.5t173 -41.5l-61 -269h-96q-7 87 -29.5 137.5t-65 73.5t-110.5 23q-84 0 -155 -44.5t-136.5 -130.5t-119 -217t-82 -267t-28.5 -246q0 -162 53.5 -239.5t164.5 -77.5q41 0 84 9.5t80.5 32.5t66.5 62
t42 98zM584 -99q1 -8 1 -16v-15q0 -131 -93 -209t-266 -91v76q77 6 124 38.5t67.5 83.5t22.5 133h144z" />
    <glyph glyph-name="uni0123" unicode="&#x123;" horiz-adv-x="1070" 
d="M102 -86q-19 -23 -32 -45.5t-18.5 -43.5t-5.5 -50q0 -75 54 -109.5t163 -34.5q99 0 165 35t112 107.5t80.5 179t70.5 284.5l-14 3q-97 -133 -180 -194t-179 -61q-109 0 -169.5 82t-60.5 234q0 111 29 219t81 195t117.5 144.5t138.5 85.5t152 28q63 0 119 -15t113 -51
l92 66l64 -16l-104 -469q-11 -50 -23 -113l-26 -131q-47 -236 -75 -325q-34 -103 -80 -172q-43 -63 -102 -105.5t-136.5 -65.5t-182.5 -23q-378 0 -378 220q0 56 34 102t109 97zM389 103q51 0 101.5 35t108 111t89.5 145t54.5 172t22.5 179q0 78 -33 113.5t-110 35.5
q-42 0 -80 -13.5t-77 -45t-74.5 -82.5t-64.5 -124t-45 -156.5t-16 -162.5q0 -104 30 -155.5t94 -51.5zM574 1089q-3 27 -3 52q0 70 24.5 123t77 104.5t177.5 136.5l44 -64q-65 -45 -100.5 -92.5t-49.5 -101t-14 -134.5z" />
    <glyph glyph-name="Hcircumflex" unicode="&#x124;" horiz-adv-x="1370" 
d="M1091 291q-13 -59 -17 -93.5t-4 -62.5q0 -45 22.5 -63.5t75.5 -22.5l-11 -49h-400l11 49q38 6 57 19.5t32 37.5t24 58.5t33 133.5l82 371h-537l-83 -378q-8 -37 -12.5 -60.5t-6.5 -46t-2 -49.5q0 -43 20 -62t78 -24l-11 -49h-400l11 49q38 6 57 19.5t32 37.5t24 58.5
t33 133.5l170 770q9 41 15.5 87.5t6.5 73.5q0 47 -24 65.5t-74 21.5l11 49h400l-11 -49q-38 -8 -54.5 -18t-30 -30t-27 -62.5t-34.5 -138.5l-68 -306h537l68 307q9 41 15.5 87.5t6.5 73.5q0 47 -24 65.5t-74 21.5l11 49h400l-11 -49q-34 -8 -48 -15t-25.5 -19t-22 -34.5
t-22.5 -66t-28 -114.5zM1040 1780l161 -261l-66 -50l-180 182h-10l-263 -183l-52 62l274 250h136z" />
    <glyph glyph-name="hcircumflex" unicode="&#x125;" horiz-adv-x="1086" 
d="M933 0h-314l126 508q14 55 24.5 111.5t10.5 102.5q0 72 -24 102.5t-81 30.5q-41 0 -90.5 -34t-104.5 -103.5t-87.5 -133t-51.5 -151.5l-91 -433h-173l257 1143q11 50 15.5 72.5t6.5 41.5t2 34q0 42 -25.5 59t-91.5 19l12 52l253 9h58l-172 -693l12 -4q94 125 179 182
t173 57q97 0 147 -53.5t50 -158.5q0 -64 -20 -154l-84 -356q-10 -43 -14 -69t-4 -45q0 -31 10.5 -48t32 -25.5t68.5 -13.5zM896 1795l161 -261l-66 -50l-180 182h-10l-263 -183l-52 62l274 250h136z" />
    <glyph glyph-name="Hbar" unicode="&#x126;" horiz-adv-x="1379" 
d="M1100 291q-13 -59 -17 -93.5t-4 -62.5q0 -45 22.5 -63.5t75.5 -22.5l-11 -49h-400l11 49q38 6 57 19.5t32 37.5t24 58.5t33 133.5l46 206h-546l-47 -213q-11 -49 -16 -82t-5 -74q0 -43 20 -62t78 -24l-11 -49h-400l11 49q38 6 57 19.5t32 37.5t24 58.5t33 133.5l170 770
q9 41 15.5 87.5t6.5 73.5q0 47 -24 65.5t-74 21.5l11 49h400l-11 -49q-38 -8 -54.5 -18t-30 -30t-27 -62.5t-34.5 -138.5l-31 -141h545l32 142q8 37 15 85t7 76q0 47 -24 65.5t-74 21.5l11 49h400l-11 -49q-38 -8 -54.5 -18t-30 -30t-27 -62.5t-34.5 -138.5zM989 596l52 238
h-546l-52 -238h546z" />
    <glyph glyph-name="hbar" unicode="&#x127;" horiz-adv-x="1086" 
d="M213 1218h137q8 39 8 73q0 42 -25.5 59t-91.5 19l12 52l253 9h58l-53 -212h324l-19 -88h-327l-97 -393l12 -4q94 125 179 182t173 57q97 0 147 -53.5t50 -158.5q0 -64 -20 -154l-84 -356q-10 -43 -14 -69t-4 -45q0 -31 10.5 -48t32 -25.5t68.5 -13.5l-9 -49h-314l126 508
q14 55 24.5 111.5t10.5 102.5q0 72 -24 102.5t-81 30.5q-41 0 -90.5 -34t-104.5 -103.5t-87.5 -133t-51.5 -151.5l-91 -433h-173l254 1130h-137z" />
    <glyph glyph-name="Itilde" unicode="&#x128;" horiz-adv-x="656" 
d="M376 291q-13 -59 -17 -93.5t-4 -62.5q0 -45 22.5 -63.5t75.5 -22.5l-11 -49h-400l11 49q38 6 57 19.5t32 37.5t24 58.5t33 133.5l170 770q10 46 16 88.5t6 72.5q0 47 -24 65.5t-74 21.5l11 49h400l-11 -49q-38 -8 -54.5 -18t-30 -30t-27 -62.5t-34.5 -138.5zM838 1720
l69 -48q-50 -75 -88.5 -116t-70.5 -57t-71 -16q-23 0 -42 6t-35.5 16t-49.5 38q-30 24 -43 33t-25 13.5t-25 4.5q-25 0 -45 -9.5t-44 -34.5t-54 -67l-70 47q61 87 93 122t64.5 51.5t77.5 16.5q16 0 29.5 -3.5t26.5 -9.5t23 -13t39 -30q41 -34 60.5 -44.5t39.5 -10.5
q23 0 43 10t44 34t54 67z" />
    <glyph glyph-name="itilde" unicode="&#x129;" horiz-adv-x="555" 
d="M313 250q-11 -51 -14 -74.5t-3 -39.5q0 -30 10 -47t31 -26t69 -14l-9 -49h-310l151 674q13 58 18 92.5t5 57.5q0 29 -8.5 45t-28.5 24t-69 10l11 53l244 9h59zM702 1365l69 -48q-50 -75 -88.5 -116t-70.5 -57t-71 -16q-23 0 -42 6t-35.5 16t-49.5 38q-30 24 -43 33
t-25 13.5t-25 4.5q-25 0 -45 -9.5t-44 -34.5t-54 -67l-70 47q61 87 93 122t64.5 51.5t77.5 16.5q16 0 29.5 -3.5t26.5 -9.5t23 -13t39 -30q41 -34 60.5 -44.5t39.5 -10.5q23 0 43 10t44 34t54 67z" />
    <glyph glyph-name="Imacron" unicode="&#x12a;" horiz-adv-x="656" 
d="M376 291q-13 -59 -17 -93.5t-4 -62.5q0 -45 22.5 -63.5t75.5 -22.5l-11 -49h-400l11 49q38 6 57 19.5t32 37.5t24 58.5t33 133.5l170 770q10 46 16 88.5t6 72.5q0 47 -24 65.5t-74 21.5l11 49h400l-11 -49q-38 -8 -54.5 -18t-30 -30t-27 -62.5t-34.5 -138.5zM827 1538
h-530l26 125h530z" />
    <glyph glyph-name="imacron" unicode="&#x12b;" horiz-adv-x="555" 
d="M313 250q-11 -51 -14 -74.5t-3 -39.5q0 -30 10 -47t31 -26t69 -14l-9 -49h-310l151 674q13 58 18 92.5t5 57.5q0 29 -8.5 45t-28.5 24t-69 10l11 53l244 9h59zM678 1188h-501l26 125h501z" />
    <glyph glyph-name="Ibreve" unicode="&#x12c;" horiz-adv-x="656" 
d="M376 291q-13 -59 -17 -93.5t-4 -62.5q0 -45 22.5 -63.5t75.5 -22.5l-11 -49h-400l11 49q38 6 57 19.5t32 37.5t24 58.5t33 133.5l170 770q10 46 16 88.5t6 72.5q0 47 -24 65.5t-74 21.5l11 49h400l-11 -49q-38 -8 -54.5 -18t-30 -30t-27 -62.5t-34.5 -138.5zM910 1748
q-61 -93 -118 -149t-118 -81.5t-146 -25.5q-72 0 -120.5 37.5t-72 103.5t-23.5 150l81 15q8 -92 47.5 -135.5t111.5 -43.5q58 0 101.5 14.5t89 52t96.5 104.5z" />
    <glyph glyph-name="ibreve" unicode="&#x12d;" horiz-adv-x="555" 
d="M313 250q-11 -51 -14 -74.5t-3 -39.5q0 -30 10 -47t31 -26t69 -14l-9 -49h-310l151 674q13 58 18 92.5t5 57.5q0 29 -8.5 45t-28.5 24t-69 10l11 53l244 9h59zM762 1369q-58 -98 -116.5 -153.5t-119 -79t-136.5 -23.5q-101 0 -156 76.5t-55 215.5l81 15q12 -180 153 -180
q58 0 100.5 15t85.5 51.5t92 104.5z" />
    <glyph glyph-name="Iogonek" unicode="&#x12e;" horiz-adv-x="656" 
d="M376 291q-13 -59 -17 -93.5t-4 -62.5q0 -45 22.5 -63.5t75.5 -22.5l-11 -49h-53q-111 -85 -155.5 -144t-44.5 -111q0 -48 20 -66.5t62 -18.5q33 0 61.5 10.5t50.5 23.5l16 -68q-36 -25 -83 -40.5t-86 -15.5q-87 0 -130 38.5t-43 118.5q0 66 60.5 136t175.5 137h-251
l11 49q38 6 57 19.5t32 37.5t24 58.5t33 133.5l170 770q10 46 16 88.5t6 72.5q0 47 -24 65.5t-74 21.5l11 49h400l-11 -49q-38 -8 -54.5 -18t-30 -30t-27 -62.5t-34.5 -138.5z" />
    <glyph glyph-name="iogonek" unicode="&#x12f;" horiz-adv-x="555" 
d="M560 1348l-46 -194h-177l46 194h177zM313 250q-11 -51 -14 -74.5t-3 -39.5q0 -30 10 -47t31 -26t69 -14l-9 -49h-54q-111 -85 -155.5 -144t-44.5 -111q0 -48 20 -66.5t62 -18.5q33 0 61.5 10.5t50.5 23.5l16 -68q-36 -25 -83 -40.5t-86 -15.5q-87 0 -130 38.5t-43 118.5
q0 66 60.5 136t175.5 137h-160l151 674q13 58 18 92.5t5 57.5q0 29 -8.5 45t-28.5 24t-69 10l11 53l244 9h59z" />
    <glyph glyph-name="Idotaccent" unicode="&#x130;" horiz-adv-x="656" 
d="M376 291q-13 -59 -17 -93.5t-4 -62.5q0 -45 22.5 -63.5t75.5 -22.5l-11 -49h-400l11 49q38 6 57 19.5t32 37.5t24 58.5t33 133.5l170 770q10 46 16 88.5t6 72.5q0 47 -24 65.5t-74 21.5l11 49h400l-11 -49q-38 -8 -54.5 -18t-30 -30t-27 -62.5t-34.5 -138.5zM687 1699
l-46 -194h-177l46 194h177z" />
    <glyph glyph-name="dotlessi" unicode="&#x131;" horiz-adv-x="555" 
d="M313 250q-11 -51 -14 -74.5t-3 -39.5q0 -30 10 -47t31 -26t69 -14l-9 -49h-310l151 674q13 58 18 92.5t5 57.5q0 29 -8.5 45t-28.5 24t-69 10l11 53l244 9h59z" />
    <glyph glyph-name="IJ" unicode="&#x132;" horiz-adv-x="1269" 
d="M376 291q-13 -59 -17 -93.5t-4 -62.5q0 -45 22.5 -63.5t75.5 -22.5l-11 -49h-400l11 49q38 6 57 19.5t32 37.5t24 58.5t33 133.5l170 770q10 46 16 88.5t6 72.5q0 47 -24 65.5t-74 21.5l11 49h400l-11 -49q-38 -8 -54.5 -18t-30 -30t-27 -62.5t-34.5 -138.5zM957 43
q-34 -156 -87 -248.5t-137.5 -137t-207.5 -44.5q-27 0 -53 2.5t-42 7.5l26 96q16 -5 35.5 -6.5t40.5 -1.5q58 0 100.5 27t77 93.5t60.5 182.5l234 1054q10 44 16 87.5t6 73.5q0 47 -24 65.5t-74 21.5l11 49h400l-11 -49q-38 -8 -54.5 -18t-30 -30t-27 -62.5t-34.5 -138.5z
" />
    <glyph glyph-name="ij" unicode="&#x133;" horiz-adv-x="1100" 
d="M560 1348l-46 -194h-177l46 194h177zM313 250q-11 -51 -14 -74.5t-3 -39.5q0 -30 10 -47t31 -26t69 -14l-9 -49h-310l151 674q13 58 18 92.5t5 57.5q0 29 -8.5 45t-28.5 24t-69 10l11 53l244 9h59zM1118 1348l-46 -194h-177l46 194h177zM817 -17q-32 -152 -87 -244.5
t-143 -139t-210 -46.5q-50 0 -85 10l23 88q16 -5 35.5 -6.5t40.5 -1.5q48 0 81.5 14.5t62.5 48t53.5 93.5t45.5 155l162 720q13 56 18 91t5 59q0 29 -8.5 45t-28.5 24t-69 10l11 53l244 9h57z" />
    <glyph glyph-name="Jcircumflex" unicode="&#x134;" horiz-adv-x="613" 
d="M301 43q-34 -156 -87 -248.5t-137.5 -137t-207.5 -44.5q-27 0 -53 2.5t-42 7.5l26 96q16 -5 35.5 -6.5t40.5 -1.5q58 0 100.5 27t77 93.5t60.5 182.5l234 1054q10 44 16 87.5t6 73.5q0 47 -24 65.5t-74 21.5l11 49h400l-11 -49q-38 -8 -54.5 -18t-30 -30t-27 -62.5
t-34.5 -138.5zM656 1780l161 -261l-66 -50l-180 182h-10l-263 -183l-52 62l274 250h136z" />
    <glyph glyph-name="jcircumflex" unicode="&#x135;" horiz-adv-x="545" 
d="M550 1432l132 -337l-79 -35l-139 237h-10l-255 -237l-62 57l277 315h136zM262 -17q-32 -152 -87 -244.5t-143 -139t-210 -46.5q-50 0 -85 10l23 88q16 -5 35.5 -6.5t40.5 -1.5q48 0 81.5 14.5t62.5 48t53.5 93.5t45.5 155l162 720q13 56 18 91t5 59q0 29 -8.5 45
t-28.5 24t-69 10l11 53l244 9h57z" />
    <glyph glyph-name="uni0136" unicode="&#x136;" horiz-adv-x="1235" 
d="M476 748h33q42 0 76.5 14t80.5 51t146.5 136t143 150.5t62 89t19.5 68.5q0 25 -20 40.5t-57 18.5l11 49h429l-11 -49q-40 -6 -90.5 -41.5t-154.5 -138.5l-388 -378l213 -512q27 -65 43.5 -95.5t35.5 -51t43 -33t58 -17.5l-11 -49h-386l11 49q54 5 54 48q0 13 -2.5 27
t-11 41t-23.5 65l-130 318q-23 57 -40 80t-36 32t-59 9h-56l-83 -378q-13 -60 -17 -94.5t-4 -61.5q0 -45 22.5 -63.5t75.5 -22.5l-11 -49h-400l11 49q38 6 57 19.5t32 37.5t24 58.5t33 133.5l170 770q10 46 16 88.5t6 72.5q0 47 -24 65.5t-74 21.5l11 49h400l-11 -49
q-38 -8 -54.5 -18t-30 -30t-27 -62.5t-34.5 -138.5zM622 -99q1 -8 1 -16v-15q0 -131 -93 -209t-266 -91v76q77 6 124 38.5t67.5 83.5t22.5 133h144z" />
    <glyph glyph-name="uni0137" unicode="&#x137;" horiz-adv-x="1018" 
d="M368 557h32q31 0 67 12t77 37.5t110 80.5q52 42 77 71.5t34 51.5t9 42q0 49 -68 55l11 49h324l19 -49q-83 -75 -176 -147l-253 -197l150 -379q20 -51 41 -78.5t48.5 -40.5t70.5 -16l-11 -49h-267l-146 411q-14 39 -24 53t-23 20t-42 6h-74l-104 -490h-173l257 1143
q11 50 15.5 72.5t6.5 41.5t2 34q0 42 -25.5 59t-91.5 19l12 52l253 9h58zM497 -99q1 -8 1 -16v-15q0 -131 -93 -209t-266 -91v76q77 6 124 38.5t67.5 83.5t22.5 133h144z" />
    <glyph glyph-name="kgreenlandic" unicode="&#x138;" horiz-adv-x="1028" 
d="M378 557h32q31 0 67 12t77 37.5t110 80.5q52 42 77 71.5t34 51.5t9 42q0 49 -68 55l11 49h324l19 -49q-83 -75 -176 -147l-253 -197l150 -379q20 -51 41 -78.5t48.5 -40.5t70.5 -16l-11 -49h-267l-146 411q-14 40 -23 53.5t-22 19.5t-47 6h-71l-104 -490h-173l151 678
q14 62 18 94t4 50q0 30 -7.5 46t-27 24t-71.5 11l11 53l245 9h58z" />
    <glyph glyph-name="Lacute" unicode="&#x139;" horiz-adv-x="1071" 
d="M53 49q38 6 57 19.5t32 37.5t24 58.5t33 133.5l170 770q10 46 16 88.5t6 72.5q0 47 -24 65.5t-74 21.5l11 49h400l-11 -49q-38 -8 -54.5 -18t-30 -30t-27 -62.5t-34.5 -138.5l-214 -975h246q67 0 105.5 13t73 47.5t67.5 93.5t67 147h97l-101 -393h-846zM1070 1782
l-11 -50l-425 -268l-50 71l268 247h218z" />
    <glyph glyph-name="lacute" unicode="&#x13a;" horiz-adv-x="546" 
d="M505 1430h59l-260 -1180q-11 -48 -14 -72.5t-3 -41.5q0 -30 10 -47t31 -26t69 -14l-8 -49h-312l258 1148q10 44 14 66t6 42t2 35q0 30 -11 45.5t-31.5 22.5t-73.5 10l12 52zM840 1797l-11 -50l-425 -268l-50 71l268 247h218z" />
    <glyph glyph-name="uni013B" unicode="&#x13b;" horiz-adv-x="1071" 
d="M53 49q38 6 57 19.5t32 37.5t24 58.5t33 133.5l170 770q10 46 16 88.5t6 72.5q0 47 -24 65.5t-74 21.5l11 49h400l-11 -49q-38 -8 -54.5 -18t-30 -30t-27 -62.5t-34.5 -138.5l-214 -975h246q67 0 105.5 13t73 47.5t67.5 93.5t67 147h97l-101 -393h-846zM535 -99
q1 -8 1 -16v-15q0 -131 -93 -209t-266 -91v76q77 6 124 38.5t67.5 83.5t22.5 133h144z" />
    <glyph glyph-name="uni013C" unicode="&#x13c;" horiz-adv-x="546" 
d="M505 1430h59l-260 -1180q-11 -48 -14 -72.5t-3 -41.5q0 -30 10 -47t31 -26t69 -14l-8 -49h-312l258 1148q10 44 14 66t6 42t2 35q0 30 -11 45.5t-31.5 22.5t-73.5 10l12 52zM241 -99q1 -8 1 -16v-15q0 -131 -93 -209t-266 -91v76q77 6 124 38.5t67.5 83.5t22.5 133h144z
" />
    <glyph glyph-name="Lcaron" unicode="&#x13d;" horiz-adv-x="1071" 
d="M53 49q38 6 57 19.5t32 37.5t24 58.5t33 133.5l170 770q10 46 16 88.5t6 72.5q0 47 -24 65.5t-74 21.5l11 49h400l-11 -49q-38 -8 -54.5 -18t-30 -30t-27 -62.5t-34.5 -138.5l-214 -975h246q67 0 105.5 13t73 47.5t67.5 93.5t67 147h97l-101 -393h-846zM1064 1431
q2 -10 2 -49q0 -70 -14.5 -121t-43 -92t-73 -81t-132.5 -105l-47 62q77 63 115.5 155t38.5 231h154z" />
    <glyph glyph-name="lcaron" unicode="&#x13e;" horiz-adv-x="773" 
d="M505 1430h59l-260 -1180q-11 -48 -14 -72.5t-3 -41.5q0 -30 10 -47t31 -26t69 -14l-8 -49h-312l258 1148q10 44 14 66t6 42t2 35q0 30 -11 45.5t-31.5 22.5t-73.5 10l12 52zM920 1431q2 -10 2 -49q0 -70 -14.5 -121t-43 -92t-73 -81t-132.5 -105l-47 62q77 63 115.5 155
t38.5 231h154z" />
    <glyph glyph-name="Ldot" unicode="&#x13f;" horiz-adv-x="1241" 
d="M53 49q38 6 57 19.5t32 37.5t24 58.5t33 133.5l170 770q10 46 16 88.5t6 72.5q0 47 -24 65.5t-74 21.5l11 49h400l-11 -49q-38 -8 -54.5 -18t-30 -30t-27 -62.5t-34.5 -138.5l-214 -975h246q67 0 105.5 13t73 47.5t67.5 93.5t67 147h97l-101 -393h-846zM1286 795
l-46 -194h-177l46 194h177z" />
    <glyph glyph-name="ldot" unicode="&#x140;" horiz-adv-x="741" 
d="M505 1430h59l-260 -1180q-11 -48 -14 -72.5t-3 -41.5q0 -30 10 -47t31 -26t69 -14l-8 -49h-312l258 1148q10 44 14 66t6 42t2 35q0 30 -11 45.5t-31.5 22.5t-73.5 10l12 52zM786 795l-46 -194h-177l46 194h177z" />
    <glyph glyph-name="Lslash" unicode="&#x141;" horiz-adv-x="1077" 
d="M474 710l-135 -618h246q67 0 105.5 13t73 47.5t67.5 93.5t67 147h97l-101 -393h-846l11 49q38 6 57 19.5t32 37.5t24 58.5t33 133.5l68 311l-177 -111l-46 85l250 145l75 340q10 46 16 88.5t6 72.5q0 47 -24 65.5t-74 21.5l11 49h400l-11 -49q-38 -8 -54.5 -18t-30 -30
t-27 -62.5t-34.5 -138.5l-52 -236l310 187l47 -84z" />
    <glyph glyph-name="lslash" unicode="&#x142;" horiz-adv-x="604" 
d="M442 739l-108 -489q-10 -47 -13.5 -72t-3.5 -42q0 -30 10 -47t31 -26t69 -14l-8 -49h-312l146 645l-176 -107l-44 84l246 141l86 385q10 45 14 66.5t6 41.5t2 35q0 30 -11 45.5t-31.5 22.5t-73.5 10l12 52l252 9h59l-127 -574l178 109l44 -83z" />
    <glyph glyph-name="Nacute" unicode="&#x143;" horiz-adv-x="1374" 
d="M1428 1365l-11 -49q-38 -8 -54.5 -18t-30 -30t-27 -62.5t-34.5 -138.5l-235 -1067h-136l-292 858q-53 154 -93 307h-13q-6 -51 -33 -194.5t-57 -280.5l-88 -399q-9 -42 -15 -81t-6 -75q0 -45 22.5 -63.5t75.5 -22.5l-11 -49h-350l11 49q38 6 57 19.5t32 37.5t24 58.5
t33 133.5l170 770q10 43 16 82t6 79q0 47 -24 65.5t-74 21.5l11 49h319l264 -779q57 -168 88 -284h11q8 61 36.5 203t52.5 248l70 315q7 33 14.5 78t7.5 83q0 47 -24 65.5t-74 21.5l11 49h350zM1261 1782l-11 -50l-425 -268l-50 71l268 247h218z" />
    <glyph glyph-name="nacute" unicode="&#x144;" horiz-adv-x="1096" 
d="M943 0h-315l127 508q12 49 23.5 108t11.5 106q0 71 -24.5 102t-76.5 31q-42 0 -90.5 -32.5t-101.5 -97t-89.5 -131t-56.5 -161.5l-91 -433h-173l152 683q5 23 13.5 68t8.5 75q0 28 -8.5 43.5t-29 23t-69.5 10.5l12 53l227 9h57l-67 -260l12 -4q98 138 189 204.5t182 66.5
q97 0 147 -53.5t50 -158.5q0 -36 -6.5 -78.5t-14.5 -75.5l-84 -356q-17 -72 -17 -114q0 -30 10 -47t31 -26t69 -14zM1011 1442l-11 -50l-374 -322l-62 60l263 312h184z" />
    <glyph glyph-name="uni0145" unicode="&#x145;" horiz-adv-x="1374" 
d="M1428 1365l-11 -49q-38 -8 -54.5 -18t-30 -30t-27 -62.5t-34.5 -138.5l-235 -1067h-136l-292 858q-53 154 -93 307h-13q-6 -51 -33 -194.5t-57 -280.5l-88 -399q-9 -42 -15 -81t-6 -75q0 -45 22.5 -63.5t75.5 -22.5l-11 -49h-350l11 49q38 6 57 19.5t32 37.5t24 58.5
t33 133.5l170 770q10 43 16 82t6 79q0 47 -24 65.5t-74 21.5l11 49h319l264 -779q57 -168 88 -284h11q8 61 36.5 203t52.5 248l70 315q7 33 14.5 78t7.5 83q0 47 -24 65.5t-74 21.5l11 49h350zM672 -99q1 -8 1 -16v-15q0 -131 -93 -209t-266 -91v76q77 6 124 38.5t67.5 83.5
t22.5 133h144z" />
    <glyph glyph-name="uni0146" unicode="&#x146;" horiz-adv-x="1096" 
d="M943 0h-315l127 508q12 49 23.5 108t11.5 106q0 71 -24.5 102t-76.5 31q-42 0 -90.5 -32.5t-101.5 -97t-89.5 -131t-56.5 -161.5l-91 -433h-173l152 683q5 23 13.5 68t8.5 75q0 28 -8.5 43.5t-29 23t-69.5 10.5l12 53l227 9h57l-67 -260l12 -4q98 138 189 204.5t182 66.5
q97 0 147 -53.5t50 -158.5q0 -36 -6.5 -78.5t-14.5 -75.5l-84 -356q-17 -72 -17 -114q0 -30 10 -47t31 -26t69 -14zM525 -99q1 -8 1 -16v-15q0 -131 -93 -209t-266 -91v76q77 6 124 38.5t67.5 83.5t22.5 133h144z" />
    <glyph glyph-name="Ncaron" unicode="&#x147;" horiz-adv-x="1374" 
d="M1428 1365l-11 -49q-38 -8 -54.5 -18t-30 -30t-27 -62.5t-34.5 -138.5l-235 -1067h-136l-292 858q-53 154 -93 307h-13q-6 -51 -33 -194.5t-57 -280.5l-88 -399q-9 -42 -15 -81t-6 -75q0 -45 22.5 -63.5t75.5 -22.5l-11 -49h-350l11 49q38 6 57 19.5t32 37.5t24 58.5
t33 133.5l170 770q10 43 16 82t6 79q0 47 -24 65.5t-74 21.5l11 49h319l264 -779q57 -168 88 -284h11q8 61 36.5 203t52.5 248l70 315q7 33 14.5 78t7.5 83q0 47 -24 65.5t-74 21.5l11 49h350zM846 1468l-161 261l66 50l180 -182h10l263 183l52 -62l-274 -250h-136z" />
    <glyph glyph-name="ncaron" unicode="&#x148;" horiz-adv-x="1096" 
d="M943 0h-315l127 508q12 49 23.5 108t11.5 106q0 71 -24.5 102t-76.5 31q-42 0 -90.5 -32.5t-101.5 -97t-89.5 -131t-56.5 -161.5l-91 -433h-173l152 683q5 23 13.5 68t8.5 75q0 28 -8.5 43.5t-29 23t-69.5 10.5l12 53l227 9h57l-67 -260l12 -4q98 138 189 204.5t182 66.5
q97 0 147 -53.5t50 -158.5q0 -36 -6.5 -78.5t-14.5 -75.5l-84 -356q-17 -72 -17 -114q0 -30 10 -47t31 -26t69 -14zM612 1080l-132 335l78 37l138 -243h10l256 243l63 -57l-278 -315h-135z" />
    <glyph glyph-name="napostrophe" unicode="&#x149;" horiz-adv-x="1361" 
d="M524 1431q0 -96 -15 -153q-18 -68 -47 -117q-33 -55 -88 -109t-142 -111l-46 62q45 36 76 82t53 112t31 135t9 99h169zM1208 0h-315l127 508q12 49 23.5 108t11.5 106q0 71 -24.5 102t-76.5 31q-42 0 -90.5 -32.5t-101.5 -97t-89.5 -131t-56.5 -161.5l-91 -433h-173
l152 683q5 23 13.5 68t8.5 75q0 28 -8.5 43.5t-29 23t-69.5 10.5l12 53l227 9h57l-67 -260l12 -4q98 138 189 204.5t182 66.5q97 0 147 -53.5t50 -158.5q0 -36 -6.5 -78.5t-14.5 -75.5l-84 -356q-17 -72 -17 -114q0 -30 10 -47t31 -26t69 -14z" />
    <glyph glyph-name="Eng" unicode="&#x14a;" horiz-adv-x="1374" 
d="M900 0l-292 858q-53 154 -93 307h-13q-6 -51 -33 -194.5t-57 -280.5l-88 -399q-9 -42 -15 -81t-6 -75q0 -45 22.5 -63.5t75.5 -22.5l-11 -49h-350l11 49q38 6 57 19.5t32 37.5t24 58.5t33 133.5l170 770q10 43 16 82t6 79q0 47 -24 65.5t-74 21.5l11 49h319l264 -779
q57 -168 88 -284h11q8 61 36.5 203t52.5 248l70 315q7 33 14.5 78t7.5 83q0 47 -24 65.5t-74 21.5l11 49h350l-11 -49q-38 -8 -54.5 -18t-30 -30t-27 -62.5t-34.5 -138.5l-223 -1013q-34 -156 -83 -250.5t-124.5 -146.5t-192.5 -52q-81 0 -134 20l39 187h101q3 -72 61 -72
q39 0 72 21.5t64 79.5t54 159h-5z" />
    <glyph glyph-name="eng" unicode="&#x14b;" horiz-adv-x="1089" 
d="M755 508q14 60 24.5 114.5t10.5 99.5q0 71 -24.5 102t-76.5 31q-42 0 -90.5 -32.5t-101.5 -97t-89.5 -131t-56.5 -161.5l-91 -433h-173l152 683q5 23 13.5 68t8.5 75q0 28 -8.5 43.5t-29 23t-69.5 10.5l12 53l227 9h57l-67 -260l12 -4q98 138 189 204.5t182 66.5
q97 0 147 -53.5t50 -158.5q0 -24 -4.5 -59t-16.5 -95l-142 -642q-47 -209 -143.5 -306.5t-250.5 -97.5q-38 0 -78 5t-76 13l39 178h74q4 -36 12.5 -59t20 -35.5t26.5 -17.5t33 -5q31 0 54 16t42 50.5t35.5 90t34.5 135.5z" />
    <glyph glyph-name="Omacron" unicode="&#x14c;" horiz-adv-x="1273" 
d="M837 1381q124 0 214.5 -48t139 -146t48.5 -242q0 -155 -53 -348.5t-153.5 -335t-229.5 -210t-270 -68.5q-140 0 -231.5 54t-134.5 150.5t-43 227.5q0 127 36.5 284.5t100 284.5t151 216t195.5 135t230 46zM1049 987q0 306 -223 306q-54 0 -102 -18q-56 -22 -107 -65
q-57 -49 -106 -125q-58 -90 -101 -205q-45 -120 -72 -259q-26 -133 -26 -241q0 -156 56.5 -232.5t168.5 -76.5q90 0 171 55q100 67 180 213q86 157 133 383q28 133 28 265zM1136 1538h-530l26 125h530z" />
    <glyph glyph-name="omacron" unicode="&#x14d;" horiz-adv-x="1038" 
d="M409 -17q-155 0 -240.5 87t-85.5 250q0 60 15 141q19 105 54 186q45 101 115.5 174.5t162 112t196.5 38.5q115 0 188.5 -44t106.5 -119.5t33 -174.5q0 -89 -25 -190q-36 -148 -105 -251t-173 -156.5t-242 -53.5zM258 277q0 -110 45.5 -162.5t137.5 -52.5q98 0 174 88
t120 246.5t44 278.5q0 108 -42 162.5t-131 54.5q-104 0 -181.5 -87t-122 -249t-44.5 -279zM927 1188h-501l26 125h501z" />
    <glyph glyph-name="Obreve" unicode="&#x14e;" horiz-adv-x="1273" 
d="M837 1381q124 0 214.5 -48t139 -146t48.5 -242q0 -155 -53 -348.5t-153.5 -335t-229.5 -210t-270 -68.5q-140 0 -231.5 54t-134.5 150.5t-43 227.5q0 127 36.5 284.5t100 284.5t151 216t195.5 135t230 46zM1049 987q0 306 -223 306q-54 0 -102 -18q-56 -22 -107 -65
q-57 -49 -106 -125q-58 -90 -101 -205q-45 -120 -72 -259q-26 -133 -26 -241q0 -156 56.5 -232.5t168.5 -76.5q90 0 171 55q100 67 180 213q86 157 133 383q28 133 28 265zM1218 1748q-61 -93 -118 -149t-118 -81.5t-146 -25.5q-72 0 -120.5 37.5t-72 103.5t-23.5 150l81 15
q8 -92 47.5 -135.5t111.5 -43.5q58 0 101.5 14.5t89 52t96.5 104.5z" />
    <glyph glyph-name="obreve" unicode="&#x14f;" horiz-adv-x="1038" 
d="M409 -17q-155 0 -240.5 87t-85.5 250q0 60 15 141q19 105 54 186q45 101 115.5 174.5t162 112t196.5 38.5q115 0 188.5 -44t106.5 -119.5t33 -174.5q0 -89 -25 -190q-36 -148 -105 -251t-173 -156.5t-242 -53.5zM258 277q0 -110 45.5 -162.5t137.5 -52.5q98 0 174 88
t120 246.5t44 278.5q0 108 -42 162.5t-131 54.5q-104 0 -181.5 -87t-122 -249t-44.5 -279zM1010 1369q-58 -98 -116.5 -153.5t-119 -79t-136.5 -23.5q-101 0 -156 76.5t-55 215.5l81 15q12 -180 153 -180q58 0 100.5 15t85.5 51.5t92 104.5z" />
    <glyph glyph-name="Ohungarumlaut" unicode="&#x150;" horiz-adv-x="1273" 
d="M837 1381q124 0 214.5 -48t139 -146t48.5 -242q0 -155 -53 -348.5t-153.5 -335t-229.5 -210t-270 -68.5q-140 0 -231.5 54t-134.5 150.5t-43 227.5q0 127 36.5 284.5t100 284.5t151 216t195.5 135t230 46zM1049 987q0 306 -223 306q-54 0 -102 -18q-56 -22 -107 -65
q-57 -49 -106 -125q-58 -90 -101 -205q-45 -120 -72 -259q-26 -133 -26 -241q0 -156 56.5 -232.5t168.5 -76.5q90 0 171 55q100 67 180 213q86 157 133 383q28 133 28 265zM1012 1782l-11 -50l-376 -264l-52 58l282 256h157zM1342 1782l-11 -50l-375 -264l-52 58l282 256
h156z" />
    <glyph glyph-name="ohungarumlaut" unicode="&#x151;" horiz-adv-x="1038" 
d="M409 -17q-155 0 -240.5 87t-85.5 250q0 60 15 141q19 105 54 186q45 101 115.5 174.5t162 112t196.5 38.5q115 0 188.5 -44t106.5 -119.5t33 -174.5q0 -89 -25 -190q-36 -148 -105 -251t-173 -156.5t-242 -53.5zM258 277q0 -110 45.5 -162.5t137.5 -52.5q98 0 174 88
t120 246.5t44 278.5q0 108 -42 162.5t-131 54.5q-104 0 -181.5 -87t-122 -249t-44.5 -279zM1120 1442l-11 -50l-351 -322l-58 52l284 320h136zM815 1442l-11 -50l-351 -322l-58 52l284 320h136z" />
    <glyph glyph-name="OE" unicode="&#x152;" horiz-adv-x="1836" 
d="M1896 1365l-69 -307h-96q-3 72 -11 112.5t-18 60t-23 29t-32.5 13.5t-55.5 4h-311l-113 -524h175q44 0 73.5 12t54.5 41.5t56 90.5h91l-90 -384h-85q0 55 -4 81t-10.5 38.5t-16.5 19.5t-26 10t-53 3h-184l-124 -577h276q44 0 74.5 6.5t55.5 22.5t48 41.5t47.5 65.5
t66.5 122h97l-88 -346h-760l29 135l-9 -1q-64 -70 -158 -110t-187 -40q-194 0 -293 109.5t-99 321.5q0 149 50.5 341t144.5 335t221.5 216.5t277.5 73.5q92 0 162.5 -33.5t124.5 -108.5h10l27 126h754zM1019 987q0 161 -50.5 233.5t-156.5 72.5q-103 0 -193 -76t-159 -215.5
t-108.5 -315t-39.5 -306.5q0 -114 23 -181.5t67.5 -97.5t116.5 -30q134 0 245.5 125.5t183 355.5t71.5 435z" />
    <glyph glyph-name="oe" unicode="&#x153;" horiz-adv-x="1581" 
d="M1459 199q-74 -81 -142 -128t-136 -67t-150 -20q-66 0 -112.5 17.5t-79 49t-60.5 84.5h-10q-93 -82 -172 -117t-188 -35q-155 0 -240.5 87t-85.5 250q0 60 15 141q19 105 54 186q45 101 115.5 174.5t162 112t196.5 38.5q77 0 132 -22t90.5 -58t62.5 -93h10
q171 174 380 174q121 0 181.5 -49t60.5 -153q0 -170 -159.5 -255t-473.5 -85q-12 -60 -12 -130q0 -105 41 -152.5t134 -47.5q92 0 167 40t157 123zM927 516q92 1 161.5 10.5t119.5 26t83 39.5t52.5 50.5t27 58t7.5 63.5q0 61 -28.5 95.5t-84.5 34.5q-70 0 -137.5 -50.5
t-119 -136t-81.5 -191.5zM258 277q0 -110 45.5 -162.5t137.5 -52.5q98 0 174 88t120 246.5t44 278.5q0 108 -42 162.5t-131 54.5q-104 0 -181.5 -87t-122 -249t-44.5 -279z" />
    <glyph glyph-name="Racute" unicode="&#x154;" horiz-adv-x="1209" 
d="M809 619q48 -36 77.5 -86t47.5 -139l23 -116q7 -36 15.5 -67t20 -59.5t25 -45.5t29 -28t35 -17.5t49.5 -11.5l-10 -49h-277q-32 89 -57 212l-44 212q-11 55 -26.5 92.5t-37 58t-50 27t-69.5 6.5h-114l-70 -317q-9 -39 -12.5 -62t-6 -48.5t-2.5 -45.5q0 -31 10 -48.5
t30 -25.5t69 -12l-11 -49h-411l11 49q38 6 57 19.5t32 37.5t24 58.5t33 133.5l170 770q22 100 22 158q0 49 -23 68t-75 22l11 49h445q106 0 173 -12.5t114.5 -37.5t79.5 -64.5t48 -89t16 -105.5q0 -89 -29.5 -158t-80.5 -121t-118.5 -88t-142.5 -59v-11zM583 694
q109 0 181 21.5t120 65.5t79 116t31 156q0 43 -8 76.5t-21 55.5t-33 39t-50 29.5t-69.5 18t-107.5 5.5q-53 0 -112 -4l-128 -579h118zM1175 1782l-11 -50l-425 -268l-50 71l268 247h218z" />
    <glyph glyph-name="racute" unicode="&#x155;" horiz-adv-x="834" 
d="M398 965h60l-70 -246l12 -4q95 131 185.5 194t186.5 63q73 0 122 -11l-48 -224h-103q-8 52 -25 79t-53 27q-39 0 -90 -40t-104 -110t-79.5 -129t-40.5 -131l-91 -433h-173l152 683q21 94 21 143q0 28 -9 43.5t-29 23t-68 10.5l11 53zM880 1442l-11 -50l-374 -322l-62 60
l263 312h184z" />
    <glyph glyph-name="uni0156" unicode="&#x156;" horiz-adv-x="1209" 
d="M809 619q48 -36 77.5 -86t47.5 -139l23 -116q7 -36 15.5 -67t20 -59.5t25 -45.5t29 -28t35 -17.5t49.5 -11.5l-10 -49h-277q-32 89 -57 212l-44 212q-11 55 -26.5 92.5t-37 58t-50 27t-69.5 6.5h-114l-70 -317q-9 -39 -12.5 -62t-6 -48.5t-2.5 -45.5q0 -31 10 -48.5
t30 -25.5t69 -12l-11 -49h-411l11 49q38 6 57 19.5t32 37.5t24 58.5t33 133.5l170 770q22 100 22 158q0 49 -23 68t-75 22l11 49h445q106 0 173 -12.5t114.5 -37.5t79.5 -64.5t48 -89t16 -105.5q0 -89 -29.5 -158t-80.5 -121t-118.5 -88t-142.5 -59v-11zM583 694
q109 0 181 21.5t120 65.5t79 116t31 156q0 43 -8 76.5t-21 55.5t-33 39t-50 29.5t-69.5 18t-107.5 5.5q-53 0 -112 -4l-128 -579h118zM624 -99q1 -8 1 -16v-15q0 -131 -93 -209t-266 -91v76q77 6 124 38.5t67.5 83.5t22.5 133h144z" />
    <glyph glyph-name="uni0157" unicode="&#x157;" horiz-adv-x="834" 
d="M398 965h60l-70 -246l12 -4q95 131 185.5 194t186.5 63q73 0 122 -11l-48 -224h-103q-8 52 -25 79t-53 27q-39 0 -90 -40t-104 -110t-79.5 -129t-40.5 -131l-91 -433h-173l152 683q21 94 21 143q0 28 -9 43.5t-29 23t-68 10.5l11 53zM287 -99q1 -8 1 -16v-15
q0 -131 -93 -209t-266 -91v76q77 6 124 38.5t67.5 83.5t22.5 133h144z" />
    <glyph glyph-name="Rcaron" unicode="&#x158;" horiz-adv-x="1209" 
d="M809 619q48 -36 77.5 -86t47.5 -139l23 -116q7 -36 15.5 -67t20 -59.5t25 -45.5t29 -28t35 -17.5t49.5 -11.5l-10 -49h-277q-32 89 -57 212l-44 212q-11 55 -26.5 92.5t-37 58t-50 27t-69.5 6.5h-114l-70 -317q-9 -39 -12.5 -62t-6 -48.5t-2.5 -45.5q0 -31 10 -48.5
t30 -25.5t69 -12l-11 -49h-411l11 49q38 6 57 19.5t32 37.5t24 58.5t33 133.5l170 770q22 100 22 158q0 49 -23 68t-75 22l11 49h445q106 0 173 -12.5t114.5 -37.5t79.5 -64.5t48 -89t16 -105.5q0 -89 -29.5 -158t-80.5 -121t-118.5 -88t-142.5 -59v-11zM583 694
q109 0 181 21.5t120 65.5t79 116t31 156q0 43 -8 76.5t-21 55.5t-33 39t-50 29.5t-69.5 18t-107.5 5.5q-53 0 -112 -4l-128 -579h118zM759 1468l-161 261l66 50l180 -182h10l263 183l52 -62l-274 -250h-136z" />
    <glyph glyph-name="rcaron" unicode="&#x159;" horiz-adv-x="834" 
d="M398 965h60l-70 -246l12 -4q95 131 185.5 194t186.5 63q73 0 122 -11l-48 -224h-103q-8 52 -25 79t-53 27q-39 0 -90 -40t-104 -110t-79.5 -129t-40.5 -131l-91 -433h-173l152 683q21 94 21 143q0 28 -9 43.5t-29 23t-68 10.5l11 53zM481 1080l-132 335l78 37l138 -243
h10l256 243l63 -57l-278 -315h-135z" />
    <glyph glyph-name="Sacute" unicode="&#x15a;" horiz-adv-x="986" 
d="M159 311q0 -121 56 -180.5t175 -59.5q92 0 158 34t100 96.5t34 148.5q0 61 -21.5 107.5t-65 89t-125.5 97.5q-74 50 -123 98.5t-78 108.5t-29 134q0 118 57 208t161 139t240 49q92 0 170.5 -12.5t173.5 -42.5l-56 -257h-96q-4 85 -26 133.5t-63 69.5t-109 21
q-83 0 -146 -34t-96 -92.5t-33 -130.5q0 -52 18 -93t57.5 -80.5t115.5 -91.5q98 -68 149.5 -121.5t76 -113.5t24.5 -139q0 -121 -58.5 -215.5t-165 -146t-242.5 -51.5q-93 0 -197.5 14t-191.5 38l60 275h96zM1058 1782l-11 -50l-425 -268l-50 71l268 247h218z" />
    <glyph glyph-name="sacute" unicode="&#x15b;" horiz-adv-x="782" 
d="M660 723q-11 90 -51.5 130.5t-125.5 40.5q-47 0 -85 -17.5t-60 -51t-22 -78.5q0 -37 15 -67.5t50.5 -63.5t99.5 -76q97 -65 136 -126t39 -141q0 -94 -45 -159.5t-123 -97.5t-176 -32q-88 0 -164.5 13t-148.5 33l47 216h78q7 -92 52.5 -137.5t132.5 -45.5q89 0 139 44.5
t50 117.5q0 43 -15 77t-47 65t-91 71q-63 43 -102 81t-60.5 83.5t-21.5 100.5q0 83 41 144t116.5 93t176.5 32q165 0 291 -43l-46 -206h-80zM854 1442l-11 -50l-374 -322l-62 60l263 312h184z" />
    <glyph glyph-name="Scircumflex" unicode="&#x15c;" horiz-adv-x="986" 
d="M159 311q0 -121 56 -180.5t175 -59.5q92 0 158 34t100 96.5t34 148.5q0 61 -21.5 107.5t-65 89t-125.5 97.5q-74 50 -123 98.5t-78 108.5t-29 134q0 118 57 208t161 139t240 49q92 0 170.5 -12.5t173.5 -42.5l-56 -257h-96q-4 85 -26 133.5t-63 69.5t-109 21
q-83 0 -146 -34t-96 -92.5t-33 -130.5q0 -52 18 -93t57.5 -80.5t115.5 -91.5q98 -68 149.5 -121.5t76 -113.5t24.5 -139q0 -121 -58.5 -215.5t-165 -146t-242.5 -51.5q-93 0 -197.5 14t-191.5 38l60 275h96zM848 1780l161 -261l-66 -50l-180 182h-10l-263 -183l-52 62
l274 250h136z" />
    <glyph glyph-name="scircumflex" unicode="&#x15d;" horiz-adv-x="782" 
d="M660 723q-11 90 -51.5 130.5t-125.5 40.5q-47 0 -85 -17.5t-60 -51t-22 -78.5q0 -37 15 -67.5t50.5 -63.5t99.5 -76q97 -65 136 -126t39 -141q0 -94 -45 -159.5t-123 -97.5t-176 -32q-88 0 -164.5 13t-148.5 33l47 216h78q7 -92 52.5 -137.5t132.5 -45.5q89 0 139 44.5
t50 117.5q0 43 -15 77t-47 65t-91 71q-63 43 -102 81t-60.5 83.5t-21.5 100.5q0 83 41 144t116.5 93t176.5 32q165 0 291 -43l-46 -206h-80zM670 1432l132 -337l-79 -35l-138 243h-10l-256 -243l-62 57l277 315h136z" />
    <glyph glyph-name="Scedilla" unicode="&#x15e;" horiz-adv-x="986" 
d="M159 311q0 -122 56.5 -181.5t174.5 -59.5q92 0 158 34t100 97t34 149q0 61 -21.5 107.5t-65 89t-125.5 97.5q-74 50 -123 98.5t-78 108.5t-29 134q0 118 57 208t161 139t240 49q92 0 170.5 -12.5t173.5 -42.5l-56 -257h-96q-4 85 -26 133.5t-63 69.5t-109 21
q-83 0 -146 -34t-96 -92.5t-33 -130.5q0 -52 18 -93t57.5 -80.5t115.5 -91.5q98 -68 149.5 -121.5t76 -113.5t24.5 -139q0 -142 -79 -246t-224 -147l-141 -94q4 -13 4 -46q0 -126 -93 -203t-265 -91v76q96 8 148.5 58t54.5 145l7 34l163 102q-18 -2 -41 -2q-92 0 -198.5 15
t-190.5 38l60 275h96z" />
    <glyph glyph-name="scedilla" unicode="&#x15f;" horiz-adv-x="782" 
d="M660 723q-11 90 -51.5 130.5t-125.5 40.5q-47 0 -85 -17.5t-60 -51t-22 -78.5q0 -37 15 -67.5t50.5 -63.5t99.5 -76q97 -65 136 -126t39 -141q0 -103 -54 -173t-157 -100l-131 -87q4 -14 4 -49q0 -125 -94.5 -202.5t-267.5 -91.5v76q96 8 148.5 58t54.5 145l7 34l160 101
h-14q-88 0 -164.5 13t-148.5 33l47 216h78q7 -92 52.5 -137.5t132.5 -45.5q89 0 139 44.5t50 117.5q0 43 -15 77t-47 65t-91 71q-63 43 -102 81t-60.5 83.5t-21.5 100.5q0 83 41 144t116.5 93t176.5 32q165 0 291 -43l-46 -206h-80z" />
    <glyph glyph-name="Scaron" unicode="&#x160;" horiz-adv-x="986" 
d="M159 311q0 -121 56 -180.5t175 -59.5q92 0 158 34t100 96.5t34 148.5q0 61 -21.5 107.5t-65 89t-125.5 97.5q-74 50 -123 98.5t-78 108.5t-29 134q0 118 57 208t161 139t240 49q92 0 170.5 -12.5t173.5 -42.5l-56 -257h-96q-4 85 -26 133.5t-63 69.5t-109 21
q-83 0 -146 -34t-96 -92.5t-33 -130.5q0 -52 18 -93t57.5 -80.5t115.5 -91.5q98 -68 149.5 -121.5t76 -113.5t24.5 -139q0 -121 -58.5 -215.5t-165 -146t-242.5 -51.5q-93 0 -197.5 14t-191.5 38l60 275h96zM643 1468l-161 261l66 50l180 -182h10l263 183l52 -62l-274 -250
h-136z" />
    <glyph glyph-name="scaron" unicode="&#x161;" horiz-adv-x="782" 
d="M660 723q-11 90 -51.5 130.5t-125.5 40.5q-47 0 -85 -17.5t-60 -51t-22 -78.5q0 -37 15 -67.5t50.5 -63.5t99.5 -76q97 -65 136 -126t39 -141q0 -94 -45 -159.5t-123 -97.5t-176 -32q-88 0 -164.5 13t-148.5 33l47 216h78q7 -92 52.5 -137.5t132.5 -45.5q89 0 139 44.5
t50 117.5q0 43 -15 77t-47 65t-91 71q-63 43 -102 81t-60.5 83.5t-21.5 100.5q0 83 41 144t116.5 93t176.5 32q165 0 291 -43l-46 -206h-80zM454 1080l-132 335l78 37l138 -243h10l256 243l63 -57l-278 -315h-135z" />
    <glyph glyph-name="uni0162" unicode="&#x162;" horiz-adv-x="1175" 
d="M712 0h-15l-130 -87q4 -14 4 -49q0 -125 -94.5 -202.5t-267.5 -91.5v76q96 8 148.5 58t54.5 145l7 34l186 117h-314l11 49q39 5 58 15.5t33.5 31.5t29.5 65.5t35 136.5l214 979h-127q-62 0 -99 -18t-74 -67t-90 -164h-96l75 337h1044l-78 -352h-96q0 97 -5 145.5t-19 74
t-34.5 35t-72.5 9.5h-148l-217 -986q-9 -39 -12.5 -62t-6 -48.5t-2.5 -45.5q0 -31 10 -48.5t30 -25.5t69 -12z" />
    <glyph glyph-name="uni0163" unicode="&#x163;" horiz-adv-x="707" 
d="M517 37l-178 -124q4 -14 4 -49q0 -125 -94.5 -202.5t-267.5 -91.5v76q96 8 148.5 58t54.5 145l7 34l156 101l-4 2q-106 0 -158 53t-52 156q0 63 18 141l124 519h-149l11 51q59 7 93.5 25.5t58 49t43.5 79.5t50 143h138l-55 -247h317l-22 -101h-318l-96 -388
q-40 -162 -40 -242q0 -61 26.5 -92.5t77.5 -31.5q46 0 96.5 35.5t110.5 107.5l58 -60q-80 -97 -158 -147z" />
    <glyph glyph-name="Tcaron" unicode="&#x164;" horiz-adv-x="1175" 
d="M712 0h-421l11 49q39 5 58 15.5t33.5 31.5t29.5 65.5t35 136.5l214 979h-127q-62 0 -99 -18t-74 -67t-90 -164h-96l75 337h1044l-78 -352h-96q0 97 -5 145.5t-19 74t-34.5 35t-72.5 9.5h-148l-217 -986q-9 -39 -12.5 -62t-6 -48.5t-2.5 -45.5q0 -31 10 -48.5t30 -25.5
t69 -12zM737 1468l-161 261l66 50l180 -182h10l263 183l52 -62l-274 -250h-136z" />
    <glyph glyph-name="tcaron" unicode="&#x165;" horiz-adv-x="883" 
d="M675 184q-82 -99 -162 -149.5t-170 -50.5q-106 0 -158 54t-52 157q0 63 18 141l124 519h-149l11 51q59 7 93.5 25.5t58 49t43.5 79.5t50 143h138l-55 -247h317l-22 -101h-318l-96 -388q-40 -162 -40 -242q0 -61 26.5 -92.5t77.5 -31.5q46 0 96.5 35.5t110.5 107.5z
M1030 1431q2 -10 2 -49q0 -69 -13.5 -119t-40 -89t-67.5 -77t-120 -100l-47 62q53 45 83 97.5t42 116.5t12 158h149z" />
    <glyph glyph-name="Tbar" unicode="&#x166;" horiz-adv-x="1175" 
d="M709 627l-74 -336q-9 -39 -12.5 -62t-6 -48.5t-2.5 -45.5q0 -31 10 -48.5t30 -25.5t69 -12l-11 -49h-421l11 49q39 5 58 15.5t33.5 31.5t29.5 65.5t35 136.5l72 329h-258l20 92h258l122 558h-127q-62 0 -99 -18t-74 -67t-90 -164h-96l75 337h1044l-78 -352h-96
q0 97 -5 145.5t-19 74t-34.5 35t-72.5 9.5h-148l-123 -558h256l-20 -92h-256z" />
    <glyph glyph-name="tbar" unicode="&#x167;" horiz-adv-x="735" 
d="M693 184q-82 -99 -162 -149.5t-170 -50.5q-106 0 -158 54t-52 157q0 63 18 141l32 134h-140l19 88h142l71 297h-149l11 51q59 7 93.5 25.5t58 49t43.5 79.5t50 143h138l-55 -247h317l-22 -101h-318l-74 -297h253l-19 -88h-256v-3q-40 -162 -40 -242q0 -61 26.5 -92.5
t77.5 -31.5q46 0 96.5 35.5t110.5 107.5z" />
    <glyph glyph-name="Utilde" unicode="&#x168;" horiz-adv-x="1295" 
d="M260 1316l11 49h402l-11 -49q-38 -8 -54.5 -18t-30 -30t-27 -62.5t-34.5 -138.5l-125 -560q-13 -57 -20.5 -108.5t-7.5 -106.5q0 -109 53.5 -165t161.5 -56q102 0 170 42t109 121t69 205l139 629q10 45 16 88t6 73q0 47 -24 65.5t-74 21.5l11 49h380l-11 -49
q-37 -8 -54.5 -18.5t-31 -30.5t-26.5 -63t-34 -137l-130 -599q-39 -179 -110 -285t-177.5 -153t-260.5 -47q-173 0 -265 83.5t-92 243.5q0 56 11.5 128.5t32.5 163.5l104 466q12 53 17.5 94.5t5.5 66.5q0 45 -23 64.5t-76 22.5zM1161 1720l69 -48q-50 -75 -88.5 -116
t-70.5 -57t-71 -16q-23 0 -42 6t-35.5 16t-49.5 38q-30 24 -43 33t-25 13.5t-25 4.5q-25 0 -45 -9.5t-44 -34.5t-54 -67l-70 47q61 87 93 122t64.5 51.5t77.5 16.5q16 0 29.5 -3.5t26.5 -9.5t23 -13t39 -30q41 -34 60.5 -44.5t39.5 -10.5q23 0 43 10t44 34t54 67z" />
    <glyph glyph-name="utilde" unicode="&#x169;" horiz-adv-x="1096" 
d="M153 956h315l-127 -509q-14 -56 -24.5 -111.5t-10.5 -101.5q0 -71 24.5 -102t76.5 -31q43 0 93 33.5t106 104t88.5 133.5t50.5 150l91 434h173l-152 -683q-6 -27 -14 -71t-8 -72q0 -42 23.5 -59.5t87.5 -21.5l-11 -49h-286l64 251l-13 4q-97 -138 -187.5 -204.5
t-182.5 -66.5q-97 0 -147 53.5t-50 158.5q0 30 5.5 70.5t15.5 84.5l84 355q10 44 13.5 70t3.5 44q0 45 -24 63t-86 23zM980 1365l69 -48q-50 -75 -88.5 -116t-70.5 -57t-71 -16q-23 0 -42 6t-35.5 16t-49.5 38q-30 24 -43 33t-25 13.5t-25 4.5q-25 0 -45 -9.5t-44 -34.5
t-54 -67l-70 47q61 87 93 122t64.5 51.5t77.5 16.5q16 0 29.5 -3.5t26.5 -9.5t23 -13t39 -30q41 -34 60.5 -44.5t39.5 -10.5q23 0 43 10t44 34t54 67z" />
    <glyph glyph-name="Umacron" unicode="&#x16a;" horiz-adv-x="1295" 
d="M260 1316l11 49h402l-11 -49q-38 -8 -54.5 -18t-30 -30t-27 -62.5t-34.5 -138.5l-125 -560q-13 -57 -20.5 -108.5t-7.5 -106.5q0 -109 53.5 -165t161.5 -56q102 0 170 42t109 121t69 205l139 629q10 45 16 88t6 73q0 47 -24 65.5t-74 21.5l11 49h380l-11 -49
q-37 -8 -54.5 -18.5t-31 -30.5t-26.5 -63t-34 -137l-130 -599q-39 -179 -110 -285t-177.5 -153t-260.5 -47q-173 0 -265 83.5t-92 243.5q0 56 11.5 128.5t32.5 163.5l104 466q12 53 17.5 94.5t5.5 66.5q0 45 -23 64.5t-76 22.5zM1152 1538h-530l26 125h530z" />
    <glyph glyph-name="umacron" unicode="&#x16b;" horiz-adv-x="1096" 
d="M153 956h315l-127 -509q-14 -56 -24.5 -111.5t-10.5 -101.5q0 -71 24.5 -102t76.5 -31q43 0 93 33.5t106 104t88.5 133.5t50.5 150l91 434h173l-152 -683q-6 -27 -14 -71t-8 -72q0 -42 23.5 -59.5t87.5 -21.5l-11 -49h-286l64 251l-13 4q-97 -138 -187.5 -204.5
t-182.5 -66.5q-97 0 -147 53.5t-50 158.5q0 30 5.5 70.5t15.5 84.5l84 355q10 44 13.5 70t3.5 44q0 45 -24 63t-86 23zM956 1188h-501l26 125h501z" />
    <glyph glyph-name="Ubreve" unicode="&#x16c;" horiz-adv-x="1295" 
d="M260 1316l11 49h402l-11 -49q-38 -8 -54.5 -18t-30 -30t-27 -62.5t-34.5 -138.5l-125 -560q-13 -57 -20.5 -108.5t-7.5 -106.5q0 -109 53.5 -165t161.5 -56q102 0 170 42t109 121t69 205l139 629q10 45 16 88t6 73q0 47 -24 65.5t-74 21.5l11 49h380l-11 -49
q-37 -8 -54.5 -18.5t-31 -30.5t-26.5 -63t-34 -137l-130 -599q-39 -179 -110 -285t-177.5 -153t-260.5 -47q-173 0 -265 83.5t-92 243.5q0 56 11.5 128.5t32.5 163.5l104 466q12 53 17.5 94.5t5.5 66.5q0 45 -23 64.5t-76 22.5zM1234 1748q-61 -93 -118 -149t-118 -81.5
t-146 -25.5q-72 0 -120.5 37.5t-72 103.5t-23.5 150l81 15q8 -92 47.5 -135.5t111.5 -43.5q58 0 101.5 14.5t89 52t96.5 104.5z" />
    <glyph glyph-name="ubreve" unicode="&#x16d;" horiz-adv-x="1096" 
d="M153 956h315l-127 -509q-14 -56 -24.5 -111.5t-10.5 -101.5q0 -71 24.5 -102t76.5 -31q43 0 93 33.5t106 104t88.5 133.5t50.5 150l91 434h173l-152 -683q-6 -27 -14 -71t-8 -72q0 -42 23.5 -59.5t87.5 -21.5l-11 -49h-286l64 251l-13 4q-97 -138 -187.5 -204.5
t-182.5 -66.5q-97 0 -147 53.5t-50 158.5q0 30 5.5 70.5t15.5 84.5l84 355q10 44 13.5 70t3.5 44q0 45 -24 63t-86 23zM1039 1369q-58 -98 -116.5 -153.5t-119 -79t-136.5 -23.5q-101 0 -156 76.5t-55 215.5l81 15q12 -180 153 -180q58 0 100.5 15t85.5 51.5t92 104.5z" />
    <glyph glyph-name="Uring" unicode="&#x16e;" horiz-adv-x="1295" 
d="M260 1316l11 49h402l-11 -49q-38 -8 -54.5 -18t-30 -30t-27 -62.5t-34.5 -138.5l-125 -560q-13 -57 -20.5 -108.5t-7.5 -106.5q0 -109 53.5 -165t161.5 -56q102 0 170 42t109 121t69 205l139 629q10 45 16 88t6 73q0 47 -24 65.5t-74 21.5l11 49h380l-11 -49
q-37 -8 -54.5 -18.5t-31 -30.5t-26.5 -63t-34 -137l-130 -599q-39 -179 -110 -285t-177.5 -153t-260.5 -47q-173 0 -265 83.5t-92 243.5q0 56 11.5 128.5t32.5 163.5l104 466q12 53 17.5 94.5t5.5 66.5q0 45 -23 64.5t-76 22.5zM861 1424q-86 0 -132.5 38.5t-46.5 109.5
q0 46 16.5 94t53.5 84.5t87.5 55.5t107.5 19q90 0 135.5 -38.5t45.5 -110.5q0 -66 -31 -126t-92 -93t-144 -33zM783 1578q0 -42 21.5 -67t67.5 -25q48 0 84 28.5t53.5 72.5t17.5 85q0 44 -23 67.5t-65 23.5q-43 0 -79 -25t-56.5 -68t-20.5 -92z" />
    <glyph glyph-name="uring" unicode="&#x16f;" horiz-adv-x="1096" 
d="M153 956h315l-127 -509q-14 -56 -24.5 -111.5t-10.5 -101.5q0 -71 24.5 -102t76.5 -31q43 0 93 33.5t106 104t88.5 133.5t50.5 150l91 434h173l-152 -683q-6 -27 -14 -71t-8 -72q0 -42 23.5 -59.5t87.5 -21.5l-11 -49h-286l64 251l-13 4q-97 -138 -187.5 -204.5
t-182.5 -66.5q-97 0 -147 53.5t-50 158.5q0 30 5.5 70.5t15.5 84.5l84 355q10 44 13.5 70t3.5 44q0 45 -24 63t-86 23zM679 1071q-86 0 -132.5 38.5t-46.5 109.5q0 46 16.5 94t53.5 84.5t87.5 55.5t107.5 19q90 0 135.5 -38.5t45.5 -110.5q0 -66 -31 -126t-92 -93t-144 -33z
M601 1225q0 -42 21.5 -67t67.5 -25q48 0 84 28.5t53.5 72.5t17.5 85q0 44 -23 67.5t-65 23.5q-43 0 -79 -25t-56.5 -68t-20.5 -92z" />
    <glyph glyph-name="Uhungarumlaut" unicode="&#x170;" horiz-adv-x="1295" 
d="M260 1316l11 49h402l-11 -49q-38 -8 -54.5 -18t-30 -30t-27 -62.5t-34.5 -138.5l-125 -560q-13 -57 -20.5 -108.5t-7.5 -106.5q0 -109 53.5 -165t161.5 -56q102 0 170 42t109 121t69 205l139 629q10 45 16 88t6 73q0 47 -24 65.5t-74 21.5l11 49h380l-11 -49
q-37 -8 -54.5 -18.5t-31 -30.5t-26.5 -63t-34 -137l-130 -599q-39 -179 -110 -285t-177.5 -153t-260.5 -47q-173 0 -265 83.5t-92 243.5q0 56 11.5 128.5t32.5 163.5l104 466q12 53 17.5 94.5t5.5 66.5q0 45 -23 64.5t-76 22.5zM1028 1782l-11 -50l-376 -264l-52 58l282 256
h157zM1358 1782l-11 -50l-375 -264l-52 58l282 256h156z" />
    <glyph glyph-name="uhungarumlaut" unicode="&#x171;" horiz-adv-x="1096" 
d="M153 956h315l-127 -509q-14 -56 -24.5 -111.5t-10.5 -101.5q0 -71 24.5 -102t76.5 -31q43 0 93 33.5t106 104t88.5 133.5t50.5 150l91 434h173l-152 -683q-6 -27 -14 -71t-8 -72q0 -42 23.5 -59.5t87.5 -21.5l-11 -49h-286l64 251l-13 4q-97 -138 -187.5 -204.5
t-182.5 -66.5q-97 0 -147 53.5t-50 158.5q0 30 5.5 70.5t15.5 84.5l84 355q10 44 13.5 70t3.5 44q0 45 -24 63t-86 23zM1149 1442l-11 -50l-351 -322l-58 52l284 320h136zM844 1442l-11 -50l-351 -322l-58 52l284 320h136z" />
    <glyph glyph-name="Uogonek" unicode="&#x172;" horiz-adv-x="1295" 
d="M260 1316l11 49h402l-11 -49q-38 -8 -54.5 -18t-30 -30t-27 -62.5t-34.5 -138.5l-125 -560q-13 -57 -20.5 -108.5t-7.5 -106.5q0 -109 53.5 -165t161.5 -56q102 0 170 42t109 121t69 205l139 629q10 45 16 88t6 73q0 47 -24 65.5t-74 21.5l11 49h380l-11 -49
q-37 -8 -54.5 -18.5t-31 -30.5t-26.5 -63t-34 -137l-130 -599q-30 -136 -80 -233t-128 -158q-103 -79 -161.5 -133.5t-91 -104t-32.5 -92.5q0 -49 20 -68t62 -19q33 0 61.5 10.5t50.5 23.5l16 -68q-36 -25 -83 -40.5t-86 -15.5q-87 0 -130 38.5t-43 118.5q0 126 223 269
q-62 -13 -146 -13q-173 0 -265 83.5t-92 243.5q0 56 11.5 128.5t32.5 163.5l104 466q12 53 17.5 94.5t5.5 66.5q0 45 -23 64.5t-76 22.5z" />
    <glyph glyph-name="uogonek" unicode="&#x173;" horiz-adv-x="1096" 
d="M153 956h315l-127 -509q-14 -56 -24.5 -111.5t-10.5 -101.5q0 -71 24.5 -102t76.5 -31q43 0 93 33.5t106 104t88.5 133.5t50.5 150l91 434h173l-152 -683q-6 -27 -14 -71t-8 -72q0 -42 23.5 -59.5t87.5 -21.5l-11 -49h-86q-111 -85 -155.5 -144t-44.5 -111
q0 -48 20 -66.5t62 -18.5q33 0 61.5 10.5t50.5 23.5l16 -68q-36 -25 -83 -40.5t-86 -15.5q-87 0 -130 38.5t-43 118.5q0 66 60.5 136t175.5 137h-104l64 251l-13 4q-97 -138 -187.5 -204.5t-182.5 -66.5q-97 0 -147 53.5t-50 158.5q0 30 5.5 70.5t15.5 84.5l84 355
q10 44 13.5 70t3.5 44q0 45 -24 63t-86 23z" />
    <glyph glyph-name="Wcircumflex" unicode="&#x174;" horiz-adv-x="1836" 
d="M1051 -13v732q0 178 9 371h-10l-535 -1103h-157l-47 1112q-4 83 -17.5 127t-36.5 64t-65 26l11 49h417l-11 -49q-45 -3 -70.5 -26.5t-35.5 -64t-10 -114.5v-34q0 -18 1 -37l9 -391q1 -43 1 -132v-81l-1 -209h10l553 1138h151v-667q0 -119 -3 -231l-6 -240h10l405 783
q23 44 48.5 103.5t25.5 102.5q0 40 -23.5 65.5t-76.5 34.5l11 49h409l-11 -49q-46 -6 -88 -50.5t-112 -173.5l-601 -1105h-154zM1283 1780l161 -261l-66 -50l-180 182h-10l-263 -183l-52 62l274 250h136z" />
    <glyph glyph-name="wcircumflex" unicode="&#x175;" horiz-adv-x="1490" 
d="M979 166q156 222 237.5 387.5t81.5 269.5q0 47 -20 64t-68 20l10 49h258l27 -50q-35 -89 -56 -137t-55 -115.5t-72 -134.5t-89.5 -147.5t-115.5 -175t-151 -212.5h-119l-41 418q-5 49 -10.5 128t-7.5 122l-11 1q-54 -133 -147 -296t-230 -373h-134l-76 753q-6 58 -15 94
t-30 54t-69 22l11 49h262l60 -789q141 230 203.5 350t92.5 207.5t46 182.5l11 49h144zM1025 1432l132 -337l-79 -35l-138 243h-10l-256 -243l-62 57l277 315h136z" />
    <glyph glyph-name="Ycircumflex" unicode="&#x176;" horiz-adv-x="1122" 
d="M587 1365l-11 -49q-42 -4 -64 -24.5t-22 -63.5q0 -61 28 -160l106 -377l246 329q55 73 79.5 114.5t34.5 73.5q8 24 8 46q0 28 -19 43t-55 19l11 49h375l-11 -49q-24 -5 -41.5 -14.5t-40 -30.5t-61 -67.5t-98.5 -124.5l-389 -505l-62 -283q-9 -40 -12.5 -62.5t-6 -48
t-2.5 -45.5q0 -31 10 -48.5t30 -25.5t69 -12l-11 -49h-421l11 49q40 6 59 16t33.5 31t29 66t34.5 136l59 276l-145 505q-33 116 -52 157t-40.5 58t-56.5 22l11 49h387zM926 1780l161 -261l-66 -50l-180 182h-10l-263 -183l-52 62l274 250h136z" />
    <glyph glyph-name="ycircumflex" unicode="&#x177;" horiz-adv-x="942" 
d="M185 738q-10 76 -19 105.5t-29 45t-65 18.5l11 49h257l76 -795q338 462 338 662q0 47 -20 64t-68 20l10 49h258l27 -50q-53 -139 -135.5 -288t-202 -326t-265.5 -368q-112 -147 -188 -222q-59 -57 -108.5 -86.5t-96 -42t-98.5 -12.5q-27 0 -61 5.5t-58 14.5l43 187h78
q1 -34 16 -54t44 -20q32 0 55 6.5t48.5 21.5t62 48t82.5 87.5t103 131.5zM736 1432l132 -337l-79 -35l-138 243h-10l-256 -243l-62 57l277 315h136z" />
    <glyph glyph-name="Ydieresis" unicode="&#x178;" horiz-adv-x="1122" 
d="M587 1365l-11 -49q-42 -4 -64 -24.5t-22 -63.5q0 -61 28 -160l106 -377l246 329q55 73 79.5 114.5t34.5 73.5q8 24 8 46q0 28 -19 43t-55 19l11 49h375l-11 -49q-24 -5 -41.5 -14.5t-40 -30.5t-61 -67.5t-98.5 -124.5l-389 -505l-62 -283q-9 -40 -12.5 -62.5t-6 -48
t-2.5 -45.5q0 -31 10 -48.5t30 -25.5t69 -12l-11 -49h-421l11 49q40 6 59 16t33.5 31t29 66t34.5 136l59 276l-145 505q-33 116 -52 157t-40.5 58t-56.5 22l11 49h387zM1095 1691l-38 -176h-165l38 176h165zM745 1691l-38 -176h-165l38 176h165z" />
    <glyph glyph-name="Zacute" unicode="&#x179;" horiz-adv-x="1049" 
d="M237 92h320q44 0 72 6t50 18t41 30t38.5 43t43 67t51.5 106h96l-77 -362h-887l10 49l908 1224h-307q-42 0 -67 -4.5t-44 -14t-34 -22t-35.5 -37t-45 -63.5t-56.5 -105h-96l74 338h866l-11 -48zM1089 1782l-11 -50l-425 -268l-50 71l268 247h218z" />
    <glyph glyph-name="zacute" unicode="&#x17a;" horiz-adv-x="921" 
d="M797 281l-61 -281h-724l-19 49l547 630q116 133 170 189l-6 7h-234q-52 0 -76 -7t-48 -24.5t-51.5 -52t-61.5 -98.5h-89l59 263h711l19 -50l-718 -818l6 -7h226q60 0 92 6.5t56 24.5t49.5 54.5t63.5 114.5h89zM923 1442l-11 -50l-374 -322l-62 60l263 312h184z" />
    <glyph glyph-name="Zdotaccent" unicode="&#x17b;" horiz-adv-x="1049" 
d="M237 92h320q44 0 72 6t50 18t41 30t38.5 43t43 67t51.5 106h96l-77 -362h-887l10 49l908 1224h-307q-42 0 -67 -4.5t-44 -14t-34 -22t-35.5 -37t-45 -63.5t-56.5 -105h-96l74 338h866l-11 -48zM884 1699l-46 -194h-177l46 194h177z" />
    <glyph glyph-name="zdotaccent" unicode="&#x17c;" horiz-adv-x="921" 
d="M797 281l-61 -281h-724l-19 49l547 630q116 133 170 189l-6 7h-234q-52 0 -76 -7t-48 -24.5t-51.5 -52t-61.5 -98.5h-89l59 263h711l19 -50l-718 -818l6 -7h226q60 0 92 6.5t56 24.5t49.5 54.5t63.5 114.5h89zM742 1348l-46 -194h-177l46 194h177z" />
    <glyph glyph-name="Zcaron" unicode="&#x17d;" horiz-adv-x="1049" 
d="M237 92h320q44 0 72 6t50 18t41 30t38.5 43t43 67t51.5 106h96l-77 -362h-887l10 49l908 1224h-307q-42 0 -67 -4.5t-44 -14t-34 -22t-35.5 -37t-45 -63.5t-56.5 -105h-96l74 338h866l-11 -48zM674 1468l-161 261l66 50l180 -182h10l263 183l52 -62l-274 -250h-136z" />
    <glyph glyph-name="zcaron" unicode="&#x17e;" horiz-adv-x="921" 
d="M797 281l-61 -281h-724l-19 49l547 630q116 133 170 189l-6 7h-234q-52 0 -76 -7t-48 -24.5t-51.5 -52t-61.5 -98.5h-89l59 263h711l19 -50l-718 -818l6 -7h226q60 0 92 6.5t56 24.5t49.5 54.5t63.5 114.5h89zM524 1080l-132 335l78 37l138 -243h10l256 243l63 -57
l-278 -315h-135z" />
    <glyph glyph-name="longs" unicode="&#x17f;" horiz-adv-x="562" 
d="M253 -17q-34 -157 -91.5 -251t-143 -136.5t-208.5 -42.5q-44 0 -79 10l23 88q24 -8 70 -8q53 0 86.5 14t62 45.5t54 92t48.5 159.5l202 901h-121l12 51q43 5 62.5 11.5t30 15.5t19 24.5t15.5 35.5t26 82q53 180 163.5 270.5t281.5 90.5q98 0 169 -16l-39 -170h-88
q-14 57 -36.5 82t-66.5 25q-58 0 -99 -33.5t-70.5 -100.5t-52.5 -176zM692 956z" />
    <glyph glyph-name="uni0180" unicode="&#x180;" horiz-adv-x="1067" 
d="M233 49l-92 -65l-64 16l256 1130h-141l19 88h140q9 43 9 73q0 42 -26 59t-92 19l12 52l253 9h58l-54 -212h338l-19 -88h-341l-100 -400l13 -4q97 130 182 188t170 58q109 0 169.5 -83t60.5 -234q0 -108 -29.5 -217t-82 -197t-117 -144.5t-136 -84.5t-150.5 -28
q-133 0 -236 65zM321 348q-10 -45 -12.5 -76.5t-2.5 -59.5q0 -79 34.5 -114t114.5 -35q52 0 95 20t81.5 58.5t70 93.5t55.5 125.5t36.5 146t12.5 140.5q0 104 -29.5 156t-94.5 52q-48 0 -94.5 -30.5t-103.5 -101t-93 -144.5t-61 -189z" />
    <glyph glyph-name="uni0181" unicode="&#x181;" horiz-adv-x="1397" 
d="M591 1277q-44 0 -92 -8.5t-92 -38t-81.5 -85.5t-58.5 -152h-149l35 160q53 66 113.5 107t126.5 64.5t136.5 32t144.5 8.5h301q150 0 240.5 -31.5t133 -92.5t42.5 -153q0 -131 -80 -228.5t-238 -149.5l-2 -11q93 -37 143 -105.5t50 -155.5q0 -103 -37.5 -184.5
t-118.5 -142.5t-186 -86t-259 -25h-445l11 49q38 6 57 19.5t32 37.5t24 58.5t33 133.5zM509 92q78 -4 146 -4q151 0 233.5 38t133.5 124t51 206q0 65 -25.5 110t-81 72t-152.5 27h-181zM795 753q104 0 167.5 14t103.5 42t71.5 65.5t50 88.5t18.5 120q0 43 -15 80.5t-51.5 64
t-84 38t-126.5 11.5h-161l-114 -524h141z" />
    <glyph glyph-name="uni0182" unicode="&#x182;" horiz-adv-x="1210" 
d="M1061 1058q-4 72 -13.5 114t-25.5 64q-14 20 -37 26.5t-66 6.5h-328l-112 -507q60 7 125 11t138 4q69 0 135.5 -15.5t118 -52t83 -97t31.5 -150.5q0 -129 -50 -223t-156 -157q-34 -20 -73.5 -35.5t-88.5 -26t-109.5 -15.5t-137.5 -5h-453l11 49q31 5 51 16t35.5 37.5
t29 73t30.5 122.5l170 770q9 42 15.5 83t6.5 75q0 44 -20 65t-78 25l11 49h922l-69 -307h-96zM335 100q40 -2 83.5 -3t89.5 -1q69 0 120 8.5t90 24t68.5 38.5t53.5 51q40 47 59 105.5t19 127.5q0 111 -65 169.5t-199 58.5q-55 0 -100.5 -3t-95.5 -9z" />
    <glyph glyph-name="uni0183" unicode="&#x183;" horiz-adv-x="1067" 
d="M233 49l-92 -65l-64 16l256 1134q6 25 14.5 72t8.5 76q0 42 -25.5 59t-91.5 19l12 52l253 9h576l-59 -267h-79q-3 63 -11 100.5t-22 57.5q-11 17 -31 22.5t-56 5.5h-286l-147 -610l13 -4q97 130 182 188t170 58q109 0 169.5 -83t60.5 -234q0 -108 -29.5 -217t-82 -197
t-117 -144.5t-136 -84.5t-150.5 -28q-133 0 -236 65zM321 348q-10 -45 -12.5 -76.5t-2.5 -59.5q0 -79 34.5 -114t114.5 -35q52 0 95 20t81.5 58.5t70 93.5t55.5 125.5t36.5 146t12.5 140.5q0 104 -29.5 156t-94.5 52q-48 0 -94.5 -30.5t-103.5 -101t-93 -144.5t-61 -189z
" />
    <glyph glyph-name="uni0184" unicode="&#x184;" horiz-adv-x="1204" 
d="M479 762q60 7 125 11t138 4q69 0 135.5 -15.5t118 -52t83 -97t31.5 -150.5q0 -129 -50 -223t-156 -157q-34 -20 -73.5 -35.5t-88.5 -26t-109.5 -15.5t-137.5 -5h-453l11 49q31 5 51 16t35.5 37.5t29 73t30.5 122.5l131 595l-100 190l11 53l288 229h84zM335 100
q40 -2 83.5 -3t89.5 -1q69 0 120 8.5t90 24t68.5 38.5t53.5 51q40 47 59 105.5t19 127.5q0 111 -65 169.5t-199 58.5q-55 0 -100.5 -3t-95.5 -9z" />
    <glyph glyph-name="uni0185" unicode="&#x185;" horiz-adv-x="1082" 
d="M221 1201l293 229h66l-176 -700l13 -4q97 130 182 188t170 58q109 0 169.5 -83t60.5 -234q0 -108 -29.5 -217t-82 -197t-117 -144.5t-136 -84.5t-150.5 -28q-133 0 -236 65l-92 -65l-64 16l217 959l-100 187zM336 348q-10 -45 -12.5 -76.5t-2.5 -59.5q0 -79 34.5 -114
t114.5 -35q52 0 95 20t81.5 58.5t70 93.5t55.5 125.5t36.5 146t12.5 140.5q0 104 -29.5 156t-94.5 52q-48 0 -94.5 -30.5t-103.5 -101t-93 -144.5t-61 -189z" />
    <glyph glyph-name="uni0186" unicode="&#x186;" horiz-adv-x="1110" 
d="M17 34l63 285h96q1 -51 9 -95.5t28.5 -78t56.5 -53t93 -19.5q68 0 126.5 27t108 73t90.5 108.5t73 133.5t55.5 147t39.5 149.5t23.5 141.5t7.5 123q0 64 -9.5 121.5t-35 100.5t-69.5 68.5t-113 25.5q-62 0 -110 -18t-86 -49t-69 -74t-59 -92h-96l58 269q96 23 186.5 38
t172.5 15q91 0 168 -21.5t133 -72.5t87 -134.5t31 -207.5q0 -73 -14.5 -172.5t-48.5 -206.5t-89 -211t-136 -186.5t-190.5 -133.5t-250.5 -51q-79 0 -162 12t-168 38z" />
    <glyph glyph-name="uni0187" unicode="&#x187;" horiz-adv-x="1105" 
d="M1124 1059h-96q-8 123 -53.5 177.5t-146.5 54.5q-84 0 -158 -49.5t-140 -143t-115 -219t-75 -256t-26 -235.5q0 -163 53.5 -239.5t167.5 -76.5q75 0 131 22.5t105 76t97 149.5h96l-61 -284q-102 -28 -197 -40t-195 -12q-124 0 -211 51.5t-131 149t-44 234.5q0 72 10 140
q12 84 38 183q33 123 83 224q54 107 123 189q65 76 141 127q70 47 151 73t172 26q120 0 230 -27q48 158 137 232.5t216 74.5q77 0 136 -19l-41 -182h-95q0 39 -17.5 53.5t-51.5 14.5q-63 0 -112 -71t-83 -228z" />
    <glyph glyph-name="uni0188" unicode="&#x188;" horiz-adv-x="1053" 
d="M735 716q-2 76 -12.5 110t-34 51t-66.5 17q-101 0 -181.5 -80.5t-131.5 -228t-51 -283.5q0 -42 7.5 -79t26 -64t49 -42.5t77.5 -15.5q91 0 157.5 34.5t140.5 108.5l61 -61q-94 -104 -189.5 -152t-205.5 -48q-145 0 -220 86t-75 250q0 107 40 235t117 225t180 145t220 48
q73 0 147 -14q25 96 60.5 156.5t78.5 95t91 47t99 12.5q73 0 133 -20l-42 -191h-92q1 13 1 23q0 42 -17.5 57.5t-48.5 15.5q-65 0 -105 -62.5t-65 -174.5l-44 -201h-105z" />
    <glyph glyph-name="uni0189" unicode="&#x189;" horiz-adv-x="1330" 
d="M122 761h185l68 307q10 45 16 88t6 73q0 47 -24 65.5t-74 21.5l11 49h379q151 0 245 -23t175.5 -83t122.5 -159.5t41 -235.5q0 -135 -31 -258t-89 -226.5t-139 -180t-157 -117.5t-170 -61.5t-219 -20.5h-420l11 49q38 6 57 19.5t32 37.5t24 58.5t33 133.5l82 371h-185z
M484 761h304l-20 -92h-304l-126 -577q29 -3 111 -3q101 0 183.5 22t152 70.5t126.5 129.5t92.5 164.5t55.5 179.5t20 203q0 209 -97.5 314.5t-289.5 105.5q-44 0 -95 -3z" />
    <glyph glyph-name="uni018A" unicode="&#x18a;" horiz-adv-x="1499" 
d="M858 1365q151 0 245 -23t175.5 -83t122.5 -159.5t41 -235.5q0 -135 -31 -258t-89 -226.5t-139 -180t-157 -117.5t-170 -61.5t-219 -20.5h-420l11 49q38 6 57 19.5t32 37.5t24 58.5t33 133.5l216 979q-44 0 -91.5 -8.5t-91.5 -38t-81.5 -85.5t-58.5 -152h-149l35 160
q53 66 113.5 107t126.5 64.5t136.5 32t144.5 8.5h184zM507 92q29 -3 111 -3q101 0 183.5 22t152 70.5t126.5 129.5t92.5 164.5t55.5 179.5t20 203q0 209 -97.5 314.5t-289.5 105.5h-94z" />
    <glyph glyph-name="uni018B" unicode="&#x18b;" horiz-adv-x="1210" 
d="M308 1058l67 307h882l-11 -49q-35 -6 -56.5 -19.5t-36.5 -41.5t-26.5 -73t-26.5 -114l-168 -770q-24 -108 -24 -160q0 -25 5.5 -41t17.5 -25.5t30.5 -14.5t44.5 -8l-11 -49h-518q-122 0 -202.5 25t-128.5 67.5t-67.5 98t-19.5 117.5q0 54 11.5 110t38.5 108.5t71 98
t108.5 80t151.5 54t200 19.5q62 0 115 -5t101 -11l110 507h-328q-43 0 -68 -6.5t-49 -26.5q-26 -22 -53.5 -64t-63.5 -114h-96zM835 667q-24 3 -46.5 5t-46.5 3.5t-50.5 2.5t-58.5 1q-102 0 -174.5 -28.5t-118 -77t-66.5 -112.5t-21 -135q0 -111 66.5 -170.5t215.5 -59.5
q46 0 89.5 1t83.5 3z" />
    <glyph glyph-name="uni018C" unicode="&#x18c;" horiz-adv-x="1073" 
d="M837 278q-14 -63 -19 -94t-5 -52q0 -41 23 -59.5t88 -23.5l-9 -49h-286l63 251l-13 4q-96 -140 -182 -205t-182 -65q-110 0 -170.5 83t-60.5 233q0 96 22 192.5t66.5 183t106.5 152.5t143.5 105t177.5 39q61 0 112.5 -12.5t105.5 -43.5l95 423h-270q-25 0 -42.5 -2
t-31 -6t-24 -10t-20.5 -15q-23 -18 -47 -54t-54 -99h-79l59 267h690zM746 609q15 72 15 136q0 78 -33 113.5t-110 35.5q-42 0 -80 -13.5t-77 -45t-74.5 -82.5t-64.5 -124t-45 -156.5t-16 -162.5q0 -104 28.5 -155.5t95.5 -51.5q31 0 64.5 14t74.5 51.5t93 110.5
q47 67 74.5 132.5t45.5 154.5z" />
    <glyph glyph-name="uni018D" unicode="&#x18d;" horiz-adv-x="1024" 
d="M-5 -203h93q22 -83 82 -123.5t165 -40.5q77 0 122 34t45 93q0 34 -17.5 67.5t-45.5 68.5t-64.5 71.5t-73.5 77.5q-38 41 -74 86.5t-64.5 98t-45.5 112.5t-17 130q0 49 12.5 105t39 111.5t67 106.5t96.5 90.5t127 63t159 23.5q79 0 144.5 -26.5t112 -73t72 -111.5
t25.5 -141q0 -106 -31.5 -194.5t-91.5 -159.5t-147 -126.5t-198 -95.5q33 -35 60.5 -68.5t48 -67t32 -67t11.5 -67.5q0 -57 -25.5 -98.5t-69 -69t-101 -40.5t-120.5 -13q-93 0 -182 22.5t-174 76.5zM440 108q101 46 166.5 107.5t104 132.5t53.5 147t15 151q0 46 -12 91
t-36.5 80t-61.5 56.5t-87 21.5q-49 0 -90.5 -19.5t-74.5 -52t-58.5 -75t-42.5 -89.5t-25.5 -95.5t-8.5 -91.5q0 -186 158 -364z" />
    <glyph glyph-name="uni018E" unicode="&#x18e;" horiz-adv-x="1174" 
d="M960 0h-929l59 351h97q4 -87 11.5 -127t19.5 -65.5t30 -41.5t45.5 -22.5t71.5 -6.5h306l126 577h-196q-36 0 -60 -3.5t-43 -18t-36.5 -44t-40.5 -81.5h-87l80 379h90q0 -45 6.5 -73t20.5 -44t37.5 -21.5t57.5 -5.5h190l116 524h-326q-36 0 -57.5 -4t-38.5 -13.5t-35 -29
t-44 -60t-60 -107.5h-96l66 302h881l-11 -49q-38 -8 -54.5 -18t-30 -30t-27 -62.5t-34.5 -138.5l-171 -776q-13 -59 -17 -93.5t-4 -62.5q0 -45 22.5 -63.5t75.5 -22.5z" />
    <glyph glyph-name="uni018F" unicode="&#x18f;" horiz-adv-x="1265" 
d="M118 421q0 128 35 280h860q17 76 25 148t8 135q0 158 -60 231t-187 73q-110 0 -192.5 -56.5t-142.5 -174.5h-99l57 257q100 31 200 49t211 18q192 0 295 -106t103 -329q0 -105 -19 -217.5t-57 -219t-96.5 -202t-137.5 -167.5t-179 -114t-221 -42q-108 0 -184.5 31.5
t-125 89.5t-71 138t-22.5 178zM531 71q57 0 108.5 21t96 58t83 87.5t70.5 110.5t57.5 126.5t44.5 134.5h-663q-9 -54 -15.5 -113t-6.5 -117q0 -61 10 -117t35.5 -98.5t69 -67.5t110.5 -25z" />
    <glyph glyph-name="uni0190" unicode="&#x190;" horiz-adv-x="1051" 
d="M483 80q64 0 114 15.5t89 45t70 73t58 100.5h98l-61 -273q-90 -26 -183.5 -41.5t-199.5 -15.5q-73 0 -145.5 15t-130 51t-93.5 95t-36 147q0 79 26 143t73 114t112.5 86t143.5 59l4 13q-42 15 -77.5 37.5t-61 53t-39.5 69.5t-14 87q0 71 21 130t57.5 106.5t86.5 83
t108 59.5t121.5 36t127.5 12q48 0 91.5 -3.5t86 -10.5t86.5 -18t92 -26l-57 -266h-95q-4 57 -18 100t-41 71.5t-67.5 43t-97.5 14.5q-50 0 -105.5 -17t-102 -55t-77.5 -100t-31 -152q0 -56 17 -93t48 -60t72.5 -32.5t91.5 -9.5h202l-25 -116h-200q-80 0 -147.5 -23.5
t-117 -68t-77 -108t-27.5 -143.5q0 -109 60 -168.5t170 -59.5z" />
    <glyph glyph-name="uni0191" unicode="&#x191;" horiz-adv-x="1079" 
d="M318 17q-24 -111 -62.5 -189.5t-90.5 -128t-118 -72t-146 -22.5q-48 0 -89.5 5.5t-81.5 13.5l45 196h84q5 -71 28.5 -98.5t65.5 -27.5t71 27.5t49.5 72.5t35 101.5t27.5 115.5l233 1057q22 100 22 158q0 49 -23 68t-75 22l11 49h902l-69 -307h-96q-4 71 -11 111.5
t-17.5 60.5t-23.5 29.5t-32.5 13.5t-55.5 4h-308l-119 -544h187q44 0 73 12t54 43.5t62 107.5h91l-97 -422h-88q0 62 -2.5 97t-12 49t-27 19.5t-63.5 5.5h-196z" />
    <glyph glyph-name="florin" unicode="&#x192;" horiz-adv-x="599" 
d="M278 855h-121l12 51q49 5 69 13.5t32.5 23t22.5 41t29 91.5q53 180 163.5 270.5t281.5 90.5q98 0 169 -16l-39 -170h-88q-14 57 -36.5 82t-66.5 25q-57 0 -97 -31t-68.5 -93.5t-52.5 -167.5l-25 -109h229l-22 -101h-230l-194 -891q-44 -203 -142 -303.5t-252 -100.5
q-76 0 -148 16l39 170h67q7 -41 20 -65t30.5 -33t42.5 -9q41 0 67.5 25.5t49.5 87.5q11 29 23 74t26 105z" />
    <glyph glyph-name="uni0193" unicode="&#x193;" horiz-adv-x="1198" 
d="M816 320q22 94 22 161q0 47 -24 65.5t-74 21.5l11 49h400l-11 -49q-34 -8 -48.5 -15t-25.5 -19.5t-22 -34.5t-22.5 -63.5t-27.5 -116.5l-69 -314l-79 -22l-52 79q-72 -34 -112 -48t-83 -22t-91 -8q-123 0 -209.5 52t-130 148.5t-43.5 228.5q0 107 22 219q25 127 67 237
q40 106 92.5 189.5t117.5 148.5q57 56 125 95t143 59t158 20q122 0 235 -27q48 158 137 232.5t216 74.5q77 0 136 -19l-41 -182h-95q0 39 -17.5 53.5t-51.5 14.5q-63 0 -112 -71t-83 -228l-38 -170h-96q-7 87 -29.5 137.5t-65 73.5t-110.5 23q-84 0 -155 -44.5
t-136.5 -130.5t-119 -217t-82 -267t-28.5 -246q0 -162 53.5 -239.5t164.5 -77.5q41 0 84 9.5t80.5 32.5t66.5 62t42 98z" />
    <glyph glyph-name="uni0194" unicode="&#x194;" horiz-adv-x="1218" 
d="M992 1365h409l-11 -49q-24 -5 -44.5 -15t-43.5 -32t-52 -60t-70 -98l-498 -739q22 -68 37.5 -124t26 -103t15.5 -88.5t5 -81.5q0 -79 -25.5 -146t-71 -116t-109.5 -76.5t-140 -27.5q-98 0 -153.5 51.5t-55.5 150.5q0 59 23 121t62.5 126t91.5 130t109 132l-196 774
q-19 73 -33 115t-29 63.5t-33.5 29.5t-45.5 14l11 49h426l-11 -49q-29 -3 -49.5 -13.5t-34 -26.5t-19.5 -36.5t-6 -41.5q0 -44 16 -108l152 -610l362 568q14 22 27.5 44.5t24 45t17 44t6.5 41.5q0 33 -22.5 57.5t-78.5 35.5zM534 206q-36 -45 -70.5 -91t-61.5 -92.5
t-43 -93.5t-16 -93q0 -24 4.5 -44.5t15.5 -36t29 -24.5t44 -9q40 0 68.5 22t46.5 55.5t26 73.5t8 75q0 60 -14 123.5t-37 134.5z" />
    <glyph glyph-name="uni0195" unicode="&#x195;" horiz-adv-x="1574" 
d="M1286 903l10 53h182q10 -46 14.5 -93.5t4.5 -95.5q0 -84 -14 -174.5t-42.5 -177.5t-72 -165t-102.5 -137.5t-134.5 -94t-167.5 -34.5q-78 0 -131 16.5t-85.5 46.5t-46.5 72t-14 92q0 28 4 59t14 72l40 166q14 55 24.5 111.5t10.5 102.5q0 72 -24 102.5t-81 30.5
q-41 0 -90.5 -34t-104.5 -103.5t-87.5 -133t-51.5 -151.5l-91 -433h-173l257 1143q11 50 15.5 72.5t6.5 41.5t2 34q0 42 -25.5 59t-91.5 19l12 52l253 9h58l-172 -693l12 -4q94 125 179 182t173 57q97 0 147 -53.5t50 -158.5q0 -64 -20 -154l-61 -259q-8 -36 -11 -61.5
t-3 -48.5q0 -72 33.5 -109.5t109.5 -37.5q60 0 108 27t85.5 72t64 104t44 123.5t25.5 129t8 121.5q0 66 -10 127t-40 109z" />
    <glyph glyph-name="uni0196" unicode="&#x196;" horiz-adv-x="632" 
d="M598 109q-151 -125 -270 -125q-173 0 -173 175q0 20 2.5 45t10.5 60l177 804q10 46 16 88.5t6 72.5q0 48 -23.5 66t-74.5 21l11 49h309l-246 -1117q-6 -29 -6 -56q0 -51 22.5 -74.5t57.5 -23.5q32 0 69 18.5t74 53.5z" />
    <glyph glyph-name="uni0197" unicode="&#x197;" horiz-adv-x="656" 
d="M376 291q-13 -59 -17 -93.5t-4 -62.5q0 -45 22.5 -63.5t75.5 -22.5l-11 -49h-400l11 49q38 6 57 19.5t32 37.5t24 58.5t33 133.5l82 371h-197l20 92h197l68 307q10 46 16 88.5t6 72.5q0 47 -24 65.5t-74 21.5l11 49h400l-11 -49q-38 -8 -54.5 -18t-30 -30t-27 -62.5
t-34.5 -138.5l-68 -306h197l-20 -92h-197z" />
    <glyph glyph-name="uni0198" unicode="&#x198;" horiz-adv-x="1235" 
d="M476 748h33q22 0 43 2.5t43.5 12.5t47 30t53.5 55l324 395q28 34 56 60t58.5 43t65 25.5t76.5 8.5q41 0 72 -5t61 -15l-46 -217h-94q-2 56 -20 74.5t-45 18.5q-11 0 -21 -2.5t-22 -10t-27 -21.5t-35 -38l-342 -410l212 -508q27 -65 43.5 -95.5t35.5 -51t43 -33t58 -17.5
l-11 -49h-386l11 49q54 5 54 48q0 13 -2.5 27t-11 41t-23.5 65l-130 318q-23 57 -40 80t-36 32t-59 9h-56l-83 -378q-13 -60 -17 -94.5t-4 -61.5q0 -45 22.5 -63.5t75.5 -22.5l-11 -49h-400l11 49q38 6 57 19.5t32 37.5t24 58.5t33 133.5l170 770q10 46 16 88.5t6 72.5
q0 47 -24 65.5t-74 21.5l11 49h400l-11 -49q-38 -8 -54.5 -18t-30 -30t-27 -62.5t-34.5 -138.5z" />
    <glyph glyph-name="uni0199" unicode="&#x199;" horiz-adv-x="1018" 
d="M312 1045q23 103 64 177t98 121.5t128 70t157 22.5q98 0 169 -16l-39 -170h-88q-14 57 -36.5 82t-66.5 25q-57 0 -97 -31t-68.5 -93.5t-52.5 -167.5l-112 -508h32q31 0 67 12t77 37.5t110 80.5q52 42 77 71.5t34 51.5t9 42q0 49 -68 55l11 49h324l19 -49
q-83 -75 -176 -147l-253 -197l150 -379q20 -51 41 -78.5t48.5 -40.5t70.5 -16l-11 -49h-267l-146 411q-14 39 -24 53t-23 20t-42 6h-74l-104 -490h-173z" />
    <glyph glyph-name="uni019A" unicode="&#x19a;" horiz-adv-x="566" 
d="M515 1430h59l-140 -635h218l-20 -92h-218l-100 -453q-11 -48 -14 -72.5t-3 -41.5q0 -30 10 -47t31 -26t69 -14l-8 -49h-312l158 703h-219l20 92h219l80 353q10 44 14 66t6 42t2 35q0 30 -11 45.5t-31.5 22.5t-73.5 10l12 52z" />
    <glyph glyph-name="uni019B" unicode="&#x19b;" horiz-adv-x="961" 
d="M938 104q-88 -120 -184 -120q-54 0 -88.5 37t-53 109t-25.5 172l-30 435h-6q-60 -114 -210 -387q-139 -251 -187 -350h-205l10 49l39 40q51 51 115 157l426 700q-6 68 -15 122l-249 -135l-39 77l271 146q-31 151 -155 151q-82 0 -151 -70l-37 49q128 150 248 150
q170 0 209 -218l218 118l39 -77l-243 -131q2 -22 4 -45q28 -387 55 -611t57 -293.5t74 -69.5q42 0 74 45z" />
    <glyph glyph-name="uni019C" unicode="&#x19c;" horiz-adv-x="1834" 
d="M337 1074q11 46 16 84t5 72q0 24 -6 40t-18 25.5t-30.5 14t-43.5 6.5l11 49h400l-11 -49q-31 -5 -51 -16t-35.5 -37t-29 -72.5t-30.5 -123.5l-147 -671q-6 -26 -10 -45t-6.5 -36.5t-3.5 -35t-1 -39.5q0 -59 35 -94.5t92 -35.5q40 0 90 19.5t95.5 53.5t81 80.5t47.5 101.5
l156 709q10 46 15.5 84t5.5 72q0 24 -6 40t-18 25.5t-30.5 14t-43.5 6.5l11 49h400l-11 -49q-31 -5 -51 -16t-35.5 -37t-29 -72.5t-30.5 -123.5l-149 -672q-6 -27 -10 -47.5t-6.5 -38t-3.5 -34t-1 -35.5q0 -25 8 -48.5t24 -41.5t39.5 -29t54.5 -11q45 0 96 21t96 56t79 81.5
t45 97.5l156 708q8 36 14.5 74.5t6.5 81.5q0 25 -6 40.5t-18.5 25t-31 13.5t-42.5 7l11 49h400l-11 -49q-31 -5 -51 -16t-35.5 -37t-29 -72.5t-30.5 -123.5l-171 -776q-11 -49 -16 -85.5t-5 -70.5q0 -48 24 -65t74 -21l-11 -49h-300l34 147l-12 3q-62 -57 -116.5 -89
t-100.5 -49.5t-82.5 -22.5t-60.5 -5q-53 0 -91.5 14t-64 39.5t-39.5 61t-18 79.5q-44 -45 -92.5 -81t-99 -61t-101 -38.5t-98.5 -13.5t-88 13t-68 41t-43.5 72t-15.5 107q0 73 22 171z" />
    <glyph glyph-name="uni019D" unicode="&#x19d;" horiz-adv-x="1374" 
d="M272 54q-19 -89 -47 -170t-73.5 -143t-113 -99t-166.5 -37q-81 0 -134 20l39 187h101q3 -72 61 -72q28 0 55 11.5t51.5 41t46.5 80t39 127.5l236 1068q10 43 16 82t6 79q0 47 -24 65.5t-74 21.5l11 49h319l264 -779q57 -168 88 -284h11q8 61 36.5 203t52.5 248l70 315
q7 33 14.5 78t7.5 83q0 47 -24 65.5t-74 21.5l11 49h350l-11 -49q-38 -8 -54.5 -18t-30 -30t-27 -62.5t-34.5 -138.5l-235 -1067h-136l-292 858q-53 154 -93 307h-13q-6 -51 -33 -194.5t-57 -280.5z" />
    <glyph glyph-name="uni019E" unicode="&#x19e;" horiz-adv-x="1085" 
d="M836 -429h-315l234 937q12 49 23.5 108t11.5 106q0 71 -24.5 102t-76.5 31q-42 0 -90.5 -32.5t-101.5 -97t-89.5 -131t-56.5 -161.5l-91 -433h-173l152 683q5 23 13.5 68t8.5 75q0 28 -8.5 43.5t-29 23t-69.5 10.5l12 53l227 9h57l-67 -260l12 -4q98 138 189 204.5
t182 66.5q97 0 147 -53.5t50 -158.5q0 -36 -6.5 -78.5t-14.5 -75.5l-191 -785q-17 -72 -17 -114q0 -30 10 -47t31 -26t69 -14z" />
    <glyph glyph-name="uni019F" unicode="&#x19f;" horiz-adv-x="1273" 
d="M1239 945q0 -201 -82.5 -439.5t-247.5 -380.5t-376 -142q-201 0 -305 112t-104 320q0 202 84 444.5t248.5 382t380.5 139.5q192 0 297 -111.5t105 -324.5zM373 768h657q19 103 19 219q0 306 -223 306q-144 0 -261 -136t-192 -389zM1007 662h-661q-34 -159 -34 -282
q0 -309 225 -309q152 0 276 154.5t194 436.5z" />
    <glyph glyph-name="Ohorn" unicode="&#x1a0;" horiz-adv-x="1446" 
d="M837 1381q176 0 277.5 -92.5t118.5 -251.5q53 12 79.5 40.5t42 65.5t29.5 92.5t30 129.5h185l-9 -44q-18 -89 -48 -161.5t-98 -124.5t-205 -71v-19q0 -155 -53 -348.5t-153.5 -335t-229.5 -210t-270 -68.5q-140 0 -231.5 54t-134.5 150.5t-43 227.5q0 127 36.5 284.5
t100 284.5t151 216t195.5 135t230 46zM1049 987q0 306 -223 306q-54 0 -102 -18q-56 -22 -107 -65q-57 -49 -106 -125q-58 -90 -101 -205q-45 -120 -72 -259q-26 -133 -26 -241q0 -156 56.5 -232.5t168.5 -76.5q90 0 171 55q100 67 180 213q86 157 133 383q28 133 28 265z
" />
    <glyph glyph-name="ohorn" unicode="&#x1a1;" horiz-adv-x="1191" 
d="M409 -17q-155 0 -240.5 87t-85.5 250q0 60 15 141q19 105 54 186q45 101 115.5 174.5t162 112t196.5 38.5q299 0 326 -295q49 16 74.5 54t40 92t31.5 133h163l-9 -43q-15 -65 -36.5 -121t-60.5 -94.5t-93.5 -59.5t-108.5 -26q-2 -80 -24 -168q-36 -148 -105 -251
t-173 -156.5t-242 -53.5zM258 277q0 -110 45.5 -162.5t137.5 -52.5q98 0 174 88t120 246.5t44 278.5q0 108 -42 162.5t-131 54.5q-104 0 -181.5 -87t-122 -249t-44.5 -279z" />
    <glyph glyph-name="uni01A2" unicode="&#x1a2;" horiz-adv-x="1630" 
d="M927 1365h772l-11 -49q-38 -8 -54.5 -18t-30 -30t-27 -62.5t-34.5 -138.5l-254 -1157q-13 -59 -17 -93.5t-4 -62.5q0 -45 22.5 -63.5t75.5 -22.5l-11 -49h-395l11 49q38 6 57 19.5t32 37.5t24 58.5t33 133.5l299 1361h-200l-281 -1278q-71 -8 -132.5 -12t-118.5 -4
q-134 0 -238 31t-176 94t-109.5 158t-37.5 224q0 54 7 125t28.5 151t61 165.5t105.5 166.5q45 56 101.5 104.5t129 84.5t164.5 56.5t208 20.5zM438 982q-43 -77 -68 -147t-38 -131.5t-16.5 -113.5t-3.5 -93q0 -81 16.5 -157.5t60.5 -136.5t121 -96t199 -36h32q17 0 35 2
l266 1205h-102q-100 0 -178.5 -24t-139.5 -64.5t-106 -94t-78 -113.5z" />
    <glyph glyph-name="uni01A3" unicode="&#x1a3;" horiz-adv-x="1367" 
d="M614 973q46 0 90.5 -9t87.5 -25q27 -10 53.5 -21.5t53 -21.5t54.5 -16.5t58 -6.5q65 0 116 29t95 71l66 -16l-251 -1137q-6 -29 -11 -57t-5 -57q0 -27 8 -43t22 -25t33 -13t42 -6l-9 -49h-305l270 1224q-47 -11 -92 -11q-18 0 -36 1.5t-36 3.5l-74 -327
q-27 -117 -75 -206.5t-110.5 -149.5t-136.5 -90.5t-152 -30.5q-74 0 -127.5 26t-88.5 71t-52 106.5t-17 132.5q0 68 13 143t40 147.5t69.5 138.5t101.5 115.5t135 79t170 29.5zM591 893q-67 0 -118 -37t-87.5 -95.5t-61 -130t-38.5 -140t-20 -126t-6 -87.5q0 -38 6.5 -74
t22.5 -64.5t43 -46t69 -17.5q47 0 85 20.5t67.5 54t52 77.5t39 90t28 91t19.5 82l78 350q-42 22 -86 37.5t-93 15.5z" />
    <glyph glyph-name="uni01A4" unicode="&#x1a4;" horiz-adv-x="1313" 
d="M591 1277q-44 0 -92 -8.5t-92 -38t-81.5 -85.5t-58.5 -152h-149l35 160q53 66 113.5 107t126.5 64.5t136.5 32t144.5 8.5h247q119 0 195.5 -18.5t126 -57t74 -97.5t24.5 -137q0 -150 -71 -260t-192.5 -162t-291.5 -52q-102 0 -170 4l-64 -294q-9 -41 -12.5 -63t-6 -47.5
t-2.5 -45.5q0 -31 10 -48.5t30 -25.5t69 -12l-11 -49h-411l11 49q38 6 57 19.5t32 37.5t24 58.5t33 133.5zM737 668q121 0 195.5 25t122 77.5t73.5 124.5t26 158q0 85 -30 134t-85 69.5t-140 20.5h-129l-137 -609h104z" />
    <glyph glyph-name="uni01A5" unicode="&#x1a5;" horiz-adv-x="1079" 
d="M214 -177q-10 -48 -12.5 -74t-2.5 -43q0 -30 10 -47t31 -26t69 -14l-8 -49h-309l335 1475q23 103 64 177t98 121.5t128.5 70t157.5 22.5q98 0 169 -16l-39 -170h-88q-14 57 -36.5 82t-66.5 25q-40 0 -73 -16t-61 -52.5t-51.5 -95.5t-44.5 -145l-83 -336l9 -4
q96 140 181 202t175 62q109 0 169.5 -83t60.5 -234q0 -108 -29.5 -217t-82 -197t-117 -144.5t-136 -84.5t-150.5 -28q-133 0 -221 58zM334 348q-10 -53 -12.5 -81t-2.5 -55q0 -78 33.5 -113.5t115.5 -35.5q51 0 94 20t81.5 58t69.5 92t55.5 125.5t37 147t12.5 141.5
q0 105 -29.5 156.5t-93.5 51.5q-24 0 -48.5 -8t-51.5 -27t-57.5 -51t-66.5 -81q-48 -64 -79.5 -134.5t-49.5 -163.5z" />
    <glyph glyph-name="uni01A6" unicode="&#x1a6;" horiz-adv-x="1157" 
d="M421 496l-45 -205q-10 -52 -15.5 -88.5t-5.5 -67.5q0 -45 22.5 -63.5t70.5 -22.5l-11 -49h-395l11 49q38 6 57 19.5t32 37.5t24 58.5t33 133.5l170 770q10 46 16 88.5t6 72.5q0 47 -24 65.5t-74 21.5l11 49h400l-11 -49q-33 -5 -48 -12t-27 -20t-23 -38.5t-27 -80.5h131
q119 0 195.5 -16t126 -49t74 -83.5t24.5 -117.5q0 -74 -23.5 -136t-66.5 -110.5t-103 -82.5t-133 -52l89 -440q8 -36 16.5 -67t20 -59.5t25 -45.5t29 -28t35 -17.5t49.5 -11.5l-10 -49h-273q-32 89 -57 212l-98 481q-40 -1 -54 -1q-86 0 -144 4zM547 1074l-107 -495h81
q115 0 189.5 20.5t122 63.5t73.5 101.5t26 128.5t-30 110t-85 57t-140 17q-62 0 -130 -3z" />
    <glyph glyph-name="uni01A7" unicode="&#x1a7;" horiz-adv-x="992" 
d="M852 311l-61 -276q-114 -26 -207.5 -38.5t-166.5 -12.5q-76 0 -142.5 16.5t-115.5 52t-77.5 91t-28.5 133.5q0 99 37.5 172t97.5 129t136 100t154 83q70 36 136 71t117 76.5t81.5 92t30.5 116.5q0 89 -50.5 132t-131.5 43q-113 0 -184.5 -53.5t-120.5 -169.5h-97l58 257
q105 30 193 42.5t164 12.5q73 0 135.5 -14.5t108.5 -46t72.5 -82t26.5 -122.5q0 -67 -17 -121t-47 -99t-71 -81.5t-88 -68t-99 -58.5t-103 -53q-69 -35 -134 -69.5t-115.5 -76t-80.5 -93t-30 -119.5q0 -101 54.5 -152t148.5 -51q59 0 105.5 14t85 43.5t69.5 74t59 105.5h98z
" />
    <glyph glyph-name="uni01A8" unicode="&#x1a8;" horiz-adv-x="782" 
d="M148 723l44 198q67 23 138 37.5t147 14.5q65 0 117.5 -14.5t89 -42t56.5 -67.5t20 -91q0 -67 -29 -116.5t-75.5 -87.5t-105 -67.5t-117.5 -56.5q-52 -23 -100 -46.5t-85 -51t-59.5 -61.5t-22.5 -77q0 -24 9 -47t27 -41t45 -29t63 -11q86 0 150.5 43.5t113.5 136.5h78
l-47 -216q-78 -19 -154.5 -32.5t-151.5 -13.5q-68 0 -121 15.5t-90.5 44.5t-57 69t-19.5 90q0 71 29.5 123t77.5 91.5t107.5 69.5t119.5 57q51 23 99 45.5t84.5 49t58.5 58t22 72.5q0 25 -9.5 47t-28.5 38.5t-46 26t-62 9.5q-75 0 -131.5 -38.5t-103.5 -128.5h-80z" />
    <glyph glyph-name="uni01A9" unicode="&#x1a9;" horiz-adv-x="1077" 
d="M1063 1022h-98q0 111 -10.5 163t-33.5 72.5t-96 20.5h-356l221 -498l-14 -57l-492 -573h394q77 0 111 11.5t70.5 57t86.5 156.5h96l-94 -375h-907l10 49l575 670l-276 598l10 49h879z" />
    <glyph glyph-name="uni01AA" unicode="&#x1aa;" horiz-adv-x="653" 
d="M338 -80q-9 -39 -19 -85t-10 -88q0 -46 18.5 -78t68.5 -32q13 0 30 4t34.5 17t34.5 36.5t31 61.5h83l-38 -171q-54 -12 -99 -18.5t-87 -6.5q-112 0 -174.5 49t-62.5 156q0 38 6.5 78.5t15.5 79.5l245 1091q-25 -5 -46.5 -6.5t-44.5 -1.5q-98 0 -156 45.5t-58 130.5
q0 62 23.5 109.5t63 79.5t90.5 48.5t106 16.5q64 0 106 -15.5t67 -43.5t35 -66t10 -84q0 -43 -7 -89t-17 -92zM444 1146q5 24 10.5 54.5t5.5 59.5q0 43 -19 72t-68 29q-35 0 -64 -12t-50 -33t-32.5 -50t-11.5 -64q0 -60 36 -93t101 -33q18 0 38 2.5t41 7.5z" />
    <glyph glyph-name="uni01AB" unicode="&#x1ab;" horiz-adv-x="707" 
d="M675 184q-22 -119 -42.5 -211.5t-44 -162t-51.5 -117t-64.5 -77.5t-83.5 -43t-108 -13q-73 0 -136 20l39 173h79q2 -41 17.5 -64t56.5 -23q48 0 81 34.5t57 88.5t40.5 119.5t34.5 150.5q-99 -75 -207 -75q-106 0 -158 54t-52 157q0 63 18 141l124 519h-149l11 51
q59 7 93.5 25.5t57.5 48.5q12 16 23 35.5t21 44.5t22.5 60t27.5 83h138l-55 -247h317l-22 -101h-318l-96 -388q-40 -160 -40 -242q0 -124 104 -124q46 0 96.5 35.5t110.5 107.5z" />
    <glyph glyph-name="uni01AC" unicode="&#x1ac;" horiz-adv-x="1175" 
d="M712 0h-421l11 49q39 5 58 15.5t33.5 31.5t29.5 65.5t35 136.5l214 979h-38q-47 0 -97 -8.5t-95.5 -38t-82.5 -85.5t-58 -152h-153l35 160q50 65 113.5 107.5t131.5 67.5t134.5 31t130.5 6h612l-78 -352h-96q0 97 -5 145.5t-19 74t-34.5 35t-72.5 9.5h-148l-217 -986
q-9 -39 -12.5 -62t-6 -48.5t-2.5 -45.5q0 -31 10 -48.5t30 -25.5t69 -12z" />
    <glyph glyph-name="uni01AD" unicode="&#x1ad;" horiz-adv-x="707" 
d="M675 184q-82 -99 -162 -149.5t-170 -50.5q-106 0 -158 54t-52 157q0 63 18 141l124 519h-149l11 51q43 5 75 17t54.5 33t38 50.5t27.5 68.5q28 93 67 161.5t93 112.5t123.5 65.5t157.5 21.5q40 0 75.5 -4t65.5 -12l-39 -170h-88q-8 55 -29 81t-62 26q-40 0 -69.5 -17
t-53 -52.5t-43 -91t-38.5 -131.5l-27 -109h317l-22 -101h-318l-96 -388q-40 -162 -40 -242q0 -61 26.5 -92.5t77.5 -31.5q46 0 96.5 35.5t110.5 107.5z" />
    <glyph glyph-name="uni01AE" unicode="&#x1ae;" horiz-adv-x="1175" 
d="M564 -31q-14 -66 -21 -104t-7 -66q0 -21 4 -39.5t14.5 -32t28 -21t43.5 -7.5q15 0 32 4t34 17.5t34 38.5t33 67h95l-43 -194q-110 -27 -198 -27q-129 0 -189 53.5t-60 154.5q0 37 6.5 77t17.5 87l284 1300h-127q-62 0 -99 -18t-74 -67t-90 -164h-96l75 337h1044l-78 -352
h-96q0 97 -5 145.5t-19 74t-34.5 35t-72.5 9.5h-148z" />
    <glyph glyph-name="Uhorn" unicode="&#x1af;" horiz-adv-x="1532" 
d="M260 1316l11 49h402l-11 -49q-38 -8 -54.5 -18t-30.5 -30t-27 -63q-7 -21 -15 -55.5t-19 -82.5l-125 -560q-13 -57 -20.5 -108.5t-7.5 -106.5q0 -109 53 -165t162 -56q78 1 134 24t96.5 68t68.5 114t49 162l139 629q10 45 16 88t6 73q0 48 -23.5 66t-74.5 21l11 49h380
l-11 -49q-37 -8 -54.5 -18.5t-31.5 -30.5q-7 -10 -13 -25.5t-13 -37.5t-15 -55.5t-19 -81.5l-9 -42q47 2 82.5 7.5t62 18.5t46.5 36t35.5 60t29.5 90.5t30 127.5h185l-9 -44q-18 -89 -46 -157t-80.5 -114t-136.5 -69t-214 -23l-106 -490q-30 -135 -76.5 -227t-113 -149
t-155 -82.5t-203.5 -26.5q-174 0 -265.5 83t-91.5 244q0 57 11.5 129t32.5 163l104 466q12 54 17.5 95t5.5 66q0 45 -22.5 64.5t-76.5 22.5z" />
    <glyph glyph-name="uhorn" unicode="&#x1b0;" horiz-adv-x="1261" 
d="M153 956h315l-127 -509q-14 -56 -24.5 -111.5t-10.5 -101.5q0 -71 24.5 -102t76.5 -31q43 0 93 33.5t106 104t88.5 133.5t50.5 150l91 434h173l-65 -292q61 4 97 20.5t58.5 50.5t37 88t31.5 133h163l-9 -43q-15 -65 -36.5 -121t-63.5 -97t-111 -64.5t-180 -24.5l-74 -333
q-6 -27 -14 -71t-8 -72q0 -42 23.5 -59.5t87.5 -21.5l-11 -49h-286l64 251l-13 4q-97 -138 -187.5 -204.5t-182.5 -66.5q-97 0 -147 53.5t-50 158.5q0 30 5.5 70.5t15.5 84.5l84 355q10 44 13.5 70t3.5 44q0 45 -24 63t-86 23z" />
    <glyph glyph-name="uni01B1" unicode="&#x1b1;" horiz-adv-x="1268" 
d="M927 1365h314l-12 -51q-38 -7 -70 -12.5t-55 -13.5t-36 -19.5t-13 -30.5q0 -9 4 -21t18 -38q24 -46 44.5 -98.5t36 -108.5t24.5 -113t9 -111q0 -101 -21.5 -197t-61.5 -181t-97 -155.5t-128 -122t-154 -80t-175 -28.5q-113 0 -195 30t-136 85t-80 130.5t-26 167.5
q0 106 22 206t66 196.5t111.5 191t158.5 189.5q26 28 36.5 42t10.5 32q0 20 -31 33t-111 27l12 51h318l-9 -38q-87 -111 -159.5 -226t-124.5 -230t-81 -229.5t-29 -223.5q0 -72 13.5 -135.5t44 -110.5t80 -74.5t122.5 -27.5q82 0 147 37.5t114.5 99t84.5 141t57.5 163.5
t33 166t10.5 149q0 77 -6.5 144.5t-19 128.5t-30.5 117t-40 111z" />
    <glyph glyph-name="uni01B2" unicode="&#x1b2;" horiz-adv-x="1317" 
d="M260 1316l11 49h402l-11 -49q-38 -8 -54.5 -18t-30 -30t-27 -62.5t-34.5 -138.5l-123 -551q-13 -57 -20.5 -108.5t-7.5 -106.5q0 -109 53.5 -165t161.5 -56q92 0 166.5 38.5t133 103.5t100.5 152.5t69 185.5t40 201.5t13 200.5q0 211 -57 354l10 49h201q30 -123 30 -286
q0 -131 -21.5 -263t-64.5 -253.5t-106.5 -227.5t-145.5 -184t-183.5 -123t-219.5 -45q-173 0 -265 83.5t-92 243.5q0 56 11.5 128.5t32.5 163.5l104 466q12 53 17.5 94.5t5.5 66.5q0 45 -23 64.5t-76 22.5z" />
    <glyph glyph-name="uni01B3" unicode="&#x1b3;" horiz-adv-x="1217" 
d="M624 691l410 544q29 39 57.5 66.5t60 45t67 25.5t77.5 8t72.5 -5t60.5 -15l-46 -217h-94q-2 56 -20 74.5t-45 18.5q-11 0 -21.5 -2t-23 -10.5t-29 -24.5t-37.5 -43l-450 -582l-62 -283q-9 -40 -12.5 -62.5t-6 -48t-2.5 -45.5q0 -31 10 -48.5t30 -25.5t69 -12l-11 -49
h-421l11 49q40 6 59 16t33.5 31t29 66t34.5 136l59 276l-145 505q-33 116 -52 157t-40.5 58t-56.5 22l11 49h387l-11 -49q-42 -4 -64 -24.5t-22 -63.5q0 -61 28 -160z" />
    <glyph glyph-name="uni01B4" unicode="&#x1b4;" horiz-adv-x="1163" 
d="M185 738q-10 76 -19 105.5t-29 45t-65 18.5l11 49h257l75 -786q108 159 187.5 303.5t140 267t109.5 220.5t100.5 166.5t113.5 105t157 36.5q81 0 140 -20l-42 -191h-92q1 7 1 12v11q0 42 -17.5 57.5t-48.5 15.5q-37 0 -71.5 -33t-72.5 -94t-82 -146.5t-98 -190t-121 -226
t-152 -253.5q-96 -149 -182 -269.5t-170 -205t-169 -130t-179 -45.5q-27 0 -61 5.5t-58 14.5l43 187h78q1 -34 16 -54t44 -20q32 0 55 6.5t48.5 21.5t62 48t82.5 87.5t103 131.5z" />
    <glyph glyph-name="uni01B5" unicode="&#x1b5;" horiz-adv-x="1049" 
d="M237 92h320q44 0 72 6t50 18t41 30t38.5 43t43 67t51.5 106h96l-77 -362h-887l10 49l460 620h-217l20 92h265l380 512h-307q-42 0 -67 -4.5t-44 -14t-34 -22t-35.5 -37t-45 -63.5t-56.5 -105h-96l74 338h866l-11 -48l-413 -556h216l-20 -92h-265z" />
    <glyph glyph-name="uni01B6" unicode="&#x1b6;" horiz-adv-x="921" 
d="M795 272l-59 -272h-724l-19 49l351 404h-218l20 92h278l116 134q116 133 170 189l-6 7h-234q-52 0 -75.5 -6.5t-47.5 -23.5t-51 -49.5t-61 -93.5h-89l57 254h711l19 -50l-317 -361h216l-20 -92h-277l-320 -365l6 -7h226q60 0 91.5 6t55.5 23.5t49 52.5t63 109h89z" />
    <glyph glyph-name="uni01B7" unicode="&#x1b7;" horiz-adv-x="1031" 
d="M241 1049l69 316h816l-11 -48l-468 -581q75 -13 128.5 -42.5t87.5 -69t50 -86.5t16 -95q0 -114 -40.5 -200t-113.5 -143.5t-174.5 -86.5t-222.5 -29q-109 0 -198.5 15.5t-170.5 41.5l59 273h95q3 -56 15.5 -99.5t39.5 -73.5t70.5 -45.5t107.5 -15.5q77 0 140.5 25
t108.5 73t70 117t25 157q0 109 -63.5 161t-202.5 52l-48 59l445 549h-257q-31 0 -53 -2.5t-38.5 -7.5t-29 -13t-24 -17.5t-25 -23.5t-29 -35.5t-34 -52t-39.5 -72.5h-101z" />
    <glyph glyph-name="uni01B8" unicode="&#x1b8;" horiz-adv-x="1036" 
d="M945 1049q-3 42 -8.5 72.5t-11 52t-13 35.5t-15 23.5t-16 17.5t-23 13t-35.5 7.5t-52 2.5h-267l212 -549l-73 -59q-106 5 -183 -21.5t-127 -76t-74 -118t-24 -147.5q0 -110 60 -166.5t169 -56.5q62 0 112.5 15t91 45t73 74t59.5 101h95l-61 -273q-46 -12 -90.5 -22.5
t-91 -18t-97 -12t-107.5 -4.5q-76 0 -148.5 15.5t-129.5 52.5t-91.5 98t-34.5 151q0 95 33 171t94.5 131.5t149 89.5t195.5 46l-226 578l8 48h817l-69 -316h-101z" />
    <glyph glyph-name="uni01B9" unicode="&#x1b9;" horiz-adv-x="935" 
d="M547 263q-28 5 -56 7.5t-53 2.5q-88 0 -154 -30.5t-109.5 -84t-65.5 -126t-22 -156.5q0 -54 11.5 -98t37.5 -75.5t69.5 -49t107.5 -17.5q109 0 183.5 48t122.5 148h109l-47 -208q-109 -36 -202.5 -53.5t-180.5 -17.5t-159 18t-124.5 58t-81.5 103.5t-29 154.5
q0 113 39.5 201t111.5 148.5t172.5 92t221.5 31.5h8l-268 546l20 50h748l-56 -263h-87q-6 53 -12.5 88t-22.5 56t-44.5 29.5t-77.5 8.5h-272l-5 -7q43 -75 97 -189l172 -355z" />
    <glyph glyph-name="uni01BA" unicode="&#x1ba;" horiz-adv-x="903" 
d="M233 386l291 313q57 61 98.5 102.5t67.5 66.5l-4 7h-252q-52 0 -76 -7t-48 -24.5t-51.5 -52t-61.5 -98.5h-89l59 263h732l19 -50l-468 -495h15q148 0 225 -43.5t77 -140.5q0 -65 -31.5 -110.5t-82.5 -78.5t-115.5 -56t-129.5 -42q-66 -19 -122 -36.5t-96 -39t-62.5 -50.5
t-22.5 -72q0 -31 14 -53.5t38 -37t56.5 -21.5t70.5 -7q89 0 151.5 38.5t109.5 133.5h87l-43 -196q-91 -24 -165.5 -34.5t-147.5 -10.5q-152 0 -224.5 51t-72.5 140q0 64 29.5 109t77.5 77.5t108 55.5t120 44q50 17 96.5 34.5t82.5 39t57.5 49t21.5 64.5q0 31 -14 52
t-39 34.5t-58.5 19.5t-72.5 6q-20 0 -40 -1.5t-40 -3.5z" />
    <glyph glyph-name="uni01BB" unicode="&#x1bb;" horiz-adv-x="950" 
d="M527 160q37 0 57.5 4t33.5 11.5t27 22.5t25.5 35t29.5 59h93l-74 -292h-784l10 48q58 104 151.5 218t253.5 266q37 35 68 65h-253l20 92h320q115 113 162.5 181t67.5 126t20 118q0 84 -47.5 129.5t-135.5 45.5q-82 0 -147.5 -49t-105.5 -139h-129l43 192
q113 45 209.5 66.5t192.5 21.5q98 0 169.5 -32.5t108 -90t36.5 -126.5q0 -65 -16 -118.5t-50 -106.5q-42 -64 -129 -153q-27 -28 -67 -65h210l-20 -92h-282q-42 -38 -91 -82q-250 -224 -347 -355h370z" />
    <glyph glyph-name="uni01BC" unicode="&#x1bc;" horiz-adv-x="1118" 
d="M248 728l75 340q9 42 15.5 83t6.5 75q0 44 -20 65t-78 25l11 49h876l-69 -307h-96q-4 72 -13.5 114t-25.5 64q-14 20 -37 26.5t-66 6.5h-282l-110 -497q47 8 93 12t91 4q81 0 154 -16t127.5 -54t86.5 -100t32 -153q0 -130 -49.5 -221.5t-132.5 -149t-191 -84t-224 -26.5
q-94 0 -191.5 14.5t-188.5 42.5l59 273h95q2 -53 15 -96.5t42 -75t76 -49t117 -17.5q85 0 156 28t122 78t79 118.5t28 150.5q0 67 -20.5 113t-57.5 74.5t-88.5 40.5t-112.5 12q-53 0 -107 -6.5t-112 -20.5z" />
    <glyph glyph-name="uni01BD" unicode="&#x1bd;" horiz-adv-x="917" 
d="M136 239q3 -176 193 -176q54 0 104 11.5t88 37.5t61 68t23 103q0 55 -22 91t-57 57t-80 29t-90 8q-65 0 -149 -12l-62 37l54 247q19 87 4.5 121t-75.5 46l11 49h724l-58 -258h-81q-3 60 -11 95.5t-21 54.5q-12 16 -31.5 21.5t-55.5 5.5h-210l-73 -332q51 6 102 6
q74 0 141 -14t117.5 -46t77.5 -83.5t23 -127.5q-4 -63 -34.5 -117t-88.5 -93.5t-142 -61.5t-195 -22q-157 0 -318 50l46 205h85z" />
    <glyph glyph-name="uni01BE" unicode="&#x1be;" horiz-adv-x="762" 
d="M259 855h-149l11 51q59 7 93.5 25.5t58 49t43.5 79.5t50 143h138l-55 -247h317l-22 -101h-318l-17 -68q-4 -16 -6 -30t-2 -28q0 -34 10 -61t26.5 -50t38 -43t44.5 -40q25 -22 49 -46.5t43.5 -54.5t31.5 -68t12 -87q0 -73 -26 -128t-71.5 -92t-108.5 -56t-138 -19
q-151 0 -313 46l47 216h78q13 -183 185 -183q90 0 139.5 44.5t49.5 117.5q0 42 -11.5 74.5t-30 59.5t-42 49.5t-48.5 44.5t-49.5 46t-43.5 53.5t-30.5 65.5t-11.5 83q0 20 3 40t8 43z" />
    <glyph glyph-name="uni01BF" unicode="&#x1bf;" horiz-adv-x="1058" 
d="M-10 -439l255 1121q19 84 19 144q0 28 -8.5 43.5t-29 23t-69.5 10.5l12 53l227 9h57l-67 -260l12 -4q185 271 368 271q103 0 161 -72t58 -203q0 -66 -16.5 -137.5t-52.5 -143t-94 -140.5t-140.5 -129.5t-192 -111t-249.5 -85.5l-85 -389h-165zM811 671q0 92 -30.5 138
t-85.5 46q-51 0 -100.5 -34.5t-108.5 -110.5t-94.5 -150t-54.5 -170l-79 -359q158 41 264.5 114.5t170.5 162.5t91 184t27 179z" />
    <glyph glyph-name="uni01C0" unicode="&#x1c0;" horiz-adv-x="518" 
d="M216 0h-134l315 1431h134z" />
    <glyph glyph-name="uni01C1" unicode="&#x1c1;" horiz-adv-x="836" 
d="M216 0h-134l315 1431h134zM534 0h-134l315 1431h134z" />
    <glyph glyph-name="uni01C2" unicode="&#x1c2;" horiz-adv-x="598" 
d="M38 617h219l43 198h-220l21 92h220l115 524h134l-115 -524h220l-21 -92h-220l-43 -198h220l-20 -92h-220l-116 -525h-134l116 525h-219z" />
    <glyph glyph-name="uni01C3" unicode="&#x1c3;" horiz-adv-x="543" 
d="M531 1431h56l-288 -1015h-99l177 1011zM308 232l-51 -232h-190l51 232h190z" />
    <glyph glyph-name="uni01C4" unicode="&#x1c4;" horiz-adv-x="2358" 
d="M683 1365q151 0 245 -23t175.5 -83t122.5 -159.5t41 -235.5q0 -135 -31 -258t-89 -226.5t-139 -180t-157 -117.5t-170 -61.5t-219 -20.5h-420l11 49q38 6 57 19.5t32 37.5t24 58.5t33 133.5l170 770q10 46 16 88.5t6 72.5q0 47 -24 65.5t-74 21.5l11 49h379zM332 92
q29 -3 111 -3q101 0 183.5 22t152 70.5t126.5 129.5t92.5 164.5t55.5 179.5t20 203q0 209 -97.5 314.5t-289.5 105.5q-44 0 -95 -3zM1546 92h320q44 0 72 6t50 18t41 30t38.5 43t43 67t51.5 106h96l-77 -362h-887l10 49l908 1224h-307q-42 0 -67 -4.5t-44 -14t-34 -22
t-35.5 -37t-45 -63.5t-56.5 -105h-96l74 338h866l-11 -48zM1983 1468l-161 261l66 50l180 -182h10l263 183l52 -62l-274 -250h-136z" />
    <glyph glyph-name="uni01C5" unicode="&#x1c5;" horiz-adv-x="2245" 
d="M683 1365q151 0 245 -23t175.5 -83t122.5 -159.5t41 -235.5q0 -135 -31 -258t-89 -226.5t-139 -180t-157 -117.5t-170 -61.5t-219 -20.5h-420l11 49q38 6 57 19.5t32 37.5t24 58.5t33 133.5l170 770q10 46 16 88.5t6 72.5q0 47 -24 65.5t-74 21.5l11 49h379zM332 92
q29 -3 111 -3q101 0 183.5 22t152 70.5t126.5 129.5t92.5 164.5t55.5 179.5t20 203q0 209 -97.5 314.5t-289.5 105.5q-44 0 -95 -3zM2121 281l-61 -281h-724l-19 49l547 630q116 133 170 189l-6 7h-234q-52 0 -76 -7t-48 -24.5t-51.5 -52t-61.5 -98.5h-89l59 263h711l19 -50
l-718 -818l6 -7h226q60 0 92 6.5t56 24.5t49.5 54.5t63.5 114.5h89zM1833 1080l-132 335l78 37l138 -243h10l256 243l63 -57l-278 -315h-135z" />
    <glyph glyph-name="uni01C6" unicode="&#x1c6;" horiz-adv-x="1994" 
d="M870 1148q8 33 14 73t6 70t-11 45.5t-31.5 22.5t-73.5 10l12 52l251 9h59l-259 -1152q-14 -63 -19 -94t-5 -52q0 -41 23 -59.5t88 -23.5l-9 -49h-286l63 251l-13 4q-96 -140 -182 -205t-182 -65q-110 0 -170.5 83t-60.5 233q0 96 22 192.5t66.5 183t106.5 152.5
t143.5 105t177.5 39q61 0 112.5 -12.5t105.5 -43.5zM746 609q15 72 15 136q0 78 -33 113.5t-110 35.5q-42 0 -80 -13.5t-77 -45t-74.5 -82.5t-64.5 -124t-45 -156.5t-16 -162.5q0 -104 28.5 -155.5t95.5 -51.5q31 0 64.5 14t74.5 51.5t93 110.5q47 67 74.5 132.5t45.5 154.5
zM1870 281l-61 -281h-724l-19 49l547 630q116 133 170 189l-6 7h-234q-52 0 -76 -7t-48 -24.5t-51.5 -52t-61.5 -98.5h-89l59 263h711l19 -50l-718 -818l6 -7h226q60 0 92 6.5t56 24.5t49.5 54.5t63.5 114.5h89zM1597 1080l-132 335l78 37l138 -243h10l256 243l63 -57
l-278 -315h-135z" />
    <glyph glyph-name="uni01C7" unicode="&#x1c7;" horiz-adv-x="1684" 
d="M53 49q38 6 57 19.5t32 37.5t24 58.5t33 133.5l170 770q10 46 16 88.5t6 72.5q0 47 -24 65.5t-74 21.5l11 49h400l-11 -49q-38 -8 -54.5 -18t-30 -30t-27 -62.5t-34.5 -138.5l-214 -975h246q67 0 105.5 13t73 47.5t67.5 93.5t67 147h97l-101 -393h-846zM1372 43
q-34 -156 -87 -248.5t-137.5 -137t-207.5 -44.5q-27 0 -53 2.5t-42 7.5l26 96q16 -5 35.5 -6.5t40.5 -1.5q58 0 100.5 27t77 93.5t60.5 182.5l234 1054q10 44 16 87.5t6 73.5q0 47 -24 65.5t-74 21.5l11 49h400l-11 -49q-38 -8 -54.5 -18t-30 -30t-27 -62.5t-34.5 -138.5z
" />
    <glyph glyph-name="uni01C8" unicode="&#x1c8;" horiz-adv-x="1616" 
d="M53 49q38 6 57 19.5t32 37.5t24 58.5t33 133.5l170 770q10 46 16 88.5t6 72.5q0 47 -24 65.5t-74 21.5l11 49h400l-11 -49q-38 -8 -54.5 -18t-30 -30t-27 -62.5t-34.5 -138.5l-214 -975h246q67 0 105.5 13t73 47.5t67.5 93.5t67 147h97l-101 -393h-846zM1634 1348
l-46 -194h-177l46 194h177zM1333 -17q-32 -152 -87 -244.5t-143 -139t-210 -46.5q-50 0 -85 10l23 88q16 -5 35.5 -6.5t40.5 -1.5q48 0 81.5 14.5t62.5 48t53.5 93.5t45.5 155l162 720q13 56 18 91t5 59q0 29 -8.5 45t-28.5 24t-69 10l11 53l244 9h57z" />
    <glyph glyph-name="uni01C9" unicode="&#x1c9;" horiz-adv-x="1091" 
d="M505 1430h59l-260 -1180q-11 -48 -14 -72.5t-3 -41.5q0 -30 10 -47t31 -26t69 -14l-8 -49h-312l258 1148q10 44 14 66t6 42t2 35q0 30 -11 45.5t-31.5 22.5t-73.5 10l12 52zM1109 1348l-46 -194h-177l46 194h177zM808 -17q-32 -152 -87 -244.5t-143 -139t-210 -46.5
q-50 0 -85 10l23 88q16 -5 35.5 -6.5t40.5 -1.5q48 0 81.5 14.5t62.5 48t53.5 93.5t45.5 155l162 720q13 56 18 91t5 59q0 29 -8.5 45t-28.5 24t-69 10l11 53l244 9h57z" />
    <glyph glyph-name="uni01CA" unicode="&#x1ca;" horiz-adv-x="1987" 
d="M1428 1365l-11 -49q-38 -8 -54.5 -18t-30 -30t-27 -62.5t-34.5 -138.5l-235 -1067h-136l-292 858q-53 154 -93 307h-13q-6 -51 -33 -194.5t-57 -280.5l-88 -399q-9 -42 -15 -81t-6 -75q0 -45 22.5 -63.5t75.5 -22.5l-11 -49h-350l11 49q38 6 57 19.5t32 37.5t24 58.5
t33 133.5l170 770q10 43 16 82t6 79q0 47 -24 65.5t-74 21.5l11 49h319l264 -779q57 -168 88 -284h11q8 61 36.5 203t52.5 248l70 315q7 33 14.5 78t7.5 83q0 47 -24 65.5t-74 21.5l11 49h350zM1675 43q-34 -156 -87 -248.5t-137.5 -137t-207.5 -44.5q-27 0 -53 2.5t-42 7.5
l26 96q16 -5 35.5 -6.5t40.5 -1.5q58 0 100.5 27t77 93.5t60.5 182.5l234 1054q10 44 16 87.5t6 73.5q0 47 -24 65.5t-74 21.5l11 49h400l-11 -49q-38 -8 -54.5 -18t-30 -30t-27 -62.5t-34.5 -138.5z" />
    <glyph glyph-name="uni01CB" unicode="&#x1cb;" horiz-adv-x="1919" 
d="M1428 1365l-11 -49q-38 -8 -54.5 -18t-30 -30t-27 -62.5t-34.5 -138.5l-235 -1067h-136l-292 858q-53 154 -93 307h-13q-6 -51 -33 -194.5t-57 -280.5l-88 -399q-9 -42 -15 -81t-6 -75q0 -45 22.5 -63.5t75.5 -22.5l-11 -49h-350l11 49q38 6 57 19.5t32 37.5t24 58.5
t33 133.5l170 770q10 43 16 82t6 79q0 47 -24 65.5t-74 21.5l11 49h319l264 -779q57 -168 88 -284h11q8 61 36.5 203t52.5 248l70 315q7 33 14.5 78t7.5 83q0 47 -24 65.5t-74 21.5l11 49h350zM1937 1348l-46 -194h-177l46 194h177zM1636 -17q-32 -152 -87 -244.5t-143 -139
t-210 -46.5q-50 0 -85 10l23 88q16 -5 35.5 -6.5t40.5 -1.5q48 0 81.5 14.5t62.5 48t53.5 93.5t45.5 155l162 720q13 56 18 91t5 59q0 29 -8.5 45t-28.5 24t-69 10l11 53l244 9h57z" />
    <glyph glyph-name="uni01CC" unicode="&#x1cc;" horiz-adv-x="1641" 
d="M943 0h-315l127 508q12 49 23.5 108t11.5 106q0 71 -24.5 102t-76.5 31q-42 0 -90.5 -32.5t-101.5 -97t-89.5 -131t-56.5 -161.5l-91 -433h-173l152 683q5 23 13.5 68t8.5 75q0 28 -8.5 43.5t-29 23t-69.5 10.5l12 53l227 9h57l-67 -260l12 -4q98 138 189 204.5t182 66.5
q97 0 147 -53.5t50 -158.5q0 -36 -6.5 -78.5t-14.5 -75.5l-84 -356q-17 -72 -17 -114q0 -30 10 -47t31 -26t69 -14zM1659 1348l-46 -194h-177l46 194h177zM1358 -17q-32 -152 -87 -244.5t-143 -139t-210 -46.5q-50 0 -85 10l23 88q16 -5 35.5 -6.5t40.5 -1.5q48 0 81.5 14.5
t62.5 48t53.5 93.5t45.5 155l162 720q13 56 18 91t5 59q0 29 -8.5 45t-28.5 24t-69 10l11 53l244 9h57z" />
    <glyph glyph-name="uni01CD" unicode="&#x1cd;" horiz-adv-x="1205" 
d="M678 0l11 49q45 4 70.5 26t36 61t10.5 103q0 39 -3 85l-7 129h-440l-55 -98q-39 -69 -57 -118.5t-18 -87.5q0 -84 101 -100l-11 -49h-409l11 49q31 4 58.5 24.5t58.5 62t87 137.5l641 1108h151l72 -1115q5 -79 18 -123.5t35.5 -66t65.5 -27.5l-11 -49h-416zM401 540h391
l-17 322q-3 66 -5 165t-2 143h-11zM782 1468l-161 261l66 50l180 -182h10l263 183l52 -62l-274 -250h-136z" />
    <glyph glyph-name="uni01CE" unicode="&#x1ce;" horiz-adv-x="1077" 
d="M834 907l92 66l64 -16l-153 -679q-14 -60 -19 -92.5t-5 -53.5q0 -41 23 -59.5t88 -23.5l-9 -49h-286l63 251l-13 4q-96 -140 -182 -205t-182 -65q-110 0 -170.5 83t-60.5 233q0 96 22 192.5t66.5 183t106.5 152.5t143.5 105t177.5 39q62 0 118 -14.5t116 -51.5zM746 609
q9 41 12 71t3 65q0 78 -33 113.5t-110 35.5q-42 0 -80 -13.5t-77 -45t-74.5 -82.5t-64.5 -124t-45 -156.5t-16 -162.5q0 -104 28.5 -155.5t95.5 -51.5q31 0 64.5 14t74.5 51.5t93 110.5q47 67 74.5 132.5t45.5 154.5zM599 1080l-132 335l78 37l138 -243h10l256 243l63 -57
l-278 -315h-135z" />
    <glyph glyph-name="uni01CF" unicode="&#x1cf;" horiz-adv-x="656" 
d="M376 291q-13 -59 -17 -93.5t-4 -62.5q0 -45 22.5 -63.5t75.5 -22.5l-11 -49h-400l11 49q38 6 57 19.5t32 37.5t24 58.5t33 133.5l170 770q10 46 16 88.5t6 72.5q0 47 -24 65.5t-74 21.5l11 49h400l-11 -49q-38 -8 -54.5 -18t-30 -30t-27 -62.5t-34.5 -138.5zM477 1468
l-161 261l66 50l180 -182h10l263 183l52 -62l-274 -250h-136z" />
    <glyph glyph-name="uni01D0" unicode="&#x1d0;" horiz-adv-x="555" 
d="M313 250q-11 -51 -14 -74.5t-3 -39.5q0 -30 10 -47t31 -26t69 -14l-9 -49h-310l151 674q13 58 18 92.5t5 57.5q0 29 -8.5 45t-28.5 24t-69 10l11 53l244 9h59zM332 1080l-132 335l78 37l138 -243h10l256 243l63 -57l-278 -315h-135z" />
    <glyph glyph-name="uni01D1" unicode="&#x1d1;" horiz-adv-x="1273" 
d="M837 1381q124 0 214.5 -48t139 -146t48.5 -242q0 -155 -53 -348.5t-153.5 -335t-229.5 -210t-270 -68.5q-140 0 -231.5 54t-134.5 150.5t-43 227.5q0 127 36.5 284.5t100 284.5t151 216t195.5 135t230 46zM1049 987q0 306 -223 306q-54 0 -102 -18q-56 -22 -107 -65
q-57 -49 -106 -125q-58 -90 -101 -205q-45 -120 -72 -259q-26 -133 -26 -241q0 -156 56.5 -232.5t168.5 -76.5q90 0 171 55q100 67 180 213q86 157 133 383q28 133 28 265zM786 1468l-161 261l66 50l180 -182h10l263 183l52 -62l-274 -250h-136z" />
    <glyph glyph-name="uni01D2" unicode="&#x1d2;" horiz-adv-x="1038" 
d="M409 -17q-155 0 -240.5 87t-85.5 250q0 60 15 141q19 105 54 186q45 101 115.5 174.5t162 112t196.5 38.5q115 0 188.5 -44t106.5 -119.5t33 -174.5q0 -89 -25 -190q-36 -148 -105 -251t-173 -156.5t-242 -53.5zM258 277q0 -110 45.5 -162.5t137.5 -52.5q98 0 174 88
t120 246.5t44 278.5q0 108 -42 162.5t-131 54.5q-104 0 -181.5 -87t-122 -249t-44.5 -279zM580 1080l-132 335l78 37l138 -243h10l256 243l63 -57l-278 -315h-135z" />
    <glyph glyph-name="uni01D3" unicode="&#x1d3;" horiz-adv-x="1295" 
d="M260 1316l11 49h402l-11 -49q-38 -8 -54.5 -18t-30 -30t-27 -62.5t-34.5 -138.5l-125 -560q-13 -57 -20.5 -108.5t-7.5 -106.5q0 -109 53.5 -165t161.5 -56q102 0 170 42t109 121t69 205l139 629q10 45 16 88t6 73q0 47 -24 65.5t-74 21.5l11 49h380l-11 -49
q-37 -8 -54.5 -18.5t-31 -30.5t-26.5 -63t-34 -137l-130 -599q-39 -179 -110 -285t-177.5 -153t-260.5 -47q-173 0 -265 83.5t-92 243.5q0 56 11.5 128.5t32.5 163.5l104 466q12 53 17.5 94.5t5.5 66.5q0 45 -23 64.5t-76 22.5zM802 1468l-161 261l66 50l180 -182h10
l263 183l52 -62l-274 -250h-136z" />
    <glyph glyph-name="uni01D4" unicode="&#x1d4;" horiz-adv-x="1096" 
d="M153 956h315l-127 -509q-14 -56 -24.5 -111.5t-10.5 -101.5q0 -71 24.5 -102t76.5 -31q43 0 93 33.5t106 104t88.5 133.5t50.5 150l91 434h173l-152 -683q-6 -27 -14 -71t-8 -72q0 -42 23.5 -59.5t87.5 -21.5l-11 -49h-286l64 251l-13 4q-97 -138 -187.5 -204.5
t-182.5 -66.5q-97 0 -147 53.5t-50 158.5q0 30 5.5 70.5t15.5 84.5l84 355q10 44 13.5 70t3.5 44q0 45 -24 63t-86 23zM602 1080l-132 335l78 37l138 -243h10l256 243l63 -57l-278 -315h-135z" />
    <glyph glyph-name="uni01D5" unicode="&#x1d5;" horiz-adv-x="1295" 
d="M260 1316l11 49h402l-11 -49q-38 -8 -54.5 -18t-30 -30t-27 -62.5t-34.5 -138.5l-125 -560q-13 -57 -20.5 -108.5t-7.5 -106.5q0 -109 53.5 -165t161.5 -56q102 0 170 42t109 121t69 205l139 629q10 45 16 88t6 73q0 47 -24 65.5t-74 21.5l11 49h380l-11 -49
q-37 -8 -54.5 -18.5t-31 -30.5t-26.5 -63t-34 -137l-130 -599q-39 -179 -110 -285t-177.5 -153t-260.5 -47q-173 0 -265 83.5t-92 243.5q0 56 11.5 128.5t32.5 163.5l104 466q12 53 17.5 94.5t5.5 66.5q0 45 -23 64.5t-76 22.5zM1172 1672l-38 -176h-165l38 176h165z
M822 1672l-38 -176h-165l38 176h165zM1206 1788h-530l26 125h530z" />
    </font>
</defs>
</svg>
